<?xml version="1.0" encoding="UTF-8"?>
<svg id="CREST" xmlns="http://www.w3.org/2000/svg" version="1.1" viewBox="0 0 516.7 693.86">
  <g>
    <path d="M482.1,44.6c-3.6-1.2-89.9-29.6-223.6-29.6S38.5,43.4,34.8,44.6l-19.8,6.7v451.3c0,21.3,6.4,40.7,19.1,57.6,10.3,13.8,24.4,25.6,43.1,36.1,30.8,17.3,68.4,27.8,101.5,37l.2.1c12.9,3.6,25,6.9,35.3,10.3.1,0,8.7,3,15.7,7.6,2.4,1.6,5.5,4.1,8.6,7l19.9,18.7,19.9-18.7c3.1-2.9,6.2-5.4,8.5-7,6.5-4.3,14.8-7.3,15.7-7.6,10.4-3.4,22.5-6.8,35.3-10.3l.2-.1c33.2-9.2,70.8-19.7,101.5-37,18.7-10.5,32.8-22.3,43.1-36.1,12.7-17,19.1-36.4,19.1-57.6V51.3l-19.6-6.7ZM487.4,502.6c0,18.1-5.5,34.5-16.2,48.9-9.1,12.1-21.7,22.7-38.6,32.2-29.2,16.5-65.9,26.6-98.3,35.6h-.2c-13,3.6-25.4,7-36.1,10.6-.1,0-10.4,3.6-19,9.2-3.1,2.1-6.7,5-10.5,8.5l-10,9.3-9.9-9.3c-3.8-3.5-7.4-6.5-10.5-8.5-8.7-5.7-19-9.2-19.1-9.2-10.7-3.5-23-7-36.1-10.6h-.2c-32.4-9-69.1-19.2-98.3-35.6-16.9-9.5-29.5-20-38.6-32.2-10.8-14.4-16.2-30.8-16.2-48.9V61.7l9.9-3.3c3.5-1.2,87.6-28.9,219-28.9s215.5,27.7,219,28.9l9.9,3.3v440.9h0Z" fill="#480024" stroke-width="0"/>
    <path d="M258.5,15c133.7,0,220,28.4,223.6,29.6l19.6,6.7v451.3c0,21.2-6.4,40.6-19.1,57.6-10.3,13.8-24.4,25.6-43.1,36.1-30.7,17.3-68.3,27.8-101.5,37l-.2.1c-12.8,3.5-24.9,6.9-35.3,10.3-.9.3-9.2,3.3-15.7,7.6-2.3,1.6-5.4,4.1-8.5,7l-19.9,18.7-19.9-18.7c-3.1-2.9-6.2-5.4-8.6-7-7-4.6-15.6-7.6-15.7-7.6-10.3-3.4-22.4-6.7-35.3-10.3l-.2-.1c-33.1-9.2-70.7-19.7-101.5-37-18.7-10.5-32.8-22.3-43.1-36.1-12.7-16.9-19.1-36.3-19.1-57.6V51.3l19.8-6.7c3.7-1.2,89.9-29.6,223.7-29.6M182.7,619.3h.2c13.1,3.6,25.4,7.1,36.1,10.6.1,0,10.4,3.5,19.1,9.2,3.1,2,6.7,5,10.5,8.5l9.9,9.3,10-9.3c3.8-3.5,7.4-6.4,10.5-8.5,8.6-5.6,18.9-9.2,19-9.2,10.7-3.6,23.1-7,36.1-10.6h.2c32.4-9,69.1-19.1,98.3-35.6,16.9-9.5,29.5-20.1,38.6-32.2,10.7-14.4,16.2-30.8,16.2-48.9V61.7l-9.9-3.3c-3.5-1.2-87.6-28.9-219-28.9S43,57.2,39.5,58.4l-9.9,3.3v440.9c0,18.1,5.4,34.5,16.2,48.9,9.1,12.2,21.7,22.7,38.6,32.2,29.2,16.4,65.9,26.6,98.3,35.6M258.5,0c-56.25,0-110.89,4.85-162.39,14.42-36.79,6.83-59.69,13.88-65.84,15.88l-.1.03-.09.03-.09.03-19.8,6.7-3.4,1.15C2.73,39.62,0,43.43,0,47.71v454.89C0,527.28,7.44,549.69,22.11,569.21c11.54,15.46,27.17,28.61,47.75,40.17,32.11,18.03,69.9,28.66,103.43,37.99l.19.1,1.39.39,4.37,1.22c11.04,3.07,21.46,5.97,30.26,8.88l.27.09c1.68.6,7.46,2.9,11.85,5.78,1.79,1.2,4.26,3.23,6.63,5.44l19.88,18.68,3.42,3.22c3.85,3.62,9.85,3.62,13.7,0l3.42-3.22,19.9-18.7c2.26-2.11,4.74-4.17,6.65-5.52,4.38-2.86,10.52-5.26,12.03-5.79,10.31-3.37,22.68-6.83,34.5-10.06l1.43-.39.22-.11c31.96-8.86,71.35-19.91,103.46-38,20.56-11.54,36.19-24.7,47.76-40.2,14.65-19.61,22.08-42.01,22.08-66.57V47.72c0-4.28-2.72-8.08-6.77-9.46l-3.38-1.16-19.6-6.7-.05-.02-.05-.02c-2.52-.84-25.76-8.42-65-15.76C370.06,4.91,315.1,0,258.5,0h0ZM44.6,72.51c4.97-1.65,86.65-28.01,213.9-28.01s208.93,26.36,213.9,28.01v430.09c0,14.67-4.45,28.11-13.22,39.92-7.93,10.53-19.03,19.73-33.93,28.1-27.05,15.28-62.01,25.07-92.99,33.68h-.19l-1.96.54-1.87.52c-12.57,3.48-24.44,6.76-35.01,10.32h0c-1.7.55-4.06,1.45-7.54,2.97-5.59,2.44-10.59,5.09-14.87,7.88l-.11.07-.11.08c-3.74,2.53-7.79,5.79-12.04,9.69-4.73-4.35-8.75-7.57-12.27-9.85-4.33-2.83-9.38-5.5-15-7.93-3.77-1.63-6.2-2.54-7.92-3.05-11.68-3.81-24.98-7.55-36.48-10.71l-1.95-.54h-.18c-31.07-8.63-65.94-18.48-93-33.68-15.03-8.45-26.12-17.64-33.92-28.09-8.91-11.87-13.22-24.93-13.22-39.93V72.51h0Z" fill="#fff" stroke-width="0"/>
  </g>
  <path d="M48.9,75.8v426.8c0,59.4,77,80.8,138.9,98l.3.1c13.2,3.7,25.7,7.2,36.9,10.8.1,0,12.6,4.2,23.6,11.5,3.5,2.3,7,5.1,9.8,7.6,3.4-3,6.7-5.5,9.8-7.6,10.6-6.9,22.3-11,23.6-11.4,11.2-3.7,23.7-7.2,36.9-10.8l.3-.1c61.9-17.2,138.9-38.6,138.9-98V75.8c-16.7-5-95.6-26.8-209.5-26.8-113.9-.1-192.7,21.7-209.5,26.8Z" fill="#94bee5" stroke-width="0"/>
  <path d="M258.5,657l-9.9-9.3c-3.8-3.5-7.4-6.5-10.5-8.5-8.7-5.7-19-9.2-19.1-9.2-10.7-3.5-23-7-36.1-10.6h-.2c-32.4-9-69.1-19.2-98.3-35.6-16.9-9.5-29.5-20-38.6-32.2-10.8-14.4-16.2-30.8-16.2-48.9V61.7l9.9-3.3c3.5-1.2,87.6-28.9,219-28.9s215.5,27.7,219,28.9l9.9,3.3v440.8c0,18.1-5.5,34.5-16.2,48.9-9.1,12.1-21.7,22.7-38.6,32.2-29.2,16.5-65.9,26.6-98.3,35.6h-.2c-13,3.6-25.4,7-36.1,10.6-.1,0-10.4,3.6-19,9.2-3.1,2.1-6.7,5-10.5,8.5l-10,9.5ZM39.2,68.7v433.9c0,15.9,4.8,30.4,14.3,43.1,8.3,11,19.9,20.7,35.6,29.5,28.2,15.9,64.3,25.9,96.1,34.7h.2c13.2,3.7,25.6,7.1,36.5,10.7.5.2,11.5,3.9,21.3,10.3,3.6,2.4,7.7,5.7,11.8,9.6h0l3.3,3.1,3.3-3.1c4.2-3.9,8.2-7.2,11.8-9.6,9.9-6.5,21.2-10.3,21.3-10.3,11-3.6,23.4-7.1,36.6-10.7h.2c31.9-8.8,67.9-18.9,96.1-34.7,15.7-8.8,27.3-18.5,35.6-29.5,9.5-12.7,14.3-27.2,14.3-43.1V68.7l-3.3-1.1c-3.5-1.2-86.1-28.3-215.9-28.3-129.7-.1-212.3,27.1-215.7,28.3l-3.4,1.1Z" fill="#f0f0f0" stroke-width="0"/>
  <path d="M258.5,643.7l-3.3-3.1c-2.9-2.7-7.3-6.6-11.8-9.6-9.9-6.5-21.2-10.3-21.3-10.3-10.9-3.6-23.3-7-36.4-10.7l-.3-.1c-31.8-8.8-67.9-18.9-96.1-34.7-33.6-18.9-49.9-42.7-49.9-72.6V68.7l3.3-1.1c.8-.3,86.1-28.3,215.9-28.3,67.8,0,122.8,7.7,157,14.1,37.2,7,58,13.9,58.9,14.2l3.3,1.1v433.9c0,30-16.3,53.7-49.9,72.6-28.2,15.9-64.3,25.9-96.1,34.7l-.3.1c-13.1,3.6-25.5,7.1-36.5,10.7-.4.1-11.6,4-21.3,10.3-3.6,2.3-7.6,5.7-11.8,9.6l-3.4,3.1ZM48.9,75.8v426.8c0,59.4,77,80.8,138.9,98l.3.1c13.2,3.7,25.7,7.2,36.9,10.8.1,0,12.6,4.2,23.6,11.5,3.5,2.3,7,5.1,9.8,7.6,3.4-3,6.7-5.5,9.8-7.6,10.6-6.9,22.3-11,23.6-11.4,11.2-3.7,23.7-7.2,36.9-10.8l.3-.1c61.9-17.2,138.9-38.6,138.9-98V75.8c-16.7-5-95.6-26.8-209.5-26.8-113.9-.1-192.7,21.7-209.5,26.8Z" fill="#480024" stroke-width="0"/>
  <polygon points="105.1 119.1 117.9 112.2 130.7 119.1 128.3 104.5 138.7 94.3 124.3 92.1 117.9 78.9 111.5 92.1 97.1 94.3 107.5 104.5 105.1 119.1" fill="#fff" stroke-width="0"/>
  <g>
    <path d="M187.7,226.7c5.8,0,9.4-3,12.5-7.2-1.1-.2-2.1-.3-3.1-.5-4.4,5.8-10.6,7.7-9.4,7.7Z" fill="#7ca3c9" stroke-width="0"/>
    <path d="M212,284.9c-19.2.8-42.6,9.3-52.2,18.8-8.3,8.3-2,18.6-10,26.5-1.3,2.6-1.2,6.2-1.2,8.6,3.9-1.4,5.6-4.7,5.6-4.7,0,0,.4,5.6,6,6.2,1.2,5,4.4,9.2,5.4,9.2.7,0-.7-6.8,1.4-11.1,1.4-1.4,2.3-2.8,3-4.4-.9-2.5-.7-4.9-.4-5.8.1-.2.3-.3.4-.1.3.3.8.6,1.4,1,.9-5.8.3-11.9,5.6-17.2,8-8,25.9-15.3,42.8-17.9-2.7-3.2-5.4-6.4-7.8-9.1Z" fill="#7ca3c9" stroke-width="0"/>
    <path d="M227.2,170.1c-2.6.8-12.8,8.5-16.7,12.4-1.5,1.5,1.3,5.5.7,6.1,0,0-.1.1-.3.1-1,0-1.9-.3-2.8-.8.9,4,4.9,8.3,8.1,10.9,4.2-3.4,8.4-5.9,11.8-8.6.9-.9,2-1.8,3.3-2.9,2.4-2.6,4-5.5,4-9.7.1-5.3-2.7-9.2-8.1-7.5Z" fill="#7ca3c9" stroke-width="0"/>
    <path d="M141.9,347.8c1,0-.2-5.2,2-8.5.5.1,1,.2,1.5.2.3,0,.7,0,1-.1-1.2-1.7-2.6-4.3-3.2-7.1-3.6-.4-5-2.8-5.6-4.5-.3,1.8,0,4.1.9,6.1-3,5.8,2,13.9,3.4,13.9Z" fill="#7ca3c9" stroke-width="0"/>
    <path d="M202.6,168.1c6.1-2.6,8.2-10.1,8.2-14.6,0-2.2-1.6-3.4-4.8-3.4-2.1,0-7.5.2-11.6,1.2-1.1,1.5-1.5,3.3-1.5,5.5,0,3.8,5.7,8.7,9.7,11.3Z" fill="#7ca3c9" stroke-width="0"/>
    <path d="M253.4,372c0-16.9,10.3-23.1,10.3-33.8,0-2.4-1.6-6.8-2.5-7.9h0c-.1,0,0,.1,0,.1,3.1,10.1-4.9,13.4-10.7,29.6-7.2,2-14.9,8.2-14.9,19.2,0,11.6,9,20,17.2,20,1.3,0,2.3-.4,2.9-.6h.2c-2-3.2-3.2-7-3.2-11.3,0-3,.6-5.7,1.6-8-.6-2.1-.9-4.5-.9-7.3Z" fill="#7ca3c9" stroke-width="0"/>
    <path d="M174.2,245c2.9,4.3,5.2,8.9,6.2,13.5,2.8-2.1,4.5-3.5,4.5-3.5-4.2-4.1-7.1-6.9-10.7-10Z" fill="#7ca3c9" stroke-width="0"/>
    <path d="M282.2,402.4c1.9,2.3,3.3,5,3.3,8.9,0,5.1-1.9,8-2.7,9-.1.2,0,.4.2.4,1.8.3,8.8.5,15.5-10.6,8.9,4.6,6.5,12.3,5.8,14.1-.1.2.1.4.3.4,11.6-.4,15.3-16.1,15.3-16.1.3,0,.7-.1,1-.1.1-.4.1-.9.1-1.3,0-4.3-8.1-7.8-18.3-6.7,0,0-3.7,15.7-15.3,16.1-.2,0-.3-.2-.3-.4.7-1.8,2.9-9.1-4.9-13.7Z" fill="#7ca3c9" stroke-width="0"/>
    <path d="M265.7,419.8c.1-.2,0-.4-.2-.4-8.6.1-12.2-4-12.9-6.5,8.9,3.6,14.2,1.9,17.2-.7-1.9.5-3.3.4-4,.3-.2,0-.3-.3-.2-.4.5-.7,1.6-2.3,2.3-5-4.5-.7-8.9-3.7-11.8-8.2v.1c-.9,2.5-5.4,12.2-20.8,5.9.7,2.5,4.3,6.6,12.9,6.5.2,0,.3.2.2.4-2.4,4.9-6.6,6-10,6-5.2,0-10.3-3-16-3-11.2,0-16.5,14-34.8,14,2.5-2.7,2.4-9.1-4.4-9.1-12.2,0-22.5,14.8-38.6,15.1h-.9c-.1.9-.1,1.9-.1,2.9,0,4.7,1.5,11,2.4,11s1.5-7.3,4.6-10.1c1.3,1.3,2.9,2.3,4.7,3.1,1.7.8,3.7,1.2,6,1.2h.4c16.2-.3,26.5-15.1,38.6-15.1,6.8,0,6.9,6.4,4.4,9.1,18.4,0,23.6-14,34.8-14,5.7,0,10.8,3,16,3,3.5-.1,7.8-1.2,10.2-6.1Z" fill="#7ca3c9" stroke-width="0"/>
    <path d="M393.9,386.7c-5,4-14.4,3.1-14.4,3.1,4.4-3.5,7.6-13.5,3.1-22.9-.1-.2-.4-.2-.5,0-3.9,9.2-11.3,12.9-18.6,13.7-.4.4-.8.8-1.2,1.1,0,0,9.3.9,14.4-3.1.2-.1.4,0,.4.2-.4,13.9-19.1,23.2-19.1,23.2,2.3,2.3,7.5,1.9,9.5.6.2-.1.4,0,.4.3-.4,2.8-3.7,5.3-6.5,8.1-23.1,23.1-17.9,37.9-30.1,37.9.1-.5,1.1-4.8-3.7-4.8-7.5,0-13.6,14.2-22.5,23.1-6.1,6.1-13.6,10-22.1,10-2.9,0-5.9-1.3-8.2-2.8-.4.3-.7.6-1.1.9,2.3,3.9,6.8,4.9,9.7,4.9-.4,3.7-.3,10,.6,10.9.7.7,3.6-5.3,8-8.5,2.3,1.4,5.2,2.8,8.2,2.8,8.4,0,16-4,22.1-10,8.9-8.9,15-23.1,22.5-23.1,4.7,0,3.8,4.3,3.7,4.8,12.1,0,7-14.8,30.1-37.9,2.8-2.8,6.1-5.3,6.5-8.1,0-.2-.2-.4-.4-.3-2,1.3-7.2,1.7-9.5-.6,0,0,18.7-9.3,19.2-23.2,0-.3-.3-.5-.5-.3Z" fill="#7ca3c9" stroke-width="0"/>
    <path d="M112.4,226.9h0c.7,3.3,3.4,9.6,9.3,9.6,2.7,0,4.6-.7,5.8-1.7.6.1,1.3.2,2.1.2,7.8,0,9.6-9.4,19.3-9.4h.1c-6-5-12.7-8.1-17.3-8.1-9.7,0-11.5,9.4-19.3,9.4Z" fill="#7ca3c9" stroke-width="0"/>
    <path d="M123.8,161.7c0,18.6,9.4,26.8,10.1,27.5.3.3.5.7.6,1.2,5.2.7,9.7,2,13.7,3.6-3-4-7.2-11.8-7.2-24.2,0-3.7-2.5-6.6-6.4-6.6h0c-1.2-2.6-4.4-7.9-11.1-7.9-1.4,0-2.5.1-3.4.4,2.2.9,3.7,3.2,3.7,6Z" fill="#7ca3c9" stroke-width="0"/>
    <path d="M438.4,193.9c-2.4,0-3.7.4-3.7.4,0,0,16.1-15.8,16.1-40.4,0-11.2-2.7-15.5-3.1-15.5-.8,0-.9,6.7-6,11.8-2.5,2.5-5.9,3.5-8.8,4.8-3.2,19.3-15.3,31.2-15.3,31.2,0,0,1.3-.4,3.7-.4,5.3,0,9.1,3.7,8.3,4.5-.7.7-7.9-.3-14.7,6.4,0,0-8.8,10.7-23.4,10.7s-27.4-7.1-27.4-7.1c-5.7,5.1-9.9,13-9.9,20.5s2.2,14.3,6.8,21.5c4.4,6.8,10.4,13.1,16.3,19.2,11.8,12.3,24.1,25.1,24.1,43.1,0,8.7-2.9,16.9-8.2,23-2.9,3.4-6.5,6.1-10.6,8-4.3,2-9.2,3-14.4,3-7.8,0-14.4-1.6-20.3-3.8,1.4.7,2.9,1.4,4.4,2.2,9,4.6,19.2,9.8,33.2,9.8,5.2,0,10-1,14.4-3,4.1-1.9,7.6-4.6,10.6-8,5.3-6.2,8.2-14.4,8.2-23,0-18-12.2-30.7-24.1-43.1-5.9-6.1-11.9-12.4-16.3-19.2-4.7-7.3-6.8-14.1-6.8-21.5s4.2-15.4,9.9-20.5c0,0,12.7,7.1,27.4,7.1s23.4-10.7,23.4-10.7c6.7-6.7,13.9-5.7,14.7-6.4.6-.8-3.3-4.6-8.5-4.6Z" fill="#7ca3c9" stroke-width="0"/>
    <path d="M295.2,83.5c.1-.1.1-.3-.1-.4-1.9-.7-6-2.3-15.4-2.3-2.4,0-4.7.3-6.9.9,9-1.5,16.3-.5,22.4,1.8Z" fill="#7ca3c9" stroke-width="0"/>
    <path d="M344.3,372.5c-2.9-3.7-4.7-8.5-4.7-13.8,0-10.8,3.5-15.6,4.9-25.2-3.4-1.4-6.5-3-9.5-4.5-2.7-1.4-5.2-2.7-7.7-3.7-1.4,9.7-4.9,14.5-4.9,25.4,0,12.7,9.8,21.9,21.3,21.9.2-.1.4-.1.6-.1Z" fill="#7ca3c9" stroke-width="0"/>
    <path d="M337.4,116.3c.2,0,.3.2.2.4-1.5,2.7-5.6,5.6-9,5.6-1.6,0-2.6-.2-2.6-.2,9.8,8.7,8.4,32.4,18.8,33.2.2,0,.3.3.2.5-1.5,1.3-3.9,2.3-8,2.3-3.7,0-6.8-1.9-6.8-1.9,0,0,2.2,3.4,2.2,8.1s-1.9,5.9-1.9,12.6c0,5.8,5.6,9.6,7,10.5.2.1.2.3,0,.4-.8.6-2.2,1-4.7,1-2.9,0-8.7-2-12-5.3.8.8,4.8,5.1,4.8,12.4s-2.7,12.9-2.7,20.2c0,6.4,4.3,9.9,5.4,10.7.1.1.1.3,0,.4-.6.5-1.8,1.2-3.8,1.2-2.2,0-8.9-1.4-12.8-5.2,2,8.5-3.4,15.2-3.4,27.3,0,22.2,17.1,36.5,19.5,60.3,4.6,1.8,8.9,4.1,13.2,6.3,1.3.7,2.6,1.3,3.9,1.9-2.7-23.3-19.4-38.5-19.4-60.4,0-12.1,5.4-18.8,3.4-27.3,3.9,3.9,10.6,5.2,12.8,5.2.6,0,1.1-.1,1.6-.2-.6-1.8-1.1-3.6-1.5-5.4-1-1.7-1.8-3.9-1.8-6.7,0-3.6.7-6.8,1.3-9.9.2-.9.4-1.9.6-2.8.5-2.4.8-4.8.8-7.5,0-7.3-4-11.6-4.8-12.4,3,3,8.2,4.9,11.2,5.2.9-1.1,1.9-2.2,2.9-3.3-2.1-1.8-4.5-4.8-4.5-8.6,0-6.7,1.9-7.9,1.9-12.6s-2.2-8.1-2.2-8.1c0,0,3.1,1.9,6.8,1.9,4.1,0,6.5-1,8-2.3.2-.2.1-.4-.2-.5-10.4-.8-9-24.5-18.8-33.2,0,0,1,.2,2.6.2,3.4,0,7.5-2.9,9-5.6.1-.2,0-.4-.2-.4-15.6-.8-22.4-29.5-48.3-34.6,13.2,10.4,19.8,26,31.3,26.6Z" fill="#7ca3c9" stroke-width="0"/>
  </g>
  <g>
    <path d="M105,547.3c-4.1-2.3-7.4-4.3-7.4-4.3,1,0,2.5-.1,3.5-1.7.8-1.4,1.4-4,2.2-7.1.2-.7.4-1.5.6-2.2-3.6-2.2-7.1-4.5-10.7-6.9-.6.5-1.2.9-1.8,1.4-2.5,2-4.7,3.6-5.6,4.9-1.1,1.6-.6,3-.1,3.9,0,0-2.4-1.8-6-4.3-3.7-2.6-5.8-4.1-5.8-4.1,3.1,0,5.9-1.9,12.2-6.3,6.2-4.4,12.3-9,18.3-13.6.5-.4,1-.8,1.4-1.4s.3-1,.3-1.1c4.7,3.2,9.4,6.2,14.2,9.1,0,0-.5.1-.9.8-.3.6-.6,1.2-.7,1.8-1.9,7.3-3.6,14.6-5.2,22-1.6,7.5-2.1,10.8-.9,13.5-.2-.1-3.2-1.8-7.6-4.4ZM109,514c.7-2.2,1.1-3.4,1.3-3.7-.2.2-.9,1-2.8,2.7-3.3,2.9-6.6,5.7-10,8.6,2.6,1.8,5.3,3.5,7.9,5.1,1-4.2,2.3-8.5,3.6-12.7Z" fill="#480024" stroke-width="0"/>
    <path d="M125.1,558.4c-7.4-3.6-10.2-7-10.2-6.9,0,0,.7-1,2-3.5,1.5-2.8,2.3-4.5,2.3-4.5.7,3.3,2.2,7,7.7,9.7,3.8,1.8,7.2,2.5,8.6-.5,1.1-2.4-.3-4-2.4-6.5-1.2-1.4-2.3-2.9-3.4-4.3-3.2-4.1-5.2-8.3-2.7-13,3.3-6.2,9.4-6.8,17.8-2.8,6,2.8,8.7,5.5,8.7,5.5,0,0-.6,1.1-1.7,3.8-1.2,2.8-1.7,4.4-1.7,4.4-1-3.7-2.8-6.7-6.8-8.6-3.4-1.6-5.9-1.8-7.1.6-1.1,2.2.3,3.8,2.6,6.6,1,1.2,2,2.4,3,3.6,3.7,4.3,5.8,8.1,3.7,13.4-3.7,7.9-11.6,7.2-20.4,3Z" fill="#480024" stroke-width="0"/>
    <path d="M185.1,549.5c0-.1-.2-.7-1.5-1.9-1.1-1.1-3-2.2-5.6-3-1-.3-1.9-.6-2.9-.9-1.4,4.3-2.8,8.6-4.1,13-4.6,14.4-4.4,14.7-3.8,17.1.1.3.2.7.3,1,0,0-2.1-.7-7.2-2.5-5.1-1.7-7.3-2.5-7.3-2.5.3-.2.6-.4.8-.6,1.9-1.4,2.3-1.7,7.5-16.3,1.5-4.1,2.9-8.2,4.4-12.3-1-.3-1.9-.7-2.9-1-2.5-.9-4.7-1.2-6.3-1-1.7.2-2.3.5-2.4.6,0,0,.7-1.4,1.7-3.9,1-2.4,1.3-3.4,1.3-3.4,9.8,4,19.8,7.3,29.9,10.1,0,0-.4,1.1-1,3.5-.6,2.6-.9,3.9-.9,4Z" fill="#480024" stroke-width="0"/>
    <path d="M199.4,583.5c-13.8-2.8-18.9-11.4-15.8-22.7,2.7-9.7,10-17.4,23-14.8,12,2.3,17.3,9.6,15.9,21.3-1.1,9.9-7.9,19-23.1,16.2ZM205.8,551.3c-5.5-1.1-9,2.4-11.1,11.8-2.1,9.3-.3,13.9,5.7,15.1,6.1,1.2,9.6-2.6,11.2-12,1.5-9.5-.4-13.8-5.8-14.9Z" fill="#480024" stroke-width="0"/>
    <path d="M265,552.3c-1,1.8-1.3,2.4-1.1,17.9.1,6.1.2,12.2.3,18.3,0,0-1.7-.1-5.6-.1h-7.4c-4.6-8.4-8.7-16.9-12.5-25.4-.8-1.9-1.3-3.9-1.3-4.1-.3,3.5-.5,7-.8,10.5-1.2,15.1-.9,15.3.2,17.5.2.3.3.6.5.9,0,0-1.9-.2-6-.6-4.4-.4-6.1-.5-6.1-.5.2-.3.4-.5.7-.8,1.3-1.7,1.8-2.2,3.4-17.7,1.5-15,1.3-15.3.4-17.4-.1-.3-.3-.6-.4-.9,0,0,2,.4,7,.8,4.2.3,6.3.3,6.3.3,3.7,8.5,7.8,16.9,12.2,25.2,1.1,2,1.5,3.7,1.6,4,0-3.5.1-7,.1-10.5.1-15.1-.1-15.3-1.2-17.4-.2-.3-.3-.6-.5-.9,0,0,1.6.1,5.3.1s5.4-.2,5.4-.2c-.1.4-.3.7-.5,1Z" fill="#480024" stroke-width="0"/>
    <path d="M314.9,558.2c-1,8.6-2.2,17.3-3.7,25.9,0,0-2.7.4-7.5,1.1-4.6.7-7.7,1.1-7.7,1.1-3.8-7.9-7.4-15.8-10.8-23.8-2.9-7-4.2-10.1-6.4-11.8,0,0,2,0,7.3-.5,5.5-.6,7.6-1,7.6-1-.6.6-1.6,1.6-1.3,3.5.2,1.8,1.5,4.7,3.1,8.3,2.5,5.6,5.1,11.3,7.7,16.9.6,1.3,1.1,2.8,1.2,3,0-.2.1-1.7.3-3.2.9-6.1,1.7-12.3,2.5-18.4.4-4,.8-7.1.4-8.9-.3-1.9-1.5-2.6-2.3-2.9,0,0,2.1-.2,6.6-1.1,4.2-.8,5.9-1.4,5.9-1.4-1.7,2.3-2.1,5.6-2.9,13.2Z" fill="#480024" stroke-width="0"/>
    <path d="M335,579c-5.2,1.3-7.4,1.9-7.4,1.9.1-.3.2-.7.4-1,.8-2.2,1-2.6-2.6-17.8-3.5-14.7-3.7-14.9-5.3-16.6l-.7-.7s1.9-.3,6.5-1.5c4.9-1.3,6.5-1.9,6.5-1.8-.1.3-.2.7-.2,1-.5,2.2-.7,2.6,3.4,17.6,4,14.6,4.3,14.7,6.1,16.4.3.2.5.5.8.7-.1-.1-2.3.4-7.5,1.8Z" fill="#480024" stroke-width="0"/>
    <path d="M373.7,564.2c.2.6.4,1.3.6,1.9-7.1,2.9-14.4,5.5-21.6,7.8-3.2,1-4.6,1.5-4.6,1.5.1-.3.2-.7.3-1,.6-2.2.8-2.7-3.8-17.6-4.5-14.4-4.8-14.6-6.5-16.2l-.7-.7s1.8-.4,6.7-2c4.8-1.6,6.3-2.3,6.3-2.3-.1.4-.1.7-.2,1.1-.5,2.3-.4,3.3,3.5,14.5,1.8,5,3.5,10.1,5.3,15.1,1.3-.5,2.6-.9,3.9-1.4,7.2-2.7,7.6-4.5,8.7-8-.1,0,.4,2.1,2.1,7.3Z" fill="#480024" stroke-width="0"/>
    <path d="M403.4,550.3c.3.6.5,1.2.8,1.8-6.9,3.7-13.8,7.1-20.9,10.2-3.1,1.4-4.5,2-4.5,2,.1-.3.1-.7.2-1,.4-2.3.5-2.8-5.6-17.1-6-13.9-6.3-14-8.2-15.4-.3-.2-.5-.4-.8-.6,0,0,1.8-.6,6.5-2.7,4.6-2.1,6.1-3,6.1-3,0,.4-.1.7-.1,1.1-.3,2.3-.1,3.4,5,14,2.3,4.8,4.6,9.7,6.9,14.5,1.3-.6,2.5-1.2,3.8-1.8,7-3.5,7.2-5.4,7.9-8.9,0-.1.7,1.9,2.9,6.9Z" fill="#480024" stroke-width="0"/>
    <path d="M436.8,531.9c-3.9,2.8-7.1,5-7.1,5,.4-.9,1-2.3-.1-3.9-.9-1.3-3-3-5.5-5-.6-.5-1.2-1-1.8-1.4-3.5,2.3-7.1,4.6-10.7,6.8.2.7.4,1.5.5,2.2.8,3.1,1.3,5.8,2.1,7.1,1,1.7,2.5,1.8,3.4,1.8,0,0-2.6,1.5-6.3,3.6-3.9,2.2-6,3.5-6,3.5,1.2-2.8.7-6.2-.7-13.7-1.4-7.5-3-14.9-4.8-22.3-.2-.6-.3-1.2-.7-1.8-.3-.6-.8-.7-.9-.7,4.8-2.9,9.5-5.9,14.2-9.1,0,0-.1.5.3,1.1s.8,1,1.3,1.4c5.8,4.8,11.8,9.4,17.8,13.9,6.1,4.5,8.9,6.4,12,6.4.1,0-2.7,2.1-7,5.1ZM408.2,514.4c-1.7-1.5-2.6-2.4-2.8-2.7.1.3.5,1.3,1.2,3.7,1.2,4.2,2.4,8.4,3.6,12.7,2.7-1.6,5.3-3.3,7.9-5-3.3-2.9-6.6-5.8-9.9-8.7Z" fill="#480024" stroke-width="0"/>
  </g>
  <g>
    <path d="M218,513.8v-3.9c3.8,0,5.7-1.4,5.8-4.2h4.1v23.5h-5v-16.4c-.9.7-2.5,1-4.9,1Z" fill="#fff" stroke-width="0"/>
    <path d="M240.2,528.9c-1.4-.5-2.6-1.4-3.4-2.4-.8-1.1-1.2-2.4-1.2-3.9,0-2.6,1.5-4.6,4.4-5.9v-.1c-2.2-1.2-3.3-2.8-3.3-5,0-1.3.4-2.4,1.1-3.4.7-1,1.7-1.7,3-2.2s2.7-.7,4.3-.7,3,.2,4.3.7,2.3,1.2,3,2.2,1.1,2.1,1.1,3.4c0,2.1-1.1,3.8-3.3,5v.1c2.9,1.3,4.4,3.3,4.4,5.9,0,1.5-.4,2.9-1.2,3.9-.8,1.1-2,1.9-3.4,2.4s-3,.8-4.8.8c-2,0-3.6-.3-5-.8ZM241.9,524.8c.8.7,1.8,1.1,3.2,1.1,1.3,0,2.4-.4,3.2-1.1s1.2-1.6,1.2-2.7-.4-2-1.2-2.7-1.8-1-3.2-1-2.4.3-3.2,1-1.2,1.6-1.2,2.7.4,2,1.2,2.7ZM242.3,514.2c.6.6,1.6.8,2.8.8s2.1-.3,2.8-.8c.6-.6,1-1.3,1-2.3s-.3-1.7-1-2.3c-.6-.6-1.6-.8-2.8-.8s-2.1.3-2.8.8c-.6.6-1,1.3-1,2.3s.3,1.8,1,2.3Z" fill="#fff" stroke-width="0"/>
    <path d="M264.8,521.7c.7-2.5,1.7-4.8,2.9-6.9s2.5-3.7,3.9-4.9v-.1h-11.6v-4.1h17v3.8c-2.6,2.1-4.5,4.9-5.9,8.5s-2.1,7.3-2.1,11.2h-5.3c0-2.5.4-4.9,1.1-7.5Z" fill="#fff" stroke-width="0"/>
    <path d="M291.4,524.1h-10.8v-4.8l10.8-13.5h5v14.2h3.4v4.1h-3.4v5.1h-5v-5.1ZM291.4,520v-8.6l-6.9,8.6h6.9Z" fill="#fff" stroke-width="0"/>
  </g>
  <path d="M212.7,122.3c-2.4,2.4-2.1,5.4-4.2,7.5-.9.9-2.1,1.5-3.7,1.5-3.1,0-5.2-2.6-5.2-5.2s3.1-5.1,11.5-5.1c1,0,2.2,0,3.3.1-.5.3-1.1.6-1.7,1.2" fill="#7496bd" stroke-width="0"/>
  <path d="M421.2,185.8c-2.4,0-3.7.4-3.7.4,0,0,16.1-15.8,16.1-40.4,0-11.2-2.7-15.5-3.1-15.5-.8,0-.9,6.7-6,11.8-3.7,3.7-9.6,4.1-12.9,7.4,3.2-6.8.9-15.9.4-15.9-.4,0-.2,4.8-6.3,10.9-3.9,3.9-12.8,6.7-20.2,14,3.1-7.2.4-14.7-.3-14.7s0,4.3-4.2,8.5c-3.9,3.9-11.4,5.8-17,11.5-7.8,7.8-6.4,19.6-6.4,23.9v1.2c-1.1.8-2.2,1.7-3.3,2.6-8.8,7.7-13.5,17.9-13.5,29.4,0,22,14.2,36.8,26.8,50,5.6,5.8,10.8,11.3,14.6,17,3.9,5.9,5.7,11.3,5.7,16.9s-1.8,10.7-5,14.4c-3.6,4.2-8.5,6.3-14.8,6.3-10.8,0-18.7-4-27.1-8.3-4.3-2.2-8.6-4.5-13.2-6.3-2.4-23.7-19.5-38.1-19.5-60.3,0-12.1,5.4-18.8,3.4-27.3,3.9,3.9,10.6,5.2,12.8,5.2,1.9,0,3.1-.7,3.8-1.2.1-.1.1-.3,0-.4-1.1-.8-5.4-4.3-5.4-10.7,0-7.3,2.7-12.9,2.7-20.2s-4-11.6-4.8-12.4c3.3,3.3,9.1,5.3,12,5.3,2.5,0,3.9-.4,4.7-1,.1-.1.1-.3,0-.4-1.4-.9-7-4.7-7-10.5,0-6.7,1.9-7.9,1.9-12.6s-2.2-8.1-2.2-8.1c0,0,3.1,1.9,6.8,1.9,4.1,0,6.5-1,8-2.3.2-.2.1-.4-.2-.5-10.4-.8-9-24.5-18.8-33.2,0,0,1,.2,2.6.2,3.4,0,7.5-2.9,9-5.6.1-.2,0-.4-.2-.4-18.8-1-24.8-42.6-67.2-34.2,2.2-3.1,6.3-5.7,7.7-6.6.2-.1.2-.4,0-.5-1.9-.7-6-2.3-15.4-2.3s-18.6,5.2-23.7,11.8c2.3-4.6-.5-10.4-3.1-13.3-.1-.2-.4-.1-.5.1-.3,1.2-1.3,3.7-2.9,5.3-7.6,7.6-21.3,12.5-21.3,28.4,0,0-4.5,2.9-10.5,7-6.1,4.1-9.3,10.6-9.3,12.7-2.3,1.2-11.9,8.3-19.6,16-.2.2-.2.5-.1.7.8,1.3,1.4,2.9,1.7,3.8.1.4.6.5.9.2,1-1,3.1-2.8,4.1-3.1-1.7,1.7-2.3,3.8-2.3,6.4,0,5.8,12.8,13.9,13.6,13.1.6-.6-1.5-6.5.4-8.4,2.9-2.9,13.1-3.2,16.2-3.2s4.8,1.2,4.8,3.4c0,5.4-3.1,15.5-12.9,15.5-4,0-6.5-3.8-7.2-3.2-.6.6-.1,6.3,1.2,8.2,0,0-1.1,1.3-1.1,4,0,7,11.6,16,12.8,14.8.8-.8-2.4-8.7-.4-8.7,1.1,0,4.2,4.5,7.8,4.5.2,0,.2-.1.3-.1.6-.6-2.3-4.6-.7-6.1,3.9-3.9,14.1-11.6,16.7-12.4,5.4-1.7,8.2,2.2,8.2,7.5,0,11.8-12.5,14.2-22.7,24.3-10.2,10.2-12.2,24.7-25,24.7-1.7,0,9.5-3.1,12.7-14.2-33.5.3-39.2-18.4-66-22-.1-.4-.3-.8-.6-1.2-.7-.7-10.1-9-10.1-27.5,0-3.7-2.5-6.6-6.4-6.6h0c-1.2-2.6-4.4-7.9-11.1-7.9s-8,3-7.6,3.3c.4.4,3.1-.6,6.4,2.7,1.9,1.9,2.7,4.1,3,5.6-.8,1-1.3,2.1-1.3,3.4,0,0-3.3-.6-6.5,2.4-1.4-.8-3.7-1.7-7.2-1.7-9.2,0-11.1,8.3-10.7,8.7s2-1.5,4.8-1.5c3.2,0,6.6,2.6,8.4,4.1-.2,2.1.2,4.1,1.6,5.5,0,0-4.4,1.3-5.2,7.5-.2,0-.4.1-.6.2-12.2,3.4-9.9,12.9-9.4,12.9s1.1-4.1,6.7-4.1c1.9,0,3.5.2,4.7.5,2.2,4.2,6.1,5.2,8.9,5.2,2.5,0,4.9-.6,7-.6,2.8,0,4.5,1.7,4.5,5.6,0,5.7-5.5,4-8,6.5-1.7,1.7-1.9,3.2-1.9,5.5v.3c-.8.2-1.6.4-2.4.4-3.8,0-6-3.4-6.5-2.9-.7.7,1.6,11.6,9.3,11.6,2.7,0,4.6-.7,5.8-1.7.6.1,1.3.2,2.1.2,7.8,0,9.6-9.4,19.3-9.4s28.3,13.4,31,30.1c0,.2.3.3.4.2,4.2-3.5,4-8.7,4-8.7,7.9,6.4,11.2,9.4,17.8,15.9,0,0-38.5,29.6-40.5,30.8-1.7,1-2.6,1.5-4.7,1.5-5.4,0-7.1-9.1-15.8-9.1-1.7,0-2.9.5-3.9,1.3-.9-.2-2-.3-3.4-.3-10.2,0-12,13.7-11.1,13.7,1,0,1.7-3.5,6.5-3.5.6,0,1.3.1,1.9.2,0,2.6,1,5.1,2.7,6.4,0,0-2.8,1-4.4,4.3-12.1.4-11.9,14.7-10.7,14.7.8,0,1.3-6,8.3-6,.5,0,1.2.2,1.8.5,1.2,5.3,4.9,8.2,9.2,8.2-1.1,2-.9,5.2.3,8-2.8,5.9,2.2,13.9,3.5,13.9,1,0-.2-5.2,2-8.5.5.1,1,.2,1.5.2,6.3,0,9-5.3,9-5.3,0,0,.4,5.6,6,6.2,1.2,5,4.4,9.2,5.4,9.2.7,0-.7-6.8,1.4-11.1,8-8,1.7-18.3,10-26.5,9.5-9.5,32.9-18,52.2-18.8,7,7.8,16.6,19.7,21,22.7,0,0-.2.2-.5.5-11.9,11.9-33.9,1.5-45.5,13.1-4.6,4.6-5.2,8.8-11.7,8.8-2.2,0-4.3-1.1-5.2-2-.1-.1-.4-.1-.4.1-.4,1.4-.7,6,2.8,9.5,4,4,9,3.3,10.3,2.6-3.2,4.3-10.2,4.1-14.3,1.7-.2-.1-.5.1-.4.3,3.2,12.4,16,10,16,10,2.7,13.3,15.8,18.8,15.8,27.7,0,2.5-1,5.3-3.1,7.4-5,5-16,8.3-28,8.3-19.3,0-19.6-13.7-30.1-13.7-1.4,0-2.7.2-4,.5-1.5-1.7-4.8-3.7-9-3.7-6.4,0-10.2,7.3-9.3,8.2.5.5,2.4-1.8,5.3-1.8,1.4,0,3.2,1.2,3.9,3.2-.5.6-1,1.3-1.4,2.1-1.1-.3-2.4-.5-4.1-.5-12.1,0-11.9,14-10.6,14,.7,0,2.3-5.2,8.2-4.5-1.2,2.2-1.8,4.6-1.8,7.3v1.2c-2.8,1.6-4.9,4.6-4.9,8.1,0,5.1,1,7.6,1.7,7.6.9,0,1.7-5.9,6.1-7.8,2,2.7,4.9,4.8,8.3,5.7-.4,1.7-.8,4.4-.8,8.2,0,4.7,1.5,11,2.4,11s1.5-7.3,4.6-10.1c1.3,1.3,2.9,2.3,4.7,3.1,1.7.8,3.7,1.2,6,1.2h.4c16.2-.3,26.5-15.1,38.6-15.1,6.8,0,6.9,6.4,4.4,9.1,18.4,0,23.6-14,34.8-14,5.7,0,10.8,3,16,3,3.4,0,7.6-1.1,10-6,.1-.2,0-.4-.2-.4-8.6.1-12.2-4-12.9-6.5,15.4,6.2,19.9-3.4,20.8-5.9.1-.2-.1-.4-.4-.3-.6.3-1.7.6-2.9.6-8.3,0-17.2-8.4-17.2-20,0-11,7.6-17.2,14.9-19.2,5.7-16.2,13.8-19.5,10.7-29.6v-.1h0c.9,1.1,2.5,5.5,2.5,7.9,0,10.7-10.3,16.8-10.3,33.8,0,19.1,14.9,18.4,14.9,31.2,0,5.1-1.9,8-2.7,9-.1.2,0,.4.2.4,1.8.3,8.8.5,15.5-10.6,8.9,4.6,6.5,12.3,5.8,14.1-.1.2.1.4.3.4,11.6-.4,15.3-16.1,15.3-16.1,10.2-1.1,18.3,2.4,18.3,6.7,0,11.1-20.7,31.8-35.8,31.8-5.6,0-7.6-5.9-12.5-5.9-3.6,0-5.3,1.7-6.4,3.9-2-.9-4-1.3-5.9-1.3-4.8,0-9,2.7-10.5,8.6-6.5,2.1-7.8,12.2-7.2,12.9.5.5,3.7-4.8,9-3.6.9,1.5,2,2.7,2.9,3.6-1.1.6-2.2,1.3-3.5,2.6-6.4,6.4-4.8,13.5-4.2,14.1.7.7,1.8-2.5,3.6-4.3,1.4-1.4,3.4-2.9,6.1-2.7,2.2,4.1,6.9,5.2,9.9,5.2-.4,3.7-.3,10,.6,10.9.7.7,3.6-5.3,8-8.5,2.3,1.4,5.2,2.8,8.2,2.8,8.4,0,16-4,22.1-10,8.9-8.9,15-23.1,22.5-23.1,4.7,0,3.8,4.3,3.7,4.8,12.1,0,7-14.8,30.1-37.9,2.8-2.8,6.1-5.3,6.5-8.1,0-.2-.2-.4-.4-.3-2,1.3-7.2,1.7-9.5-.6,0,0,18.7-9.3,19.2-23.2,0-.2-.3-.4-.4-.2-5,4-14.4,3.1-14.4,3.1,4.4-3.5,7.6-13.5,3.1-22.9-.1-.2-.4-.2-.5,0-4.3,10.3-13.2,13.8-21.2,13.8-11.5,0-21.3-9.3-21.3-21.9,0-10.8,3.5-15.7,4.9-25.4,2.5,1.1,5,2.3,7.7,3.7,9,4.6,19.2,9.8,33.2,9.8,5.2,0,10-1,14.4-3,4.1-1.9,7.6-4.6,10.6-8,5.3-6.2,8.2-14.4,8.2-23,0-18-12.2-30.7-24.1-43.1-5.9-6.1-11.9-12.4-16.3-19.2-4.7-7.3-6.8-14.1-6.8-21.5s4.2-15.4,9.9-20.5c0,0,12.7,7.1,27.4,7.1s23.4-10.7,23.4-10.7c6.7-6.7,13.9-5.7,14.7-6.4.5-1.2-3.3-5-8.6-5M212.7,122.3c-2.4,2.4-2.1,5.4-4.2,7.5-.9.9-2.1,1.5-3.7,1.5-3.1,0-5.2-2.6-5.2-5.2s3.1-5.1,11.5-5.1c1,0,2.2,0,3.3.1-.5.3-1.1.6-1.7,1.2" fill="#ffe505" stroke-width="0"/>
</svg>