<?xml version="1.0" encoding="utf-8"?>
<!-- Generator: Adobe Illustrator 27.5.0, SVG Export Plug-In . SVG Version: 6.00 Build 0)  -->
<svg version="1.1" id="Layer_1" xmlns="http://www.w3.org/2000/svg" xmlns:xlink="http://www.w3.org/1999/xlink" x="0px" y="0px"
	 viewBox="0 0 215 215" style="enable-background:new 0 0 215 215;" xml:space="preserve">
<style type="text/css">
	.st0{fill:#FFFFFF;}
	.st1{fill:#5F0041;}
</style>
<g>
	<path class="st0" d="M105.4,197.1c-20.4-3.8-39.5-14.3-53.8-29.4c-14.6-15.6-22.8-34.8-23-54l0-96.2h157.8v96.1
		c-0.2,19.3-8.4,38.5-23,54.1c-14.2,15.2-33.3,25.6-53.8,29.4l-2.1,0.4L105.4,197.1z"/>
	<path class="st1" d="M106.2,192.4c-19.4-3.6-37.6-13.6-51.2-28c-13.8-14.7-21.6-32.8-21.7-50.8l0-91.4h148.4l0,91.4
		c-0.2,18.1-7.9,36.1-21.7,50.8c-13.6,14.4-31.7,24.4-51.2,28l-1.3,0.2L106.2,192.4z"/>
	<g>
		<path class="st0" d="M108.1,71.8L108.1,71.8C108.2,71.8,108.1,71.8,108.1,71.8z"/>
		<path class="st0" d="M37.9,26.8l0,86.8c0.2,16.9,7.5,33.8,20.5,47.7c12.9,13.7,30.2,23.2,48.7,26.7l0.4,0.1l0.4-0.1
			c18.5-3.5,35.8-12.9,48.7-26.7c13-13.9,20.3-30.8,20.5-47.8V26.8H37.9z M172.5,113.5c-0.3,32.3-28.9,62.9-65,69.9
			c-36.2-6.9-64.7-37.6-65-69.8V31.4h130.1V113.5z"/>
		<path class="st0" d="M66.8,142.2c0.5-0.1,0.8-0.2,1-0.7c0.2-0.5,0.2-1.4-1.1-1.9l-2.8-1.1l-2,5.1l2.9,1.1c0.9,0.4,2,0.2,2.4-0.8
			C67.5,143,67.2,142.5,66.8,142.2z M65.7,143c-0.2,0.4-0.5,0.4-0.8,0.2l-0.9-0.4l0.4-0.9l1,0.4C65.7,142.5,65.8,142.7,65.7,143z
			 M66.2,141.1c-0.1,0.3-0.4,0.3-0.7,0.2l-0.8-0.3l0.3-0.8l0.8,0.3C66.2,140.7,66.3,140.9,66.2,141.1z"/>
		<path class="st0" d="M70.6,141.1l-1.5-0.7l-1.4,3c-0.6,1.4-0.2,2.4,1.3,3.1c1.5,0.7,2.6,0.4,3.2-1l1.4-3l-1.5-0.7l-1.3,2.7
			c-0.2,0.5-0.5,1.1-1.3,0.8c-0.7-0.3-0.4-1-0.2-1.5L70.6,141.1z"/>
		<path class="st0" d="M73,148.5l1-1.7l0.8,0.4c0.6,0.3,0.3,0.8,0.1,1.3c-0.1,0.3-0.2,0.5-0.3,0.8l1.5,0.8c0-0.3,0.3-0.9,0.4-1.1
			c0.3-0.6,0.3-1.2,0-1.6c0.6,0.1,1.1-0.3,1.4-0.8c0.5-0.9,0.1-1.8-0.8-2.2l-2.8-1.6l-2.7,4.7L73,148.5z M75.1,144.9l0.7,0.4
			c0.6,0.3,0.6,0.6,0.4,0.9c-0.2,0.4-0.6,0.3-0.9,0.1l-0.8-0.4L75.1,144.9z"/>
		<polygon class="st0" points="77.4,151.3 79.3,149 79.3,149 78.7,152.3 80,153.4 83.4,149.1 82.2,148.1 80.3,150.4 80.3,150.4 
			80.9,147.1 79.6,146 76.1,150.3 		"/>
		<polygon class="st0" points="83.7,156.3 84.6,155.2 82.7,153.8 85.2,150.5 83.8,149.5 80.5,153.8 		"/>
		<polygon class="st0" points="88,159.3 88.8,158.1 86.3,156.5 86.7,155.9 88.9,157.3 89.6,156.3 87.5,154.8 87.8,154.3 90.2,155.8 
			90.7,155.2 90.7,158.5 89.7,160.2 91.1,161.1 92.1,159.3 95.5,157.2 93.9,156.3 92.1,157.6 92.3,155.4 91,154.7 91,154.7 
			87.2,152.2 84.2,156.7 		"/>
		<polygon class="st0" points="96.8,163.6 97.5,161.6 99.6,162.3 100,161.1 97.9,160.4 98.2,159.7 100.6,160.6 101,159.3 
			97.1,157.9 95.2,163 		"/>
		<path class="st0" d="M100.3,161.9c-0.3,1.6,0.5,3,2.2,3.3c1.6,0.3,2.9-0.6,3.3-2.3c0.3-1.6-0.5-3-2.2-3.3
			C101.9,159.3,100.6,160.3,100.3,161.9z M101.9,162.3c0.2-1.2,0.9-1.3,1.4-1.3c0.4,0.1,1,0.5,0.8,1.7c-0.2,1.2-0.9,1.3-1.4,1.3
			C102.3,163.9,101.7,163.5,101.9,162.3z"/>
		<path class="st0" d="M108.7,166c1.7,0,2.8-1.1,2.8-2.8c0-1.7-1.1-2.9-2.7-2.9c-1.7,0-2.8,1.1-2.8,2.8
			C105.9,164.7,107,165.9,108.7,166z M108.8,161.6c0.4,0,1.1,0.3,1.1,1.5c0,1.2-0.7,1.5-1.1,1.5c-0.4,0-1.1-0.3-1.1-1.5
			C107.7,161.9,108.3,161.6,108.8,161.6z"/>
		<polygon class="st0" points="113,161.5 113.7,165.6 115.3,165.3 114.7,161.3 116.2,161 116,159.6 111.3,160.4 111.5,161.8 		"/>
		<path class="st0" d="M120.9,163.7c0.9-0.3,1.6-1.2,1.2-2.2c-0.3-0.8-0.8-1-1.4-1c0.3-0.3,0.5-0.7,0.3-1.2
			c-0.2-0.5-0.7-1.2-2.1-0.7l-2.8,1l1.8,5.1L120.9,163.7z M120.5,161.9c0.1,0.4-0.1,0.6-0.4,0.7l-0.9,0.3l-0.3-1l1-0.4
			C120.1,161.5,120.4,161.6,120.5,161.9z M119,159.9c0.3-0.1,0.6-0.1,0.7,0.2c0.1,0.3-0.1,0.5-0.4,0.6l-0.8,0.3l-0.3-0.8L119,159.9z
			"/>
		<path class="st0" d="M124.2,162.3l-0.1-0.8l1.5-0.8l0.6,0.6l1.5-0.8l-4.3-3.9l-1.5,0.8l0.8,5.8L124.2,162.3z M123.5,158.5l1.2,1.3
			l-0.9,0.5L123.5,158.5L123.5,158.5z"/>
		<polygon class="st0" points="131.3,157.9 130.6,156.8 128.5,158.1 126.3,154.7 124.9,155.6 127.9,160.2 		"/>
		<polygon class="st0" points="135,155.2 134.2,154 132.3,155.5 129.8,152.2 128.5,153.2 131.8,157.6 		"/>
		<path class="st0" d="M139.1,152.1c1.2-1,1.2-2.5,0.5-3.3l-1.3,1c0.2,0.5,0.3,0.9-0.1,1.3c-0.6,0.5-1.3,0-1.7-0.5
			c-0.5-0.6-0.7-1.3-0.1-1.8c0.5-0.4,1-0.1,1.2,0.1l1.3-1c-1-1-2.1-1.1-3.3-0.2c-1.3,1-1.5,2.6-0.4,4
			C136.2,152.8,137.8,153.2,139.1,152.1z"/>
		<polygon class="st0" points="144.5,147.7 143.6,146.6 141.7,148.1 139.3,144.8 137.9,145.8 141.2,150.2 		"/>
		<path class="st0" d="M146.8,146.4c1.4-0.9,1.8-1.9,1-3.2l-1.7-2.9l-1.4,0.9l1.5,2.6c0.3,0.5,0.6,1.1,0,1.5
			c-0.7,0.4-1.1-0.2-1.3-0.7l-1.5-2.6l-1.4,0.9l1.7,2.9C144.3,147,145.4,147.2,146.8,146.4z"/>
		<path class="st0" d="M152,143.9c0.9-0.3,1.6-1.2,1.2-2.2c-0.3-0.8-0.8-1-1.4-1c0.3-0.3,0.5-0.7,0.3-1.2c-0.2-0.5-0.8-1.2-2.1-0.7
			l-2.8,1l1.8,5.1L152,143.9z M151.6,142.1c0.1,0.4-0.1,0.6-0.4,0.7l-0.9,0.3l-0.3-1l1-0.4C151.3,141.7,151.5,141.8,151.6,142.1z
			 M150.1,140.1c0.3-0.1,0.6-0.1,0.7,0.2c0.1,0.3-0.1,0.5-0.4,0.6l-0.8,0.3l-0.3-0.8L150.1,140.1z"/>
		<path class="st0" d="M160.3,131.8c-0.1-0.1-0.2-0.2-0.3-0.3c0,0-0.1,0-0.1,0c3-5.2,2.1-10.1,2.1-10.4l0,0
			c-0.1-0.4-0.3-1.3-1.2-2.1c-1.1-1-2.9-1.4-5.3-1.1c-2.6,0.3-4.5,1.2-5.2,2.6c0,0,0,0,0,0c0,0-0.1,0.1-0.1,0.1
			c-0.2,0.4-0.5,1.2-0.4,2.3c0.1,0.8,0.4,1.8,0.6,2.6c-1.5,0.2-2.9,0.4-4.2,0.9c-1.3,0.5-2,1.1-2.2,1.9c-0.1,0.2-0.1,0.5,0,0.7l0,0
			c0,0-0.3,4.3,0.2,8.3c-6.3,2.8-9.9,6.2-9.9,6.2c-13.8,12.8-24.8,13.2-26.1,13.2c0,0,0,0,0,0l-0.1,0c-0.1,0-11.6,0.2-26.1-13.2
			c0,0-3.5-3-9.5-5.7c0.6-4.2,0.3-9.3,0.2-9.6c-0.2-0.8-0.9-1.5-2.2-1.9c-1.3-0.5-2.7-0.7-4.2-0.9c0.3-0.8,0.5-1.8,0.6-2.6
			c0.1-1.1-0.1-1.8-0.4-2.3c0-0.1-0.1-0.1-0.1-0.2c0,0,0,0,0,0c-0.8-1.4-2.6-2.4-5.2-2.6c-2.4-0.2-4.2,0.1-5.3,1.1
			c-0.9,0.8-1.1,1.7-1.2,2.1l0,0c0,0.2-0.9,4.8,2.5,10.1c0,0-0.1,0-0.2,0.1c0,0-0.1,0.1-0.2,0.1c-0.2,0.1-0.3,0.2-0.4,0.4
			c-0.3,0.3-0.7,0.9-1,1.6c-0.7,1.6-1.1,5,2,12.1l0.1,0.2l0.2,0.1c0.1,0,8.7,2.4,17.9,9.6c6.5,5.1,14.3,10.6,22.6,13l0.7,0.2
			c1.1,0.3,2.3,0.6,3.5,0.7l0.8,0.1l0,0c0.1,0,0.3,0,0.5,0.1c0.1,0,0.3,0,0.4,0c1.3,0.1,2.6,0.2,3.9,0.2c0.7,0,1.3,0,2-0.1
			c1.7-0.1,3.5-0.3,5.3-0.7c1.3-0.3,2.2-0.5,2.6-0.7c7.6-2.2,15.6-6.9,22.5-13c9.1-8.1,17.7-9.5,17.8-9.5l0.3,0l0.1-0.3
			c2.5-6.7,2.8-10.1,2.5-11.8C161.2,132.9,160.6,132.2,160.3,131.8z M151.2,120.8c0.7-1.1,2.2-1.8,4.4-2c0.4,0,0.8-0.1,1.2-0.1
			c1.5,0,2.6,0.3,3.3,1c0.7,0.6,0.8,1.3,0.9,1.5c0,0.1,0,0.3,0,0.4c0,0,0,0.1,0,0.1c-0.3,1.8-1.7,2.6-4.1,3l-0.7-3.2l-0.5,0.1
			c-3.6,1-4.4,0.4-4.6,0.2C150.8,121.5,151.2,120.8,151.2,120.8L151.2,120.8z M151.1,123c0.9,0.4,2.4,0.3,4.4-0.2l0.5,2.2
			c-0.8,0.1-1.7,0.2-2.7,0.3c0,0-0.1,0-0.1,0c-0.2,0-0.4,0-0.6,0.1c-0.2,0-0.5,0-0.7,0.1c-0.1,0-0.2,0-0.4,0c0-0.1-0.1-0.3-0.2-0.5
			c-0.1-0.3-0.2-0.7-0.3-1.1c-0.1-0.3-0.2-0.7-0.2-1C150.9,122.9,151,123,151.1,123z M145,128.6c0.1-0.5,0.7-0.9,1.6-1.3
			c1.3-0.5,2.7-0.7,4.2-0.9c0.2,0,0.3,0,0.5-0.1c0.6-0.1,1.1-0.1,1.7-0.2c0,0,0.1,0,0.1,0c0.1,0,0.1,0,0.2,0c0.1,0,0.3,0,0.4,0
			c0.2,0,0.4,0,0.6-0.1c1-0.1,2-0.2,2.9-0.4c0.8-0.1,1.5-0.3,2.2-0.6c0.5-0.2,0.9-0.4,1.3-0.7c0.2-0.2,0.5-0.4,0.7-0.6
			c0,0.2,0,0.4,0,0.6c-0.1,1.8-0.6,4.2-2,6.6c-0.3-0.2-0.7-0.3-1.2-0.4c-1.4-0.4-3.9-0.5-6.3-0.6c-1.7-0.1-3.5-0.1-4.8-0.3
			c-1.2-0.2-1.6-0.4-1.7-0.5C145,129,145,128.8,145,128.6z M144.9,130.3c0-0.1,0-0.1,0-0.2c0.7,0.3,1.9,0.5,3.4,0.6
			c0.7,0,1.4,0.1,2.2,0.1c0.3,0,0.7,0,1,0c2.3,0.1,4.7,0.2,6.1,0.5c0.4,0.1,0.7,0.2,1,0.3c0.2,0.1,0.3,0.1,0.4,0.2
			c0.5,0.3,0.5,0.5,0.5,0.5c0,0.2-0.2,0.5-0.8,0.8c-0.3,0.2-0.7,0.3-1.2,0.5c-0.8,0.3-1.9,0.5-3.4,0.7c-3.4,0.5-6.4,1.5-9,2.5
			C144.9,134.4,144.9,131.8,144.9,130.3z M66.1,122.8c0,0.3-0.1,0.6-0.2,1c-0.1,0.4-0.2,0.7-0.3,1.1c-0.1,0.2-0.1,0.3-0.2,0.5
			c-0.1,0-0.2,0-0.4,0c-0.2,0-0.5,0-0.7-0.1c-0.2,0-0.4,0-0.6-0.1c0,0-0.1,0-0.1,0c-1-0.1-1.9-0.2-2.7-0.3l0.5-2.2
			c2.1,0.5,3.5,0.6,4.4,0.2C66,122.9,66.1,122.9,66.1,122.8z M56.7,119.6c0.9-0.8,2.5-1.1,4.6-0.9c2.2,0.2,3.8,0.9,4.4,2l0,0
			c0.1,0.1,0.3,0.8,0.1,1.1c-0.2,0.2-1,0.8-4.6-0.2l-0.5-0.1l-0.7,3.2c-2.4-0.4-3.9-1.2-4.1-3c0,0,0-0.1,0-0.1c0-0.1,0-0.3,0-0.4
			C55.9,121,56,120.2,56.7,119.6z M55.9,124.4c0-0.2-0.1-0.4-0.1-0.6c0.2,0.2,0.4,0.4,0.6,0.5c0.4,0.3,0.8,0.5,1.3,0.7
			c0.6,0.3,1.4,0.5,2.1,0.6c0.9,0.2,1.9,0.3,2.9,0.4c0.2,0,0.4,0,0.6,0.1c0.1,0,0.3,0,0.4,0c0.1,0,0.1,0,0.2,0l0.1,0c0,0,0,0,0,0
			c0.6,0,1.1,0.1,1.7,0.2c0.2,0,0.3,0,0.5,0.1c1.5,0.2,2.9,0.4,4.2,0.9c0.9,0.4,1.5,0.8,1.6,1.3c0.1,0.2,0,0.4-0.1,0.6
			c-0.1,0.1-0.6,0.3-1.7,0.5c-1.3,0.2-3.1,0.2-4.8,0.3c-2.4,0.1-4.9,0.2-6.3,0.6c-0.3,0.1-0.5,0.2-0.8,0.3
			C56.8,128.4,56.1,126.1,55.9,124.4z M57.4,132.5l0-0.2c0.1-0.1,0.3-0.3,0.5-0.4c0.1-0.1,0.3-0.1,0.4-0.2c0.1-0.1,0.3-0.1,0.5-0.2
			c0.1,0,0.3-0.1,0.5-0.1c1.3-0.4,3.7-0.5,6.1-0.5c0.5,0,1,0,1.5-0.1c0.8,0,1.5-0.1,2.1-0.1c1.3-0.1,2.4-0.3,3-0.6
			c0,0.1,0,0.1,0,0.2c0,1.6,0.1,4.5-0.3,7.2c-2.7-1.2-5.8-2.3-9.4-3c-1-0.2-1.8-0.4-2.4-0.6c-0.2-0.1-0.4-0.1-0.6-0.2
			C57.4,133,57.4,132.6,57.4,132.5z M158,144.9c-1.6,0.3-9.5,2.2-18,9.7c-6.8,6-14.7,10.6-22.2,12.8c-0.4,0.1-1.3,0.4-2.5,0.6
			c-1.7,0.4-3.4,0.6-5.1,0.7c-1.9,0.1-3.9,0.1-5.8-0.2c-0.1,0-0.3,0-0.4,0c-0.1,0-0.3,0-0.4-0.1l0,0l-0.8-0.1
			c-0.9-0.1-1.8-0.3-2.7-0.6l0,0l-0.6-0.2c-8.4-2.3-16.3-7.9-22.9-13c-8.5-6.6-16.6-9.2-18-9.7c-3-7.2-2.4-10.2-1.8-11.3
			c0-0.1,0.1-0.1,0.1-0.2c0.2,0.2,0.4,0.4,0.8,0.6c0.2,0.1,0.5,0.3,0.8,0.4c0.8,0.3,2.1,0.7,3.8,1.1c2.2,0.5,4.2,1.1,6,1.7
			c0.7,0.3,1.4,0.5,2.1,0.8c0.6,0.2,1.2,0.5,1.8,0.8c6,2.7,9.4,5.6,9.4,5.6c14.7,13.6,26.2,13.5,26.7,13.5h0.1c0,0,0,0,0,0
			c1.3,0,12.6-0.4,26.7-13.4c0,0,3.4-3.3,9.4-6c0.1-0.1,0.3-0.1,0.5-0.2c0.5-0.2,1-0.4,1.6-0.6c2.3-0.9,4.9-1.6,7.9-2.1
			c2-0.3,3.4-0.7,4.3-1.1c0.3-0.1,0.6-0.3,0.8-0.4c0.4-0.2,0.6-0.4,0.8-0.6c0,0.1,0.1,0.2,0.1,0.3
			C160.6,134.9,160.5,138.1,158,144.9z"/>
		<path class="st0" d="M107.4,133.4c0.6-1.1-0.4-2.1-0.4-1.9c0.1,0.3-0.5,0.4-0.5,0.4c-0.6,0.1-1.9-0.3-1.9-0.3
			c-4.4-0.8-3,4.7-2.7,5.9c0.2,0.7-0.3,2.3-2.8,2.1c-1.9-0.2-2,0.8-2,0.8c0.9-0.7,1.5-0.2,1.5-0.2c-1,0.1-1.3,1.2-1.3,1.2
			c1-0.9,1.9-0.3,1.9-0.3c-0.8,0.2-0.8,1.3-0.8,1.3c0.6-0.8,1.2-0.4,1.2-0.4s1.2,0.5,1.5-0.8c0.1-0.4,0.8,0.2,0.8,0.2
			c-0.1-0.5,0.1-1,0.2-1.2c0.1-0.2,0.9,0.6,0.9,0.6c0.4-0.4,0.2-0.9,0.2-1c0-0.2-0.3-0.9-0.1-1.3c0.6-0.8,1.4,0.6,1.4,0.6
			c0.2-1.1-0.9-3.2-1-3.3c-0.5-0.6-0.7-2,1.5-0.3c0.8,0.7,1.8,0.3,1.8,0.3C106.5,134.7,107.4,133.4,107.4,133.4z"/>
		<path class="st0" d="M104.6,121.2c0,0,0.4,0.5,0,1.2c0,0,1.2,0.3,1.8-0.3c0,0-0.3,0.8,0.2,1.7c0,0,0.9-0.5,1.1-1.1
			c0,0,0.4,0.1,0.7,0.8c0.3,0.7,0.6,0.8,0.6,0.8s0-1,0.7-1.2c0,0,0.8,1,1.9,0.6c0,0-1.8-1,0-1.4c0,0-1.3-0.4-1.2-1
			c0,0-0.7,1.1-2.2,0.8c0,0,0.4-0.5,0.2-1.1c0,0-1.2,0.7-2.2,0.2c0,0,0-1.1,0.7-1.5c0,0-1.6-0.2-2.1,0.3c0,0-0.3-0.7,0.2-1.3
			c0,0-1.5,0.5-1.9,2.9C103,121.7,104.1,121.8,104.6,121.2z"/>
		<path class="st0" d="M94.7,127.2c0,0-1.4,1.1-0.3,2.3c0,0,0.1-1.5,1-1.1c0,0-1.5,1.1,0,2c0,0-0.1-1.5,1.1-1.2
			c0.7,0.2,1.2-0.7,1.2-0.7s0.8-0.5,1.3,0.2c0.5,0.8,1.2,0.9,1.3,1c0,0-0.5-0.7,0-1c0,0,0.8,0.8,1.4,0.8c0,0-0.7-0.8,0-0.9
			c0,0,0.4,0,0.5,0.4c0.1,0.5,1.3,0.7,1.4,0.7c0,0-0.7-0.6-0.3-1.2c0,0,0,0,0-0.1c0.4-0.6,0.8-0.4,0.8-0.4c1.5-0.4,1.4-2,1.4-2.4
			c0.1,0,0.2,0.1,0.2,0.2c0.2,0.5,0.3,1.7-1.4,2.7c0,0,0.1,1.4,2.4,2.4c0,0-0.3-1.8,1.1,0.8c0,0,0.5,1-0.1,2c-0.5,1-1.1,2.7,0.8,3.8
			c1.9,1.2,3.1,2.5,2.2,5.9c0,0-0.6,1.2-1.8,0.9s-1.7-0.8-2.7,0.5c0,0,1.2-0.6,1.9,0.2c0,0-1.4-0.4-1.9,1.4c0,0,1.4-0.8,2-0.2
			c0,0-0.8,0.2-0.8,1.2c0,0,0.8-0.6,1.4-0.3c1,0.4,1.2-0.2,1.5-0.7c0.3-0.5,1,0.2,2,0c0,0-1.4-1.1-0.6-1.6c0.5-0.3,1.4,0.3,1.8-0.2
			c0,0-1.8-0.7-0.9-1.9c0.4-0.5,1.1,0.1,1.5-0.2c0,0-1.2-0.4-1-1.5c0.1-0.7,0.4-0.6,0.6-0.5c0.2,0.1,0.7,0.2,1,0
			c0,0-0.5-0.1-0.6-0.7c-0.1-0.6,0-1.4-0.7-1.9c-0.4-0.3-0.7-0.3-0.7-1.3c0-1.2,0.5-1.3,0.8-1.4c0.3,0,1-0.1,1.4-0.4
			c0,0,2.6-1.6,1.2-4.9c-1.4-3.3-2.1-3.5-1.9-6.1c0.2-2.6,0.8-3.8,1.4-4.7c0.4-0.7,1.3-1.2,1.9-1.3c0,0,1.5-0.3,1.3,1.5
			c0,0,0,0.5-0.9,1.2c-0.9,0.8-1.2,1.6-1.2,1.6s1-0.7,1.2-0.5c0.2,0.2,0.1,0.5-0.3,1c-0.4,0.4-0.9,1.4-0.8,2.2c0,0,0.3-0.5,0.7-0.5
			c0,0-0.2,1.6,0.8,2.2c0,0-0.3-1.8,0.4-2.8c0.5-0.7,1.7-3,1-4.6c0,0,0-2.1-1.3-2.3c0,0,0.2,0.4,0.1,0.3c-0.1-0.1-4.1-0.4-4.9,5.9
			c0,0.3-0.2,1.2-0.2,1.2s-0.1,1.6-1.1,0.4c0,0-0.1,1.3,1.2,2.1c1.3,0.9-1.2,0.8-1.7-0.1c0,0,0,1,1.3,1.6c1.3,0.5,1.1,1.2-1,0.7
			c0,0,0.6,0.9,2.3,0.9c1.7,0,1.8,2.6,1.2,3.2c-0.9,0.8-1.4,0.7-1.8,0.6c-0.5-0.1-0.7,0-0.7,0s-1-1-1.2-1.9
			c-0.1-0.7-1.5-1.9-1.5-1.9s-0.8-1-0.5-3c0.3-2,0.4-2.6,0.3-2.9c0,0-0.5-0.1-0.7-0.4c0,0-0.3,0.8-0.3,1.3c0,0-1-0.2-1.4-1
			c-0.3-0.8-0.6-0.6-0.6-0.6s-0.6,0.8-1.3,1c0,0-0.3-0.1-0.3-0.9c0-0.2,0-0.4,0-0.5c0-0.1,0-0.2,0-0.3c0,0-1.1,0.3-1.8,0
			c0,0,0.2-0.5,0-0.8c0,0-0.5,0.3-1.5,0.1c0,0-0.2-0.9,0.7-2.3c0,0,0.1-0.4-0.4-1.3c-0.5-0.8-1.3-2.6-0.6-3.8
			c0.5-0.8,0.3-1.9-0.4-2.3c-0.6-0.4-1-0.4-1.9-0.1c0,0,1.2-0.1,1.2,0.9c0,0-1.3-1.3-2.4,0c0,0,1.5-0.2,1.2,1c0,0-1.1-1.5-2.2,0.3
			c0,0,1.5-0.2,1.5,1.1c-0.1,0.9,1.1,1.2,1.1,1.2s0.3,2.6-1.2,2.5c0,0,0.9,0.6,1.3,0.5c0,0,0.1,1-0.8,1.1c0,0,0.5,0.5,1.2,0.5
			c0,0,0.1,0.3-0.3,0.5c-0.5,0.3-0.5,1.1-0.5,1.2c0,0,0.5-0.4,1.3,0c0.8,0.4,1.8,0.1,2,0c0,0,0.2-0.1,0.4-0.1
			c-0.1,0.1-0.2,0.3-0.4,0.6c0,0,0,0,0,0c0,0,0,0,0,0c-0.3,0.4-0.7,0.9-1.1,1.4c-1.1,1.1-3,2.2-5.8,0.9c-0.7-0.3-1.9-0.4-2.4,0.1
			c-0.5,0.5-0.7,1.1-0.2,1.8C93.8,128.1,93.8,127,94.7,127.2z"/>
		<path class="st0" d="M107.8,119.5c-0.9,0.4-0.8,1.3-0.8,1.3c1.4-0.1,1.7-0.7,1.7-0.7c0.8,0.2,0.3,1.3,0.2,1.4c0,0,0,0,0,0s0,0,0,0
			c0,0,0,0,0,0c0.1,0,0.1,0,0.2,0c0.3,0,0.9-0.3,1.5-1.1c0,0,0,0,0,0c0,0.2,0.2,1.5,2.2,1.4c0,0-1.3-0.6-1-1.4c0,0,0-0.1,0-0.1
			c0.8,0.8,1.9-0.2,1.9-0.2c-1.1,0-1.2-0.6-1.2-0.9c1.3,0.8,2-0.5,1.8-0.7c0,0-2.3,0.9-0.4-3.2c0.2-0.5,0.9-1.3,0.2-2
			s-1-1.9-0.2-2.5c0,0-0.9-0.4-2.1,0.4c-0.6,0.4-1.1,0.2-1.1,0.2s-1-0.5-1.9-0.1c-0.7,0.3-0.9,0.7-1,0.9c-0.5-0.2-1.4,0.4-1.5,0.4
			c-0.1,0,0,0.4-0.1,0.6c-0.1,0.2-0.2,0.9,0.7,0.9c0.9-0.1,1.5-0.3,1.5-0.3s0.2,0.2,0.3,0.7c0.1,0.6,0.4,1.5-0.8,1.6
			c0,0,0,0,0.3,0.3c0.3,0.2,1.3,0.2,1.4-0.4c0.2-0.5,0.5-0.6,0.5-0.6s0.5,1.4-1.5,1.6s-3.2,0.9-3.6,2.4
			C107.4,118.8,107.8,119.5,107.8,119.5z M109.7,112.6c-0.4,0.3-0.8,0.2-1.3-0.3c0,0,0,0,0,0c0.5-0.6,1.2-0.8,2.2-0.1
			C110.6,112.2,110.1,112.3,109.7,112.6z"/>
		<polygon class="st0" points="88.3,98.9 85.1,93.5 81.8,99 85.1,105.2 		"/>
		<polygon class="st0" points="134.7,98.9 131.4,93.5 128.1,99 131.5,105.2 		"/>
		<path class="st0" d="M107.6,152.8l0.2,0l0.2,0c18.8-3.7,33.7-20.6,33.9-38.5V70h-15.9c1-0.4,1.8-1.4,1.8-2.6v0
			c0-1.5-1.2-2.8-2.8-2.8h-3.9c-1.6-0.2-1.9-1.8-1.9-1.8c-1.9,2-3.8-1.1-3.8-1.1l-3.3,1.1l-0.8-1.5c0.4-0.8,0.9-1.6,1.4-2
			c0.9-0.8,1.2-0.9,1.2-0.9c-0.4-0.9-0.6-1.7-0.6-2c0.1-0.1,0.8-0.4,1.5-0.7c0.3-0.1,0.6-0.2,0.9-0.3c0.1,0,0.3,0,0.4,0l0.1,0
			l-0.4-0.4c0.1,0,0.3,0.2,0.4,0.2c0.2,0.1,0.4,0.2,0.6,0.2c0.2,0,0.5,0,0.4-0.2c0.1,0,0.3,0.1,0.4,0.1c0.1,0,0.2,0,0.4,0
			c0.1-0.1,0.2-0.1,0.3-0.2c0.1-0.1,0.2-0.1,0.3-0.2c0-0.1,0.1-0.1,0.1-0.2c0-0.1,0-0.2-0.1-0.2c-0.2-0.2-0.4-0.2-0.6-0.3l-0.7-0.2
			c-0.2-0.1-0.3-0.1-0.5-0.2c-0.5-0.2,0,0,0.2,0c0.2,0,0.3,0,0.5,0c0.2,0,0.3-0.1,0.5-0.1l0.5-0.2c0,0-0.5,0.2-1.6-0.6
			c-0.4-0.3-0.6-0.7-0.9-1c-0.6-0.7-1.2-1.4-1.9-2c-0.7-0.6-1.4-1.2-2.2-1.6c-0.7-0.4-1.5-0.7-2.4-0.7c0,0-0.1,0-0.1,0
			c0-0.1-0.2-1.7,0.7-3.7c0.5-1.1,0.6-2.2,0.1-3.1c-0.4-0.7-1-1.1-1.7-1.3c-0.1,0-1.3-0.2-2.7,0.8c-0.4,0.2-0.8,0.4-1.2,0.6
			c1.2-1.4,3.8-2.8,4.3-2.9l0-0.1c-0.1,0-1.8,0.1-2.9,0.8c0.2-0.4,0.4-1.1,0.2-2.2l0-0.1l-0.1,0c0,0-2.6,0.6-2.6,4.2
			c0,0,0,0.5-0.2,1.1c-0.3,0.2-0.4,0.4-0.4,0.4c0.1-0.1,0.2-0.1,0.3-0.1c-0.1,0.2-0.2,0.5-0.4,0.7c-0.6,0.8-1.1,2.2-1.1,3.4l0,0.1
			l0.1-0.1c0,0,1-0.7,1.2-1.6c0.1-0.4,0.4-0.7,0.5-0.9c0.1,0.4,0.2,1.3,0.2,1.5c0,0.1,0,0.1,0,0.1c0.1,0,0.1,0,0.1,0
			c0.2-0.2,1-1.3,0.2-2.8c-0.1-0.2-0.1-0.5-0.1-0.8c1.3-0.3,2.2,0.2,2.6,0.4c0.2,0.2,0.4,0.4,0.5,0.7c0.2,0.6,0.1,1.3-0.3,2
			c-0.3,0.7-0.7,1.2-1,1.7c-0.8,1.3-1.4,2.2-1.2,4.2c0.3,2.3,1.8,3.4,2.7,3.8c0.5,0.5,0.8,1.3,1,1.7c0.3,0.6,0,0.5,0,0.5
			c-1.7,0.1-2.3-0.8-3.5-1.3c-0.3-0.1-0.6-0.2-0.9-0.2c-0.7-0.3-1.7-0.3-2.6,0c-1.7,0.5-2.8,1.9-2.4,3.1c0.1,0.4,0.4,0.8,0.9,1
			c0.4,0.2,0.9,0.3,1.5,0.3c0.4,0,0.9-0.1,1.4-0.2c1.4-0.5,2.4-1.5,2.5-2.5c0.6,0.2,2.3,1.5,3.6,2c1.4,0.6,1.9-1,1.9-1
			c0.4,0.7-0.6,3-1.2,4.3l-0.6,0.4l-0.3-1.5l-1.4,1.9c-0.5-0.2-2-2-2-2c-0.2,1.9-0.8,2.4-1,2.5l-3.3-2.2c0,1.5-1.5,2.4-2.3,2.4
			l-2.2-1.1c0.2,1.6-1.1,1.9-1.5,1.9H91c-1.5,0-2.8,1.2-2.8,2.8v0c0,1.2,0.7,2.2,1.8,2.6H73.7v44.3
			C73.9,132.2,88.8,149.1,107.6,152.8z M122.7,65.8c0,0,0.1,0,0.1,0c1.8-0.4,3,0.2,3,0.2c0.6,0.3,0.8,0.7,0.7,1.1
			c-0.1,0.8-1.2,1.7-1.3,1.2c-0.2-1.1-1.4-1.6-1.4-1.6S122.2,65.9,122.7,65.8z M125.4,77.6c0-0.1,0.1-0.3,0.1-0.4
			c-0.6-1.1-1.1-2-1.3-2.3c-0.1-0.1-0.1-0.1-0.2-0.2c-0.3-0.4-0.5-0.6-0.3-0.7c0.1-0.1,0.3,0,0.5,0c0,0,0.7,0.4,1.5,1.8
			c0.1,0.1,0.1,0.2,0.2,0.4c0.5-1.1,1.1-1.8,1.8-1.8c0.7,0,1.3,0.7,1.8,1.8c0.1-0.2,0.2-0.4,0.3-0.5c0.8-1.4,1.5-1.8,1.5-1.8
			c0.1-0.1,0.3-0.2,0.5,0c0.1,0.2,0,0.3-0.3,0.7c-0.1,0.1-0.1,0.1-0.2,0.2c-0.3,0.3-0.8,1.2-1.4,2.4c0.1,0.1,0.1,0.1,0.2,0.3
			c3.2-0.6,5.7-0.5,5.9,0.3c0.2,0.6-1.6,1.5-3.2,2.4c0,0,0,0,0,0c1.6,0.9,3.4,1.8,3.2,2.4c-0.3,0.9-2.6,1-5.8,0.4c0,0,0,0,0,0
			l-0.1,0.7c0,0,0,0.2,0,0.2s0.2,0.3,0.2,0.3c0,0,0.9,1.6,1.5,2.2c0.2,0.2,0.1,0.3,0.1,0.3c0,0.1-0.1,0.1-0.2,0.1
			c-0.1,0-0.3-0.1-0.6-0.2c-0.2-0.1-0.6-0.7-1.2-1.7c-0.1,0.2-0.1,0.5-0.2,0.7c-0.5,1.3-1.1,2-1.9,2c-0.8,0-1.6-1-2-2.6c0,0,0,0,0,0
			c-0.5,0.9-0.9,1.5-1.1,1.6c-0.3,0.2-0.5,0.2-0.6,0.2c-0.1,0-0.1,0-0.2-0.1c0,0-0.1-0.2,0.1-0.3c0.6-0.7,1.5-2.2,1.5-2.3
			c0,0,0.1-0.1,0.1-0.3c0,0-0.1-0.7-0.1-0.9c0,0,0,0,0,0c-3.1,0.6-5.5,0.5-5.7-0.4c-0.2-0.6,1.4-1.6,3.1-2.5c0,0,0,0,0,0
			c-0.5-0.2-0.9-0.5-1.3-0.7c-1.1-0.6-1.9-1.2-1.8-1.6C119.7,77.1,122.1,77,125.4,77.6z M107.1,40.5c0,0,0.4-0.6,1.5,0
			C108.6,40.5,108.2,41.3,107.1,40.5z M107.7,48.6L107.7,48.6c0,3.7,3.4,5,3.5,5.1c-0.1-0.1-0.2-0.3-0.2-0.4
			c0.4,0.2,0.8,0.4,1.2,0.5c0.2,0.1,0.4,0.1,0.6,0.2c0,0,0.1,0,0.1,0c-0.1-0.1-0.2-0.3-0.2-0.4c0.3,0.2,0.6,0.3,0.9,0.3
			c0.1,0,0.3,0,0.4-0.1l0.2-0.1c0.1,0,0.2-0.1,0.3-0.1c0,0.1-0.1,0.2-0.1,0.3c-0.1,0.1-0.1,0.1-0.2,0.2c-0.2,0.1-0.4,0.2-0.6,0.2
			c-0.1,0-0.2,0-0.3-0.1c-0.1,0.1-0.3,0.1-0.5,0.1c-0.2,0-0.5,0-0.7-0.1c-0.2-0.1-0.3-0.1-0.5-0.2C110.6,54.1,106.7,52.7,107.7,48.6
			z M109.3,64.7c3-1.1,6.7,0.5,6.7,0.5c1.2,0.5,1.9,1,2.5,1.5c0,0,0,0,0,0s0,0,0,0c0.2,0.2,0.3,0.3,0.4,0.4c0.4,0.4,1.1,1,1.7,1.1
			c0.5,0.1-0.4,1.1-1.8,0.4c0,0,0,0,0,0c-0.1-0.1-0.3-0.2-0.5-0.4c-1.4-1.1-2.6-1.1-2.6-1.1c-1.3-0.1-1,0.7-1,0.7c0.7,1.4-1.1,1-2,0
			c-1.4-1.5-2.7-2-3.5-2.4C108.3,65.1,108.9,64.8,109.3,64.7z M109.8,85.7c0.1,0.1,0.4,0.7-0.1,1.9c0,0,0,0,0,0c0,0-1.6,0.9-3.9,0.1
			c0,0,0,0,0,0c0-0.1,0-1.7-0.1-2c-0.1-0.3-1-0.9-1-0.9c0,0,0,0,0,0c0-0.1-0.9-5.6-0.2-7.8c0,0,0,0,0,0c0,0,0-1.8,0.6-2
			c0.4-0.1,0.3,1.9,0.3,1.9c0,0,0,0,0,0c0,0,0,2.2,0,2.3c0,0,0,0,0,0c-0.8,0.6-0.2,0.7-0.2,0.7c2.5-0.4,3.8-0.5,4.4-0.4
			c0.1,0,0.1,0,0.2,0c0.4,0.1,0.4,0.3,0.4,0.3s0.1,0.5-1.7,0.8c0,0-1,0.2-1.2,0.6c-0.2,0.4-0.3,1.7,0.2,2.5c0,0,0.3-0.1,0.2-0.5
			c-0.1-0.4,0-1.4,0.3-1.6c0.3-0.3,2.9-0.6,2.9-1.3c0,0,0,0,0,0c0,0-0.3-1.2,0.3-2.5c0.5-0.9,1.1,0.3,1,1.9c0,0-0.1,2.5-0.1,3
			c0,0.5-0.3,2.1-2,2.4c0,0-0.6,0.2-0.7,0.5C109.3,85.6,109.7,85.6,109.8,85.7z M107.1,77.9c0,0.5,0,0.8-0.1,1c0,0,0,0,0,0
			c-0.4,0-0.7,0.1-1,0.1c0,0,0,0,0,0c-0.2-0.9-0.2-2-0.2-2l0.1-1.9c0-0.1,0-1.2,0.6-1.2c0.5,0,0.5,1.3,0.5,1.3S107,76.6,107.1,77.9z
			 M109.4,76.2c0-0.9,0-2.1,0.6-2.1c0.4,0,0.4,0.8,0.4,1.3c0,0.6,0,2,0,2.1c0,0,0,0,0,0c-0.2,0.3-0.3,1.2-0.3,1.4c0,0,0,0,0,0
			c-0.2-0.1-0.4-0.1-0.7-0.1c0,0,0,0,0,0C109.3,78.6,109.4,77.1,109.4,76.2z M108.2,71.8L108.2,71.8
			C108.1,71.8,108.2,71.8,108.2,71.8z M108.1,73.2L108.1,73.2h0.1c0.8,0.2,0.7,4.9,0.5,5.5c0,0,0,0,0,0c-0.3,0-0.6,0-0.9,0.1
			c0,0,0,0,0,0c-0.1-0.2-0.1-0.4-0.1-0.7c0-0.5,0-3.6,0.1-4.3C107.7,73.3,108,73.2,108.1,73.2z M98.5,65.1c2.7-1,6,0.5,6,0.5
			c2.7,1.2,3.1,2.5,3.1,2.5s0.4,1.4-1.1,0.3c-1.2-0.9-2.1-0.7-2.1-0.7c-0.9,0-1.1,2.2-3,0.3c-1.3-1.3-2.5-1.8-3.2-2.2
			C97.5,65.4,98.1,65.3,98.5,65.1z M90.9,66c1.2-0.8,2.7-0.3,3.3,0.6c1.3,1.9,3,2.2,2.2,2.3c-0.5,0.1-2-0.4-2.7-1
			c-0.9-0.8-2.3-0.2-1.3,0.6c0.1,0.1-0.1,0.2-0.3,0.2C90.2,68.7,89.6,66.9,90.9,66z M80.6,78c0.3-0.9,2.7-1,6-0.3
			c0-0.1,0.1-0.3,0.1-0.4c-0.6-1.1-1.1-2-1.3-2.3c-0.1-0.1-0.1-0.1-0.2-0.2c-0.3-0.4-0.5-0.6-0.3-0.7c0.1-0.1,0.3,0,0.5,0
			c0,0,0.7,0.4,1.5,1.8c0.1,0.1,0.1,0.2,0.2,0.4c0.5-1.1,1.1-1.8,1.8-1.8c0.7,0,1.3,0.7,1.8,1.8c0.1-0.2,0.2-0.4,0.3-0.5
			c0.8-1.4,1.5-1.8,1.5-1.8c0.1-0.1,0.3-0.2,0.5,0c0.1,0.2,0,0.3-0.3,0.7c-0.1,0.1-0.1,0.1-0.2,0.2c-0.3,0.3-0.8,1.2-1.4,2.4
			c0.1,0.1,0.1,0.1,0.2,0.3c3.2-0.6,5.7-0.5,5.9,0.3c0.2,0.6-1.6,1.5-3.2,2.4c0,0,0,0,0,0c1.6,0.9,3.4,1.8,3.2,2.4
			c-0.3,0.9-2.6,1-5.8,0.4c0,0,0,0,0,0l-0.1,0.7c0,0,0,0.2,0,0.2s0.2,0.3,0.2,0.3c0,0,0.9,1.6,1.5,2.2c0.2,0.2,0.1,0.3,0.1,0.3
			c0,0.1-0.1,0.1-0.2,0.1c-0.1,0-0.3-0.1-0.6-0.2c-0.2-0.1-0.6-0.7-1.2-1.7c-0.1,0.2-0.1,0.5-0.2,0.7c-0.5,1.3-1.1,2-1.9,2
			c-0.8,0-1.6-1-2-2.6c0,0,0,0,0,0c-0.5,0.9-0.9,1.5-1.1,1.6c-0.3,0.2-0.5,0.2-0.6,0.2c-0.1,0-0.1,0-0.2-0.1c0,0-0.1-0.2,0.1-0.3
			c0.6-0.7,1.5-2.2,1.5-2.3c0,0,0.1-0.1,0.1-0.3c0,0-0.1-0.7-0.1-0.9c0,0,0,0,0,0c-3.1,0.6-5.5,0.5-5.7-0.4
			c-0.2-0.6,1.4-1.6,3.1-2.5c0,0,0,0,0,0c-0.5-0.2-0.9-0.5-1.3-0.7C81.3,79,80.4,78.4,80.6,78z M76.8,120.2c-0.1-0.3-0.1-0.7-0.2-1
			c0-0.2,0-0.3-0.1-0.5c-0.1-0.4-0.1-0.8-0.2-1.2c0-0.1,0-0.2,0-0.3c0-0.4-0.1-0.9-0.1-1.3c0,0,0-0.1,0-0.1c0-0.5,0-1-0.1-1.5V90.5
			h63.4v23.8c0,0.5,0,0.9,0,1.4c0,0.1,0,0.2,0,0.3c0,0.4-0.1,0.8-0.1,1.2c0,0.2,0,0.3-0.1,0.5c0,0.3-0.1,0.6-0.1,0.8
			c0,0.3-0.1,0.6-0.2,1c0,0.2-0.1,0.3-0.1,0.5c-0.1,0.5-0.2,1.1-0.4,1.6c0,0,0,0,0,0h-1.7v-4.9h-4.5v-4h-4.3V108h-3.9v-4.2h-4.2
			v-3.6h-4.4l-0.1-4.7H111l-2.7-3.6l-2.3,3.6h-4.9v4.4h-5.2v4.2h-4.5v4h-4.4v4.5h-4.5v3.9h-3.2v4.1h-2.2
			C76.9,120.5,76.9,120.4,76.8,120.2z M85.2,136.9c-0.1-0.1-0.2-0.2-0.2-0.3c-0.7-0.8-1.3-1.6-1.9-2.5c-0.1-0.1-0.1-0.2-0.2-0.3
			c-0.2-0.3-0.4-0.6-0.6-0.8c0,0,0-0.1-0.1-0.1c-0.6-0.9-1.2-1.9-1.7-2.8c0-0.1-0.1-0.1-0.1-0.2c-0.5-1-1-2-1.5-3.1c0,0,0,0,0,0H83
			v-4.4h4.2v-4.5H92v-4.5h4.4V109h4.7v-4.5h4.5v-4.2h3.9h1.1v4.4h4v4.4h4.3v4.4h4.4v4.3h4.3v4.6h5.5v5.1h3.5c0,0,0,0,0,0
			c-0.2,0.3-0.3,0.7-0.5,1c0,0,0,0,0,0.1c-0.5,1-1,2-1.6,2.9c0,0,0,0.1-0.1,0.1c-0.2,0.3-0.4,0.6-0.6,0.9c0,0,0,0,0,0
			c-0.6,0.9-1.3,1.9-1.9,2.7c-0.1,0.1-0.1,0.1-0.2,0.2l-2,2.4c-0.1,0.1-0.1,0.2-0.2,0.2c-0.2,0.2-0.4,0.5-0.6,0.7
			c-0.1,0.1-0.2,0.2-0.3,0.3c-0.7,0.7-1.4,1.3-2.1,2c-0.2,0.1-0.3,0.3-0.5,0.4c-0.2,0.2-0.4,0.3-0.6,0.5c-0.2,0.1-0.4,0.3-0.5,0.4
			c-0.3,0.2-0.5,0.4-0.8,0.6c-0.3,0.2-0.5,0.4-0.8,0.6c-0.2,0.1-0.4,0.3-0.5,0.4c-0.2,0.2-0.5,0.3-0.7,0.5c-0.2,0.1-0.4,0.2-0.5,0.3
			c-0.3,0.2-0.7,0.4-1,0.6c-0.2,0.1-0.3,0.2-0.5,0.3c-0.3,0.2-0.6,0.4-1,0.5c-0.2,0.1-0.3,0.2-0.5,0.3c-0.3,0.2-0.6,0.3-0.9,0.5
			c-0.1,0.1-0.3,0.1-0.4,0.2c-0.4,0.2-0.9,0.4-1.3,0.6c-0.1,0.1-0.2,0.1-0.3,0.1c-0.3,0.1-0.7,0.3-1,0.4c-0.1,0.1-0.3,0.1-0.4,0.2
			c-0.4,0.1-0.7,0.3-1.1,0.4c-0.1,0-0.2,0.1-0.3,0.1c-0.5,0.2-0.9,0.3-1.4,0.5c-0.1,0-0.3,0.1-0.4,0.1c-0.4,0.1-0.7,0.2-1.1,0.3
			c-0.1,0-0.3,0.1-0.4,0.1c-0.5,0.1-1,0.2-1.5,0.3c-0.5-0.1-1-0.2-1.5-0.3c-0.1,0-0.3-0.1-0.4-0.1c-0.4-0.1-0.7-0.2-1.1-0.3
			c-0.1,0-0.3-0.1-0.4-0.1c-0.5-0.1-0.9-0.3-1.4-0.5c-0.1,0-0.1,0-0.2-0.1c-0.4-0.1-0.8-0.3-1.2-0.5c-0.1-0.1-0.3-0.1-0.4-0.2
			c-0.3-0.1-0.7-0.3-1-0.4c-0.1-0.1-0.3-0.1-0.4-0.2c-0.4-0.2-0.9-0.4-1.3-0.6c-0.1-0.1-0.2-0.1-0.3-0.2c-0.3-0.2-0.7-0.3-1-0.5
			c-0.2-0.1-0.3-0.2-0.5-0.3c-0.3-0.2-0.6-0.3-0.8-0.5c-0.2-0.1-0.3-0.2-0.5-0.3c-0.4-0.2-0.8-0.5-1.2-0.7c-0.2-0.1-0.3-0.2-0.5-0.3
			c-0.2-0.2-0.5-0.3-0.7-0.5c-0.2-0.1-0.4-0.3-0.5-0.4c-0.2-0.2-0.4-0.3-0.7-0.5c-0.2-0.1-0.4-0.3-0.5-0.4c-0.3-0.3-0.7-0.5-1-0.8
			c-0.2-0.2-0.4-0.3-0.6-0.5c-0.2-0.1-0.3-0.3-0.5-0.4c-0.2-0.2-0.4-0.4-0.6-0.5c-0.1-0.1-0.3-0.3-0.4-0.4c-0.4-0.4-0.9-0.8-1.3-1.2
			c-0.1-0.1-0.1-0.1-0.2-0.2c-0.2-0.2-0.4-0.4-0.6-0.7c-0.1-0.1-0.2-0.2-0.3-0.3C85.6,137.4,85.4,137.2,85.2,136.9z"/>
		<path class="st0" d="M90.4,83.5c0-0.2,0.1-0.5,0.1-0.5c-0.6-0.1-1.1-0.3-1.7-0.4c-0.6,0.2-1.2,0.3-1.8,0.4c0,0,0,0.3,0.1,0.5
			C87.3,83.6,88.6,84,90.4,83.5z"/>
		<path class="st0" d="M90,77.1c0-0.1,0-0.2-0.1-0.2c-0.3-1-0.8-1.4-1.2-1.4c-0.4,0-0.9,0.4-1.2,1.4c0,0.1-0.1,0.2-0.1,0.3
			C88.5,76.7,89.4,76.9,90,77.1z"/>
		<path class="st0" d="M87.1,84c0.1,0.6,0.1,0.6,0.3,0.9c0.2,0.1,1.2,0.4,2.7,0c0.1-0.2,0.2-0.6,0.2-0.9c-0.6,0.2-1.2,0.2-1.7,0.2
			C87.9,84.2,87.4,84.1,87.1,84z"/>
		<path class="st0" d="M126.4,85.5c0.1,0.3,0.3,0.6,0.4,0.7c0.7,0.2,0.8,0.2,1.6,0c0.2-0.2,0.2-0.4,0.4-0.8
			c-0.5,0.1-0.8,0.1-1.2,0.1C127.1,85.6,126.6,85.6,126.4,85.5z"/>
		<path class="st0" d="M87.6,85.5c0.1,0.3,0.3,0.6,0.4,0.7c0.7,0.2,0.8,0.2,1.6,0c0.2-0.2,0.2-0.4,0.4-0.8c-0.5,0.1-0.8,0.1-1.2,0.1
			C88.3,85.6,87.8,85.6,87.6,85.5z"/>
		<path class="st0" d="M129.2,83.5c0-0.2,0.1-0.5,0.1-0.5c-0.6-0.1-1.1-0.3-1.7-0.4c-0.6,0.2-1.2,0.3-1.8,0.4c0,0,0,0.3,0.1,0.5
			C126.1,83.6,127.4,84,129.2,83.5z"/>
		<path class="st0" d="M125.9,84c0.1,0.6,0.1,0.6,0.3,0.9c0.2,0.1,1.2,0.4,2.7,0c0.1-0.2,0.2-0.6,0.2-0.9c-0.6,0.2-1.2,0.2-1.7,0.2
			C126.8,84.2,126.3,84.1,125.9,84z"/>
		<path class="st0" d="M128.8,77.1c0-0.1,0-0.2-0.1-0.2c-0.3-1-0.8-1.4-1.2-1.4c-0.4,0-0.9,0.4-1.2,1.4c0,0.1-0.1,0.2-0.1,0.3
			C127.3,76.7,128.3,76.9,128.8,77.1z"/>
	</g>
</g>
</svg>
