<svg width="495" height="600" viewBox="0 0 495 600" fill="none" xmlns="http://www.w3.org/2000/svg">
<path d="M247.499 572.255C2.18286 418.893 20.7179 176.079 39.2899 111.018C70.2559 72.2851 163.248 27.7441 247.499 27.7441C331.75 27.7441 424.751 72.2841 455.708 111.018C474.283 176.079 492.818 418.893 247.499 572.255Z" fill="#FFDF00" stroke="#0058A2" stroke-width="32.779"/>
<path d="M247.499 572.255C2.18286 418.893 20.7179 176.079 39.2899 111.018C70.2559 72.2851 163.248 27.7441 247.499 27.7441C331.75 27.7441 424.751 72.2841 455.708 111.018C474.283 176.079 492.818 418.893 247.499 572.255Z" fill="#FFDF00"/>
<path d="M39.29 111.018C70.256 72.2851 163.248 27.7441 247.499 27.7441C331.75 27.7441 424.751 72.2841 455.708 111.018C474.283 176.079 492.818 418.893 247.499 572.255" fill="#FFDF00"/>
<path d="M212.71 483.363L224.728 494.59C231.973 499.747 239.544 504.833 247.499 509.802C255.589 504.751 263.264 499.583 270.631 494.332L282.377 483.363V237.162H212.711L212.71 483.363Z" fill="white"/>
<path d="M247.546 213.88H80.5839C80.5839 213.88 80.3909 157.002 88.1309 145.388C110.574 115.175 180.795 84.291 247.546 84.291C314.297 84.291 384.506 115.174 406.97 145.388C414.687 157.002 414.499 213.88 414.499 213.88H247.546Z" fill="#0058A2"/>
<path d="M313.199 237.123L397.193 329.915C401.514 317.486 404.837 305.31 407.333 293.509L356.292 237.123H313.199Z" fill="#0058A2"/>
<path d="M388.954 237.123L412.209 262.815C413.182 253.87 413.689 245.282 413.844 237.123H388.954Z" fill="#0058A2"/>
<path d="M305.423 432.03V464.54C310.978 459.606 316.269 454.602 321.289 449.562L305.423 432.029V432.03Z" fill="#0058A2"/>
<path d="M305.423 348.332V395.934L337.84 431.737C345.129 423.299 351.783 414.779 357.836 406.223L305.423 348.332Z" fill="#0058A2"/>
<path d="M305.423 264.633V312.237L371.466 385.189C377.446 375.075 382.667 364.996 387.197 354.973L305.424 264.633H305.423Z" fill="#0058A2"/>
<path d="M181.896 237.123L97.902 329.915C93.58 317.486 90.257 305.31 87.752 293.509L138.797 237.123H181.896Z" fill="#0058A2"/>
<path d="M106.138 237.123L82.8659 262.815C81.9109 253.87 81.4069 245.282 81.2339 237.123H106.138Z" fill="#0058A2"/>
<path d="M189.658 432.03V464.54C184.109 459.606 178.809 454.602 173.792 449.562L189.658 432.029V432.03Z" fill="#0058A2"/>
<path d="M189.658 348.332V395.934L157.253 431.737C149.946 423.299 143.298 414.779 137.254 406.223L189.658 348.332Z" fill="#0058A2"/>
<path d="M189.658 264.633V312.237L123.633 385.189C117.639 375.075 112.409 364.996 107.894 354.973L189.658 264.633Z" fill="#0058A2"/>
<path d="M294.509 135.81C293.428 124.263 288.327 113.985 279.294 107.431C270.244 100.845 258.838 99.1742 247.493 101.765C236.178 99.2192 224.828 100.897 215.804 107.458C206.739 114.042 201.644 124.367 200.598 135.969C194.668 145.936 192.766 157.249 196.212 167.864C199.66 178.511 207.909 186.556 218.623 191.142C226.273 199.855 236.439 205.164 247.594 205.164C258.787 205.167 268.997 199.814 276.647 191.042C287.309 186.456 295.513 178.429 298.946 167.814C302.418 157.17 300.482 145.817 294.511 135.811L294.509 135.81ZM247.578 151.142V151.148H247.569V151.142L247.575 151.133L247.578 151.142Z" fill="white"/>
<path d="M247.563 111.833L252.328 101.657L247.563 87.5762L242.788 101.657L247.563 111.833Z" fill="white"/>
<path d="M210.184 139.009L201.984 131.33L186.71 131.354L199.033 140.404L210.184 139.009Z" fill="white"/>
<path d="M224.479 182.953L214.632 188.385L209.733 203.21L222.361 193.996L224.479 182.953Z" fill="white"/>
<path d="M270.68 182.941L272.799 193.978L285.312 203.058L280.528 188.367L270.68 182.941Z" fill="white"/>
<path d="M284.949 138.984L296.097 140.388L308.283 131.375L293.15 131.305L284.949 138.984Z" fill="white"/>
<path d="M247.563 111.788C247.563 111.788 249.667 111.117 249.667 107.232C249.667 103.347 247.563 93.6523 247.563 93.6523C247.563 93.6523 245.436 103.347 245.436 107.232C245.436 111.117 247.563 111.788 247.563 111.788Z" fill="#0058A2"/>
<path d="M270.592 182.563C270.592 182.563 269.28 184.348 271.547 187.491C273.841 190.635 281.268 197.233 281.268 197.233C281.268 197.233 277.272 188.145 275.001 184.998C272.707 181.854 270.591 182.563 270.591 182.563H270.592Z" fill="#0058A2"/>
<path d="M284.788 138.804C284.788 138.804 286.071 140.615 289.777 139.414C293.471 138.213 302.033 133.197 302.033 133.197C302.033 133.197 292.15 134.178 288.465 135.379C284.779 136.58 284.788 138.804 284.788 138.804Z" fill="#0058A2"/>
<path d="M214.907 151.251C214.907 133.209 229.53 118.586 247.563 118.586C265.596 118.586 280.217 133.209 280.217 151.251C280.217 169.293 265.594 183.905 247.563 183.905C229.532 183.905 214.907 169.291 214.907 151.251Z" fill="#0058A2"/>
<path d="M269.201 143.937C269.201 143.937 270.051 146.187 272.415 145.704C276.118 144.963 271.34 143.187 282.805 139.473C286.482 138.272 290.777 138.641 292.544 142.502C294.551 146.885 292.623 150.565 290.599 152.347C287.748 154.846 285.331 163.161 285.331 163.161V163.178C285.331 163.178 282.395 171.312 283.236 174.998C283.834 177.641 283.227 181.745 279.029 184.116C275.317 186.193 271.64 183.97 269.364 180.84C262.285 171.092 267.14 172.601 264.579 169.824C262.944 168.042 260.964 169.39 260.964 169.39C260.964 169.39 259.097 170.884 260.275 172.991C262.124 176.284 262.256 171.145 269.346 180.896C271.62 184.028 272.587 188.221 269.469 191.101C265.916 194.359 261.822 193.667 259.508 192.281C256.247 190.351 247.595 190.62 247.595 190.62H247.587C247.587 190.62 238.952 190.351 235.697 192.281C233.371 193.667 229.278 194.358 225.733 191.098C222.604 188.221 223.582 184.028 225.856 180.896C232.935 171.145 233.078 176.284 234.927 172.988C236.114 170.884 234.221 169.423 234.221 169.423C234.221 169.423 232.22 168.096 230.585 169.88C228.027 172.655 232.879 171.143 225.791 180.894C223.526 184.029 219.829 186.247 216.132 184.164C211.928 181.8 211.324 177.683 211.919 175.049C212.763 171.363 209.827 163.209 209.827 163.209L209.821 163.201C209.821 163.201 207.41 154.892 204.565 152.404C202.529 150.623 200.61 146.934 202.611 142.563C204.378 138.699 208.67 138.327 212.359 139.525C223.809 143.243 219.045 145.021 222.748 145.765C225.115 146.237 225.933 143.987 225.933 143.987C225.933 143.987 226.56 141.673 224.365 140.671C220.929 139.089 223.797 143.191 212.338 139.467C208.649 138.272 205.4 135.444 206.243 131.284C207.192 126.564 210.908 124.712 213.597 124.463C217.38 124.123 224.221 118.814 224.221 118.814L224.227 118.811C224.227 118.811 231.379 113.948 232.876 110.473C233.945 107.985 236.849 105.011 241.637 105.574C245.847 106.06 247.526 110.03 247.526 113.898C247.526 125.949 244.441 122.011 244.877 125.77C245.164 128.161 247.552 128.237 247.552 128.237C247.552 128.237 249.949 128.131 250.216 125.726C250.643 121.976 247.579 125.916 247.579 113.872C247.579 109.996 249.255 106.031 253.465 105.536C258.249 104.985 261.162 107.951 262.225 110.435C263.711 113.913 270.88 118.782 270.88 118.782L270.892 118.791C270.892 118.791 277.721 124.097 281.495 124.431C284.182 124.678 287.915 126.529 288.852 131.249C289.699 135.418 286.444 138.236 282.752 139.432C271.302 143.162 274.168 139.057 270.731 140.633C268.545 141.641 269.204 143.941 269.204 143.941L269.201 143.937Z" fill="white" stroke="#0058A2" stroke-width="1.781"/>
<path d="M247.578 143.895L254.229 148.459L251.686 157.144H242.773L240.652 148.459L247.578 143.895Z" fill="#FFDF00" stroke="#0058A2" stroke-width="0.784"/>
<path d="M234.037 145.518L240.652 148.459" stroke="#0058A2" stroke-width="0.784"/>
<path d="M247.578 136.166V143.895" stroke="#0058A2" stroke-width="0.784"/>
<path d="M261.112 147.029L254.103 149.016" stroke="#0058A2" stroke-width="0.784"/>
<path d="M242.662 157.064L238.671 162.64" stroke="#0058A2" stroke-width="0.784"/>
<path d="M251.132 157.145L255.855 162.641" stroke="#0058A2" stroke-width="0.784"/>
<path d="M241.897 134.679L247.578 136.238L253.47 134.603L253.631 132.455C253.631 132.455 249.547 131.096 247.399 131.16C245.961 131.192 241.786 132.112 241.786 132.112L241.897 134.679Z" fill="#FFDF00" stroke="#0058A2" stroke-width="0.784"/>
<path d="M261.398 141.109L261.228 147.145L264.486 152.331L267.049 151.71C267.049 151.71 267.189 147.004 266.627 145.677C266.064 144.35 263.993 140.178 263.993 140.178L261.397 141.11L261.398 141.109Z" fill="#FFDF00" stroke="#0058A2" stroke-width="0.784"/>
<path d="M261.656 160.56L256.065 162.857L252.596 167.542L253.935 169.669C253.935 169.669 258.593 167.814 259.575 166.768C260.63 165.637 263.638 162.584 263.638 162.584L261.655 160.559L261.656 160.56Z" fill="#FFDF00" stroke="#0058A2" stroke-width="0.784"/>
<path d="M242.316 167.419L238.434 162.877L233.245 160.311L231.323 162.4C231.323 162.4 234.552 166.378 235.826 167.044C237.109 167.709 241 169.514 241 169.514L242.316 167.419Z" fill="#FFDF00" stroke="#0058A2" stroke-width="0.784"/>
<path d="M230.225 150.194L234.037 145.518L234.62 139.421L232.663 138.504C232.663 138.504 229.798 142.269 229.353 143.637C228.814 145.319 227.888 149.388 227.888 149.388L230.225 150.194Z" fill="#FFDF00" stroke="#0058A2" stroke-width="0.784"/>
<path d="M227.974 150.935C227.974 140.103 236.752 131.334 247.578 131.334C258.404 131.334 267.173 140.103 267.173 150.935C267.173 161.767 258.401 170.533 247.578 170.533C236.755 170.533 227.974 161.758 227.974 150.935Z" stroke="#0058A2" stroke-width="1.477"/>
<path d="M219.313 111.736L229.512 106.668L221.684 114.982L211.353 119.881L219.313 111.736Z" fill="#0058A2"/>
<path d="M247.323 198.889L236.099 196.997L247.32 194.879L258.542 196.982L247.323 198.889Z" fill="#0058A2"/>
<path d="M293.202 165.787L287.926 175.877L289.376 164.548L294.855 154.521L293.202 165.787Z" fill="#0058A2"/>
<path d="M275.887 111.914L283.868 120.045L273.531 115.163L265.691 106.863L275.887 111.914Z" fill="#0058A2"/>
<path d="M201.661 165.492L199.983 154.229L205.482 164.244L206.944 175.577L201.661 165.492Z" fill="#0058A2"/>
<path d="M210.363 138.852C210.363 138.852 210.381 136.628 206.689 135.424C202.989 134.229 193.106 133.248 193.106 133.248C193.106 133.248 201.679 138.264 205.373 139.462C209.073 140.66 210.362 138.852 210.362 138.852H210.363Z" fill="#0058A2"/>
<path d="M224.608 182.593C224.608 182.593 222.495 181.89 220.219 185.03C217.928 188.171 213.94 197.265 213.94 197.265C213.94 197.265 221.361 190.667 223.644 187.526C225.933 184.379 224.608 182.592 224.608 182.592V182.593Z" fill="#0058A2"/>
<path d="M264.783 354.965C265.424 354.76 266.005 354.924 266.148 355.329C266.327 355.733 268.012 359.431 266.148 363.049C264.587 366.085 261.027 367.842 256.418 367.221C253.016 366.764 248.17 362.85 248.086 358.3C246.541 360.58 241.341 367.725 231.037 366.308C219.575 364.714 225.47 351.087 227.026 348.708C231.632 341.676 240.307 326.288 241.218 324.396C242.147 322.503 243.922 317.886 241.11 316.702C238.297 315.512 234.198 317.681 232.001 321.308C231.33 322.421 231.198 321.8 230.82 321.525C230.434 321.25 230.225 320.81 230.003 320.435C229.786 320.065 230.633 319.245 230.896 318.864C231.174 318.489 235.991 312.43 243.418 314.229C249.231 315.659 249.946 318.923 249.667 321.8C249.401 324.66 234.886 348.245 232.929 353.384C230.984 358.523 232.17 361.558 234.93 361.781C237.699 361.995 244.463 361.171 248.912 351.486C253.347 341.782 260.379 326.898 261.906 323.804C263.426 320.716 265.691 316.427 266.14 315.782C266.567 315.132 266.503 314.862 267.818 315.02C269.11 315.184 272.307 315.624 272.96 315.624C273.601 315.624 273.2 316.942 272.708 317.593C272.218 318.249 257.346 347.747 255.41 353.813C253.453 359.884 257.094 361.36 257.844 361.56C259.095 361.915 263.042 362.184 263.639 359.14C263.962 357.546 263.413 356.28 263.305 355.946C263.202 355.624 263.513 355.489 263.513 355.489C263.513 355.489 264.119 355.172 264.781 354.967L264.783 354.965Z" fill="#0058A2"/>
<path d="M276.385 377.243C276.136 376.751 275.5 376.716 275.09 377.419C274.689 378.122 273.601 379.857 271.442 380.279C264.836 381.603 259.664 380.959 252.295 380.514C244.927 380.08 235.287 380.69 232.53 384.182C229.761 387.674 230.912 390.159 231.466 391.167C232.281 392.632 233.986 393.933 236.344 394.566C238.706 395.234 240.49 394.66 241.305 394.085C242.108 393.534 240.734 392.866 240.241 392.549C239.761 392.233 236.605 391.494 236.52 390.029C236.491 389.373 236.845 387.509 238.8 386.618C240.751 385.716 245.366 385.224 249.265 385.716C249.095 389.537 246.825 399.616 245.125 403.261C242.596 403.261 234.574 403.706 232.764 408.465C231.868 410.832 232.597 412.86 233.414 413.516C234.232 414.16 234.803 414.09 234.803 413.281C234.803 412.461 234.885 410.843 235.696 409.941C236.505 409.039 239.678 407.667 243.985 408.464C242.596 413.351 238.453 425.633 234.067 427.894C229.681 430.168 226.886 428.468 226.52 427.965C225.709 426.875 225.468 425.867 225.468 425.293C225.468 424.719 223.915 422.937 223.42 425.457C222.936 427.977 225.281 431.774 229.011 432.711C235.623 434.364 239.438 430.496 240.651 429.523C241.882 428.55 248.357 422.034 251.776 409.26C254.542 409.588 258.514 409.506 260.059 408.862C263.674 407.315 264.987 404.971 265.227 403.506C265.476 402.041 265.359 400.845 265.022 400.107C264.7 399.368 263.575 398.314 263.399 399.216C263.247 400.107 263.399 401.654 261.852 402.791C261.398 403.131 259.025 404.982 253.168 404.01C254.302 400.436 257.059 386.126 257.059 386.126C260.159 386.372 266.967 385.891 269.004 385.317C271.04 384.743 274.706 383.09 275.918 380.688C276.806 378.894 276.636 377.746 276.384 377.242L276.385 377.243Z" fill="#0058A2"/>
<path d="M275.834 287.989C275.834 287.333 274.932 287.661 274.609 287.989C274.287 288.311 267.867 294.406 263.475 294.558C259.095 294.728 252.514 294.558 244.308 290.333C246.988 285.868 252.514 276.041 255.031 266.609C262.915 265.23 269.164 261.078 271.602 257.916C274.368 254.342 275.422 249.469 273.313 247.351C269.164 243.205 258.432 243.697 252.335 255.39C251.075 257.839 249.883 260.468 248.784 263.125C246.2 262.814 243.507 261.507 243.006 261.077C242.435 260.596 242.033 260.347 242.107 260.998C242.195 261.648 242.034 262.383 242.034 262.383C242.034 262.383 241.624 263.277 242.277 263.523C244.096 264.56 246.015 265.129 247.873 265.354C244.137 274.73 241.278 284.295 238.536 289.13C235.697 287.905 231.308 287.582 228.056 288.544C224.807 289.517 218.88 292.37 219.433 297.492C220.007 302.608 229.438 302.28 230.25 302.204C231.059 302.128 236.912 301.319 241.14 295.049C247.472 299.28 252.757 301.641 257.448 301.553C262.174 301.477 270.706 300.176 275.742 290.578C275.994 290.091 275.833 288.633 275.833 287.988L275.834 287.989Z" fill="#0058A2"/>
<path d="M235.246 291.969C231.833 289.52 226.793 289.197 224.191 292.86C221.586 296.516 225.653 297.571 226.547 297.571C227.441 297.571 231.502 298.386 235.246 291.969Z" fill="white"/>
<path d="M255.615 262.878C256.497 260.106 258.46 253.288 259.673 251.817C260.889 250.361 264.308 247.754 267.065 250.361C269.825 252.96 266.444 257.609 265.691 258.246C261.382 261.894 255.615 262.878 255.615 262.878Z" fill="white"/>
<path d="M267.856 446.187C270.789 441.511 267.718 435.639 264.85 434.596C263.737 434.198 257.001 432.018 247.848 437.854C238.903 443.526 229.003 453.031 226.844 467.973C224.682 482.927 235.063 488.236 236.226 488.565C237.389 488.905 247.407 492.76 254.312 484.006C258.384 478.861 258.384 477.455 258.721 476.623C259.04 475.791 257.552 474.783 256.899 475.791C256.222 476.775 252.414 482.424 249.589 483.924C246.764 485.424 240.872 486.163 238.385 482.588C235.71 478.744 235.223 473.212 236.563 467.727C237.884 462.243 242.118 449.456 250.078 442.659C258.05 435.85 263.034 436.26 264.692 437.42C266.354 438.58 267.315 442.706 266.005 445.191C265.504 446.14 267.139 447.347 267.857 446.187H267.856Z" fill="#0058A2"/>
</svg>
