<?xml version="1.0" encoding="UTF-8"?><svg id="a" xmlns="http://www.w3.org/2000/svg" width="97.79mm" height="97.47mm" xmlns:xlink="http://www.w3.org/1999/xlink" viewBox="0 0 277.2 276.29"><defs><clipPath id="b"><path d="m63.02,201.76c-3.53-1.41-6.87-3.88-9.08-7.08,1.54.46,3.54,0,4.61-1.2.94.32,1.01,1.54,1.54,2.33.41,1.8-2.4,1.13-1.54,2.6,1.06.34,1.66-.39,2.33-.93v-.27c1.68.33,2.88,2.14,4.61,1.94.27-.14.14-.46.14-.74-1.34-.73-2.81-1.59-3.74-3-.27-.53-.87-.94-.87-1.54,4.01,2.07,9.29,1.34,12.56,4.88.2.67.74,1.68.14,2.35-1.37,1.22-2.94,1.6-4.57,1.6-2.03,0-4.17-.6-6.14-.93" fill="none"/></clipPath></defs><polygon points="218.87 183.97 218.87 184.16 218.87 183.97 218.87 183.97" fill="#fff"/><polygon points="218.87 183.97 218.87 184.16 218.87 183.97 218.87 183.97" fill="none" stroke="#fff" stroke-miterlimit="3.86" stroke-width="4.5"/><path d="m218.87,184.17c0,.13,0,.22,0,0h0Z" fill="#fff"/><path d="m218.87,184.17c0,.13,0,.22,0,0h0Z" fill="none" stroke="#fff" stroke-miterlimit="3.86" stroke-width="4.5"/><polygon points="218.87 184.16 218.87 184.17 218.87 184.16 218.87 184.16" fill="none" stroke="#fff" stroke-miterlimit="3.86" stroke-width="4.5"/><path d="m85.67,271.34c-2.34-.37-5.06-1.03-7.41-1.55l-.07-.02-.08-.03.61-2.02v-.02h0c2.4.53,5.14,1.21,7.35,1.54,18.65,4.14,38.42,5.27,57.4,4.81,19.65-.14,38.56-2.33,56.74-6.61,7.09-2.54,14.63-3.88,21.71-6.43,1.4-.6,2.94-.99,4.34-1.66,7.01-2.4,13.9-5.55,20.11-9.63,3.34-2.93,1.94-7.74.74-11.22h0s0,0,0,0l.53-.6c2.47-.53,4.54-2.13,6.95-2.88l.62,2.04-.61-2.01-.02-.03h0c7.67-4.21,17.24-9.29,20.44-18.11.07-6.61-3.2-12.22-4.75-18.3-2.6-4.75-2.14-12.24-8.75-13.64-6.89-.2-14.29,2.47-20.45,6.21l-1.11-1.83c2.14-1.29,4.42-2.48,6.8-3.46l-2.3-1.14c-1.61-.8-2.04-2.39-2.18-3.27-.14-.93-.2-1.66-.27-1.79l-.11-.28v-.31s2.09-.14,2.09-.14h.02s0,0,0,0c.46,1.26.07,3.2,1.4,3.87,0-4.68,4.68-5.95,7.22-9.29l.67,1.01c1.59-2.4-.33-6.01,1.66-8.36.6-.41,1.2.4,1.8,0v-.74c-1.66-1.52-1.59-3.73-1.93-5.81.2-.99,1.39-.32,1.8-1.13l1.9.95-1.9-.95,1.19-1.78,1.56,1.05-.85,1.68c-.29.65-.91,1.14-1.4,1.36.21,1.55.43,2.56,1.08,3.07l.68.63v1.68h-2.13,2.13v1.15l-.95.63c-.54.39-1.26.52-1.75.48-.09.45-.12,1.05-.09,1.85,0,1.42.26,3.4-1.04,5.43l-.95-.63.95.63-1.77,2.67-.98-1.46c-1.04.91-2.05,1.63-2.84,2.34-1.34,1.23-1.9,2-1.94,3.55h-2.13,2.13v2.74c4.52-1.78,9.32-2.87,14.03-2.74l-.05,2.14.05-2.14h.2s.2.06.2.06c4.18.81,6.36,4,7.42,6.86,1.12,2.92,1.68,5.91,2.75,7.83l-1.86,1.03h0s1.86-1.03,1.86-1.03l.14.24.07.27c1.39,5.69,4.84,11.48,4.81,18.86l-2.13-.03,2.13.03v.36l-.13.34c-3.7,9.89-13.8,15.02-21.44,19.25l-.19.11-.21.06c-1.57.43-3.26,1.63-5.53,2.44.44,1.43.82,3.04.89,4.73.13,2.36-.52,5.13-2.79,7.1l-.11.1-.13.09c-6.39,4.18-13.41,7.39-20.55,9.85-1.58.73-3.08,1.11-4.24,1.62l-.06.03-.06.02c-7.32,2.61-14.88,3.95-21.73,6.41l-.11.04-.11.03c-18.33,4.32-37.39,6.54-57.18,6.68h0c-2.6.06-5.22.1-7.85.1-16.65,0-33.73-1.34-50.01-4.95m136.99-8.31l-.71-1.97-.02-.04.72,2.01m24.9-11.51l-1.16-1.76-.02-.02,1.17,1.78m14-66.54h0m-14.94-3.86h0m9.38-20h0m0,0h0s0,0,0,0m-213.39,97.22l-.04-.03h-.06s.98-1.85.98-1.85l-.98,1.84c-4.01-2.17-8.86-3.59-13.22-7.04l-.1-.07-.07-.07,1.47-1.49-1.47,1.49c-2.11-2.04-2.71-4.75-2.6-7.12.08-1.64.44-3.22.87-4.65-.7-.23-1.61-.58-2.6-1.31-1.58-.45-3.04-1.09-4.46-1.9h0c-7.39-3.87-16.53-9.03-20.11-18.19l-.1-.27-.04-.27,2.12-.24-1.98.77,1.99-.76c3.15,8.21,11.83,13.29,19.18,17.09,0,0,0,0,0,0h0s0,0,0,0c1.39.81,2.8,1.41,4.34,1.81h0s0,0,0,0c0,0,0,0,0,0,1.27,1.2,3,1.13,4.28,2.14-1.27,3.54-2.54,8.29.6,11.36,3.94,3.14,8.62,4.54,12.9,6.82,11.16,5.2,23.39,7.74,35.21,11.29l-.61,2.04c-11.7-3.52-24.03-6.05-35.51-11.4m98.54-21.92c.07-.32.41-.59.27-.99,5.74-7.15,13.9-12.63,21.85-16.57l1.01,1.88h-.03s-.03.03-.03.03c-6.85,3.39-13.82,7.95-19.12,13.65,6.8-.35,13.93-1.17,20.92-2.24,2.71-.41,5.43-.73,7.96-1.19h.04s.05-.01.05-.01c8.68-1.17,16.96-3.61,25.44-5.91-.19-.93-.55-2.06-.88-3.33-.53-1.93-.6-4.96,1.75-7.14l.03-.03.03-.03,1.44,1.58c-3.27,3.2.21,6.95-.12,10.55-9.02,2.4-17.91,5.16-27.4,6.41h0v-.02s-.38-2.08-.38-2.08l.38,2.1c-2.61.47-5.35.81-8.02,1.2-8.36,1.27-16.91,2.21-24.93,2.42h0l-.27-.28m-28.06-1.86v-.04s0,.04,0,.04c0,0,0,0,0,0-10.29-1.27-19.84-3.21-29.67-5.81-2.4-1.01-5.08-1.34-7.48-2.34h0s0,0,0,0c.41-3.61,2.95-8.41-.8-11.29-5.95-4.47-14.16-3.6-21.32-3.87v-.02s0,.02,0,.02c-3.6-2.54-8.14-4.41-12.62-3.21l-.13-.49.13.5c-1.06.27-1.66,1.73-3.06,1.27-1.87-.67-3.88-.86-5.55-1.94,1.33-4.61,2.74-9.29,4.74-13.62h0s.05.02.05.02l1.97.65-.04.11-.04.11c-1.68,3.62-2.94,7.57-4.12,11.58.94.31,2.11.56,3.43.99.3-.21.84-.86,2.08-1.23h0c5.19-1.37,10.07.62,13.87,3.16,6.8.24,15.17-.67,21.91,4.28l-1.29,1.7,1.29-1.7h.01c2.63,1.95,3.07,5.03,2.78,7.31-.19,1.56-.58,3.04-.86,4.28,1.7.51,3.67.9,5.71,1.71,9.72,2.57,19.13,4.48,29.29,5.73h0c7.07.75,13.9,2,20.57,2.01-6.13-6.48-13.69-11.01-21.51-14.89l-.07-.03-.06-.03,1.01-1.73.04-.08-1.05,1.8c-8.78-5.18-20.94-12.15-24.91-23.64-.22.49-.45.97-.7,1.45-1.43,2.72-3.73,5.33-7.35,6.53-7.83,3.52-17.96,3.11-24.7-3.15h-.02s-.01-.03-.01-.03l1.5-1.52c5.88,5.55,15.23,6.01,22.38,2.74,6.22-2,7.56-8.36,9.29-13.57.46.74.27,2.01.67,2.88,1.66,12.69,15.03,20.71,24.93,26.46,9.01,4.47,17.9,9.88,24.72,18.3v.46h0c-1.35.11-2.69.15-4.04.15-6.99,0-13.95-1.29-20.96-2.01m-37.96-19.45h0m-36.55-7.36h0m0,0h0m124.7,11.1c1.13-.6,2.21-1.53,3.47-1.94.99-1.34,2.52-1.2,3.6-2.47h.01s0,0,0,0c6.82-4.2,14.29-9.15,17.77-16.7,1.06-1.61,1.34-3.48,2.01-5.28h0s.1.04.1.04l.28.09s0,0,0,0l-.37-.13c.53-1.6.53-3,1.06-4.6,1.68,4.07,1.94,9.15,6.29,11.56,5.41,4.08,12.42,5.14,19.05,2.81,8.55-3.34,13.22-12.56,14.03-21.32.4-1.13,1.73-1.33,2.07-2.47-1.2-1.06-1.8-2.74-1.2-4.21.46-1.54,2.67-1.27,2.88-2.86-.4-.41-.94-.55-1.41-.88-1.59-1.13-2.47-2.94-2.07-4.87.14-1.54,2.14-2.14,2.4-3.61-1.2-.4-2.6-.6-3.34-1.67h0s0,0,0,0c0-.53.66-.79,1.07-.93v.04s0-.04,0-.04c0,0,0,0,0,0,4.07-.73,10.81-2.14,13.76,2.47l-1.8,1.15c-.98-1.51-2.52-2.11-4.77-2.25-.82-.05-1.68,0-2.55.08l-.27,1.54c-.36,1.68-1.41,2.43-1.88,2.95-.27.25-.43.43-.49.52l-.02.02v.05l-.03.13c-.2,1.03.17,1.93,1.21,2.71.02.08.7.21,1.68,1.09l-1.51,1.52h0s1.5-1.52,1.5-1.52l.74.74-.14,1.04c-.22,2.01-1.93,2.82-2.47,3.1-.25.12-.42.22-.52.28v.04c-.22.39-.05,1.2.63,1.8l1.01.89-.38,1.3c-.4,1.34-1.36,2-1.75,2.32-.14.1-.24.18-.3.24-.99,9.16-5.89,18.87-15.33,22.62h-.03s-.03.03-.03.03c-7.21,2.55-14.95,1.42-20.9-3.01-2.57-1.45-4-3.72-4.88-5.89-.31,1.05-.71,2.22-1.46,3.42-3.83,8.13-11.53,13.15-18.26,17.34-.85.88-1.8,1.26-2.35,1.51-.64.29-.8.41-.95.6l-.41.54-.66.21c-.71.18-1.7.99-3.12,1.79l-1-1.89m69.27-37.18h0m0,0h0m.82-6.65h0m-.36-.33l-1.55-.47,1.55.47m-.11-4.22l1.24-1.73-1.24,1.73m1.24-1.73h0m-1.47-2.99l-1.83-.16,1.83.16m.57-3.76l.29-.89-.29.89h0M4.9,198.33v-.06s.03-.06.03-.06c1.23-3.79,2.58-7.54,4.23-11.23l.04-.13.07-.11,1.81,1.09h.02s0,.01,0,.01c-1.59,3.61-2.93,7.28-4.14,11.02-1.61,6.08-5.48,11.62-4.75,18.3l-2.12.24c-.75-7.71,3.44-13.5,4.81-19.09m195.55,16.21c5.64-5.07,13.2-4.79,18.78-5.15,1.71-.49,3.02-.06,3.83-.03.45.06.7.01.73,0l.1.21-.1-.21.1.21-.1-.21.03.06-.03-.06.03.06-.03-.06h.01s.07-.11.07-.11l.31-.5.53-.28c3.23-1.58,7.82-4.26,13.02-1.97l.31.14.25.23c.71.64.96.64,1.19.56l.1-.03.1-.03c.86-.21,1.79-.58,2.8-.98-.54-2.39-1.74-4.85-2.44-7.92l-.04-.17v-.17l2.08-.11h.04s-2.12.11-2.12.11c.07-.2-.53-1.22-1.24-2.57-.33-.7-.68-1.59-.64-2.72.04-1.12.62-2.29,1.5-3.14l.18-.18.23-.14,1.1,1.83c-2.4,2.4.88,4.47,1.01,6.82.74,3.34,2.4,6.27,2.74,9.75-1.54.53-3.07,1.27-4.67,1.66h0s-.71-2.01-.71-2.01l.7,2.02c-1.34.47-2.46-.2-3.34-.99-3.94-1.8-7.88.26-11.15,1.93-1.41,2.28-4.08.33-6.09,1.15-5.74.33-12.88.2-17.7,4.61l-1.44-1.58m25.23-4.17h0s-1.81-1.12-1.81-1.12l1.81,1.12m11.17-1.95l1.44-1.56-1.44,1.56h0m-191-26.2c-.64-.5-1.66-1.37-1.92-3.25l-.06-.96.67-.69c.31-.29.56-.54.7-.73l.12-.18c.01-.37-.03-.54-.43-1.06h0c-.17-.07-.43-.16-.79-.33-.69-.22-2.03-1.44-2-2.89l-.08-1.38,1.23-.63.98,1.89-2.12.13,2.12-.12c.08,1.2,1.34,1.14,2.08,1.67.8.94,1.33,1.87,1.13,3.2-.2.74-.8,1.34-1.4,1.94.06,1.08,1.13,1.68,1.8,2.33h0s0,0,0,0c.87,6.75,3.15,12.96,8.22,17.98l-1.5,1.52c-5.3-5.22-7.76-11.7-8.74-18.45m-1.92-3.25l2.14-.13h0s-2.13.13-2.13.13m1.54-2.63h-.06s.06,0,.06,0m0,0h-.06s.06,0,.06,0m-8.16,17.39c.53-1.6-.67-2.87-1.67-3.8l1.46-1.57-1.47,1.56v-.98.98h-.6c-4.61-2.81-9.95-4.01-15.16-5.41-3.07-.54-6.88.2-8.76,3.33l-1.84-1.09c2.57-4.19,7.35-4.96,10.96-4.35l-.36,2.1h0s.36-2.1.36-2.1h.1s.1.04.1.04c4.96,1.35,10.32,2.53,15.2,5.34h0s0,0,0,0h.85l.62.57c.53.52,1.25,1.19,1.8,2.16.57.95.94,2.45.43,3.88l-2.03-.68m29.81-4.7v.07c-.23,0-6.57-.07-7.16-4.46-.31-2.33,4.64-8.44,5.9-9.51,1.25-1.04,4.55-4.27,4.66-4.38h0s0,0,0,0c.13.09,5.08,3.27,6.41,5.41h-.01s.02,0,.02,0c0,0,.48,2.66.38,3.91-.1,1.27-.2,7.96-10.19,9.03v-.07m-2.7-2.52c.66.22,1.37.34,1.89.41.26.03.47.04.63.04h.08c4.45-.53,6.18-2.09,7.12-3.47.94-1.44.99-2.89,1.05-3.58.03-.29-.04-1.24-.14-2-.05-.37-.11-.7-.15-.95-.54-.66-1.82-1.78-2.95-2.62-.42-.31-.83-.6-1.19-.86-1.11,1.07-2.67,2.55-3.52,3.28-.31.24-1.93,2.06-3.16,3.87-.64.91-1.21,1.86-1.58,2.61-.18.38-.31.71-.36.94l-.05.21c.15,1.03.92,1.64,2.34,2.12m-4.47-1.87l1.7-.22-1.7.22m141.66-5.53c.2-5.34,3.94-6.95,6.96-8.76,0,0,7.11,7.01,7.98,8.57l-1.86,1.05c-.07-.22-2.16-2.57-3.98-4.43-.92-.94-1.81-1.85-2.47-2.51-1.06.62-2.02,1.23-2.73,1.92-1,1.02-1.66,2.07-1.77,4.25-.07,1.97.81,3.86,2.33,5.25,1.52,1.4,3.64,2.25,5.91,2.14l.1,2.12c-.17,0-.35.01-.52.01-5.5,0-10.14-4.44-9.96-9.61m10.37,7.47c2.31-.14,3.34-.96,4.02-1.73.3-.37.52-.72.63-.99,0,0,0,0,0-.01-.11-.3-.31-.73-.53-1.17-.43-.92-.99-1.97-1.41-2.71l1.86-1.05c.88,1.55,2.3,4.3,2.32,5.06,0,0-1.06,4.46-6.78,4.74h0l-.1-2.12m-179.89-1.2c-.66-.39-1.08-1.15-1.17-1.63-.13-.5-.1-.82-.1-1.05v-.2c-.55-1.72-2.81-3.05-5.06-5.1-1.17.29-1.81-.27-2.14-.45l-.28-.21-.21-.28c-1.1-1.56-.96-3.2-.88-4.25.12-1.08.17-1.83.05-2.16-.14-.33-.22-.63-.29-.87-.37.01-.86-.06-1.44-.4-1.02-.71-1.13-1.66-1.17-2.21l-.04-.8.49-.63c.74-.96,1.14-2.12,1.38-3.57-.12-.05-.25-.11-.38-.19-.74-.39-1.24-1.47-1.24-2.15l-.08-1.24,1.06-.68,1.16,1.79-1.16-1.79c1.13-.71,1.72-1.99,2.6-3.8.54-1.13,1.35-2.58,2.73-3.66-.74-1.36-.98-2.46-1.57-2.91l-.5-.52-.08-.73,2.12-.22h0s0,0,0,0c1.48,1.54,1.54,3.6,3.21,5.14-4.48,1.27-3.74,6.15-7.35,8.48.07,1,1.33.26,1.8,1.08-.2,2.33-.6,4.47-2.01,6.27h0s0,0,0,0l-2.12.13,2.12-.12c.07,1.19,1.08.13,1.68.4.8.67.74,1.68,1.13,2.54.6,1.94-.66,4.14.53,5.81.74.53.4-.6.88-.87,2.07,2.6,5.81,4.14,7.08,7.4.33.55-.14,1.48.39,1.82.74-.47,1.01-1.27.88-1.94,2.14-5.42-3.41-10.68-1.68-16.44h0,0s0,0,0,0c.87-2.67,3.34-5.34,6.34-5.81,3.55-.19,6.96-.39,9.89,1.2-.53,1.27-1.94,1.68-3.2,1.82-.41.6.19,1.06.6,1.4,1.33.74,1.86,2.28,1.8,3.74h0s0,0,0,0h0c-.33,1.93-1.94,3.61-3.62,4.47l-.98-1.89c1.15-.57,2.26-1.82,2.46-2.79.01-.89-.34-1.5-.7-1.66l-.18-.1-.15-.14.97-1.16-.97,1.16c-.18-.15-.59-.43-1.03-1.09-.45-.52-.69-1.98-.13-2.91-1.39-.08-2.93-.02-4.6.09-1.88.33-3.86,2.37-4.46,4.3h0c-.64,2.01.03,4.29.96,7.04.84,2.58,1.95,5.65.83,9.07.02,1.3-.62,2.64-1.89,3.44l-1.14-1.79h0s1.14,1.79,1.14,1.79l-1.13.73-1.15-.71m-1.08-2.49l1.27-.79h0l-1.27.79m-7.39-5.94l.71-.98h0s-.71.98-.71.98m21.84-14.56l-.08-.74h0l.08.74h0m-22.96-.52l.06-.32-.06.32h0m0,0l.06-.32-.06.32h0m.14-4.29h0m167.92,19.9c-.39-1.42-.52-3.69,1.49-4.78l.13-.78s-1.94-.45-1.94-1.62,1.62-1.35,1.62-2.26-1.16-1.16-1.49-1.23c-.32-.06-2.07-.13-2.84-2.98-.78-2.84-3.17-11.77-3.17-11.77,0,0,1.16-.98,1.23-2.78h0s2.14.07,2.14.07c-.07,1.43-.55,2.49-1.02,3.21.03.12.07.25.1.38.24.88.56,2.08.91,3.38.7,2.58,1.5,5.53,1.87,6.94.31,1.05.62,1.23.71,1.31l.15.07.1.03s.07,0,.24.03c.25.06.81.16,1.49.54.63.31,1.67,1.25,1.72,2.66,1.82-2.67,3.72-4.72,4.95-5.95-2.58-3.87-6.36-8.75-7.26-10.03l1.73-1.23s0,0,0,0c.97,1.35,5.69,7.43,8.28,11.56h-.01s0,.01,0,.01c-.36.32-10.16,8.99-10.61,19.4,0,0-.12-2.78-.52-4.21m2.11-7.64h0m-104.8,10.95s-.88-6.25-6.12-13.33c-2.21-2.99-4.65-4.76-4.65-4.76,0,0,.14-.83,1.21-2.03,1.06-1.22,8.15-11.46,9.07-12.97.92-1.49,1.8-3.2,2.63-3.2v.74-.74c.57,0,2.51,1.22,3,1.94,0,0,.2,4.18,1.45,6.22,0,0-3.54,12.86-3.79,13.19-.24.33-3.1,1.61-3.3,1.75-.2.14-.59.43.15,1.35l-1.23.97,1.23-.97s0,0,0,0l-1.23.97,1.23-.97c.72.92,1.59,1.74,1.06,2.19l-.28-.35.28.35s0,0,0,0c-.47.38-.68.54-.72.57h0s0,0,0,0c0,0-1.36.1-1.02.78.33.67,1.06,1.74,1.45,2.18l-.03.03.03-.03s0,0,0,0c.39.43.43,1.12.29,1.65-.14.53-.39.83-.43,1.51-.06.67-.29,2.95-.29,2.95h0m-2.88-12.4c-.02-.22-.03-.45,0-.71.18-1.16,1.03-1.72,1.1-1.79.7-.45,1.15-.59,1.98-1.02.29-.14.59-.29.82-.41.11-.36.25-.84.42-1.42.36-1.23.82-2.87,1.28-4.5.46-1.62.91-3.24,1.25-4.44.13-.48.25-.89.34-1.23-.88-2-1.15-4.28-1.25-5.48-.16-.12-.35-.26-.54-.39-.02-.01-.04-.03-.06-.04-.32.47-.71,1.16-1.14,1.86-1.05,1.7-7.96,11.71-9.28,13.24-.04.04-.07.08-.1.12.99.89,2.35,2.25,3.65,4.01.55.74,1.06,1.48,1.52,2.2m-3.24-.93l1.72-1.27-1.72,1.27m8.06-2.51h0m0,0h0m153.98,4.76c.7-2.78.79-4.56-.74-6.51l-.07-.1-.07-.11,1.8-1.14-1.66,1.36,1.66-1.36c4.34,5.35-1.07,11.35-.67,17.11l-2.12.15c-.21-3.61,1.2-6.69,1.87-9.39m10.14-14.67c-.4-2.47-2.81-4.01-4.61-5.28l1.27-1.54c.46-1.34,1.4-2.54,1.93-3.88-1.46-.39-3.27-.79-4.6-1.8h0c2.35-3.61,2.07-8.55,2.21-12.23l-.67.4c-.34-2.47-.39-5.21-1.54-7.22-.53.14-.12,1.01-.8.81-1.27-2.68-2.28-5.62-4.61-7.75-1.13-.27-.14,1.01-.8,1.2-2.08-1.46-3.07-3.6-3.35-5.94l2.12-.25-2.12.24v-2.12h1.92l.21,1.89c.14,1.13.45,2.1.99,2.93.64-.21,1.21-.08,1.53-.02l-.31,1.34.31-1.34.54.13.41.38c2.08,1.93,3.2,4.22,4.13,6.29l.9-.22.8,1.41c.85,1.56,1.21,3.19,1.42,4.74l1.21-.73-.14,3.94c-.15,2.99.14,7.26-1.48,11.22.7.25,1.51.46,2.32.68l2.3.63-.89,2.22c-.71,1.7-1.62,2.89-1.9,3.79l-1.54-.54s0,0,0,0l1.54.53-.12.36-.06.07c1.44,1.1,2.98,2.61,3.56,5.01.48,1,1.21,1.93,1.89,2.36l-1.19,1.78c-1.2-.8-2.14-2.14-2.74-3.47m.57-9.91l-1.98-.79h0s1.98.79,1.98.79m-5.66-22.17l.92-.52-.93.52s0,0,0,0m-7.24-5.54h0m0,0h0m-53.23,29.26c-.14.09-.23.2-.38.6-.17.46-.27,1.24-.28,2.07l-2.14-.08c.06-1.82.32-3.81,2-4.59,1.69-.78,1.75-.59,1.75-.59,0,0,3.11,5.23,4.08,6.6l-1.73,1.23c-.73-1.02-2.29-3.6-3.29-5.26m1.17-.49h0m-147.25-7.27s0,0,0,0h.03s1.85-.98,1.85-.98l.04.07.03.07c1,2.42,2.96,4.86,5.25,6.78-.04-.35-.04-.74.04-1.21.17-.83.78-1.55,1.4-1.91.52-.34,1.06-.53,1.67-.69h.01s.29-.3.29-.3c.12-.13.25-.3.38-.49-.13-.9-.72-1.85-1.62-2.85l-1.35-1.51,1.42-1.42,1.51,1.51-1.51-1.51c.74-.74,1.55-.96,2.01-1.1.21-.05.36-.09.48-.12,1.04-1.09,1.45-2.49,1.2-3.97h0s0,0,0,0h0s0,0,0,0h0s-.04-.08-.04-.08c-.06-.08-.17-.25-.34-.46-.31-.42-.91-1.08-1.24-2.18l-.64-2.16,2.21-.52c.62-.14,1.13-.35,1.59-.68h0c.63-.5.87-.98,1.08-1.93.19-.87.22-2.04.4-3.37-.49-3.99-4.18-8.03-8.16-9.85l-.17-.07-.15-.11,1.21-1.73v-.02s0,0,0,0c4.61,2.14,8.89,6.68,9.42,11.82-.41,2.47-.07,5.21-2.33,6.96h0s0,0,0,0c0,0,0,0,0,0-.74.53-1.54.87-2.4,1.06.33,1.13,1.47,1.8,1.66,2.95.4,2.26-.34,4.54-2.07,6.15-.67.39-1.61.34-2.21.94,1.2,1.33,2.27,2.93,2.21,4.87h-.01s.01,0,.01,0c-.53.87-1.27,1.87-2.07,2.21-4.68.99,1.54,4-.67,6.4-4.34-2.07-8.55-6.13-10.42-10.55m10.4,2.47h0m0,0h0m-.12-.3h0s0,0,0,0m1.96-7.6h0m0,0h0m-.07-.1v-.02s-.04-.05-.04-.05v.02s.04.05.04.05m-.03-.05v-.02s0,.02,0,.02h0m171.1,15.48c-.46-2.01,1.34-3.62,1.27-5.48-1.47-.27-2.81-1.48-3.61-2.61-.34-1.8.27-3.48,1.94-4.61.53-1.27-1.27-.67-1.82-1.27-1.54-1.2-2.53-3.2-2.53-5.41l2.06-.18h0l-2.06.18c-.14-1.61,1.66-2.61,1.66-4.01-1.73,0-3.07-1.68-3.87-3.07-.87-2.47-.94-5.88.41-8.36,1.59-6.94,11.29-6.87,11.41-14.43.41-1.47,2.68.07,3.62-1.4.6-.67-.47-.47-.67-.67-2.01-1.08-1.61-3.48-1.8-5.14.94-.33,1.47.66,2.33.13.4-.33,1.34-.46,1-1.13-1.27.12-1.61-1.27-2.4-1.94.53-.4,1.06.21,1.66,0,.4-.12,1.13-.26.87-1.01-1.2-.8-1.93-2.19-1.93-3.46h.93c1.8-.6-.4-1.61-.28-2.61.14-.26.41-.33.67-.26.27-.2.47-.53.33-.73-2.6-.67-1.61-3.81-4.06-4.68,1.86-1.47-1.08-1.94-.95-3.34-.27-.74-.99-.81-1.53-1h0s0,0,0,0h0c-.06-.41.07-.74.4-1.01.81-1.27-.72-1.4-1.53-1.66h0s0,0,0,0c0-.81.21-2.68-1.54-2.08.86-2.26-1.93-1.47-2.94-1.66.07-.94.53-1.8.2-2.74-1.06-.27-1.66.46-2.54.39l-.12-1.8h.19v-.02h-.19s.59-2.04.59-2.04l1.42.42.06.85c.35-.01.73.01,1.11.12l-.52,2.08h0s.52-2.08.52-2.08l1.12.28.38,1.08c.15.52.22.99.23,1.41.02,0,.03,0,.05,0,.59.1,1.58.31,2.31,1.38.09.16.17.31.23.47.78.45,1.19,1.19,1.36,1.7.07.24.12.46.15.68.12.05.25.12.39.19.45.25,1.16.82,1.37,1.83.1.44.08.84,0,1.21.35.33.68.77.85,1.28l-2,.73h0s2-.73,2-.73l.16.44c.11.1.27.24.45.41.31.35.98.91,1.08,2.19,0,.14,0,.27-.02.4.71.83,1.04,1.77,1.24,2.27.18.48.32.76.4.84l.06.07.17.06-.53,2.08h0s.53-2.08.53-2.08l.79.21.45.69c.68,1.08.35,2.05.12,2.5-.05.1-.11.19-.16.28.23.39.5,1,.3,2.01-.2.67-.54,1.11-.92,1.42.1.11.22.2.34.27l.59.39.24.66c.18.49.28,1.16.05,1.83-.09.28-.22.53-.37.74l.08.16c.29.5.45,1.45.11,2.19-.33.73-.8,1.03-1.08,1.23-.29.2-.49.28-.61.35l-.05.02-.04.03-.13.07c-.36.25-.75.39-1.13.44,0,0,0,.01,0,.02.12.54.18.63.36.77.09.02.19.04.31.07.24.11,1.24.22,1.73,1.7.17,1.12-.17,1.66-.45,2.01h0c-.53.87-1.48,1.41-2.21,1.55-.47.12-.87.14-1.19.14-.62,3.98-3.64,6.19-5.98,7.77-2.78,1.84-4.86,3.28-5.39,5.71l-.06.28-.14.25c-.94,1.63-.99,4.48-.34,6.41.31.53.71,1.08,1.08,1.42.42.38.7.45.85.45v2.14-2.14h2.14v2.14c-.06,1.69-.91,2.56-1.27,3.14-.19.29-.33.5-.38.62l-.03.08v.17c0,1.48.68,2.83,1.6,3.62.12.02.29.04.5.08.36.1,1.04.11,1.82,1.02.79,1.02.53,2.22.27,2.78l-.24.59-.52.35c-.89.67-1.13,1.18-1.08,2.04.6.68,1.45,1.28,1.92,1.31l-.38,2.1h0l.38-2.1,1.69.31.07,1.72c0,.46-.04.88-.12,1.27,2.1-1.69,3.82-3.57,4.59-5.78l.15-.41.29-.32c.88-.81.98-2.66,2.02-5.09,1.7-5.73-1.4-12.6-.5-20.41l.03-.21.07-.2.81.28h0l-.81-.28c.04-.11.11-.52.46-1.1.29-.57,1.36-1.41,2.42-1.34v2.12c-.6,0-.73.6-.87,1.01-.94,7.01,2.35,14.03.4,20.85h-.03s.03,0,.03,0c-.93,1.87-.93,4.15-2.47,5.81h0s-.01,0-.01,0l-2-.71,2.01.72c-1.54,4.27-5.48,7.08-9.15,9.48-.26-.06-.6.07-.74-.12m-1.87-14.28s.02-.02.03-.03l.17-.15h0s-.21.18-.21.18m.68-1.51h0s0,0,0,0h0m-1.49-3.77h0m0,0h0s0,0,0,0h0m0,0h0m0,0h0m0,0h0m0,0h.05s-.05,0-.05,0h0m-2-14.24l-1.85-1h-.01s1.86,1,1.86,1m12.49-17.52h0m0,0l.3-.56-.3.56m1.51-1.51h0m-3.13-1.59v-.06s0,.06,0,.06m0,0v-.06s0,.06,0,.06m3.29-5.99l2.01-.73-2,.72h-.01m.12-5.38h0s0,0,0,0h0m-.47-.62l-.15-.19.15.19m-2.95-9.56h0s0,0,0,0h0m-11.4-11.07h0m0,0h0m0-.04h0s0,0,0,0m0,0h0s0,0,0,0h0M24.7,143.24c.75-.57,1.33-.6,1.66-.67.2-.02.36-.04.46-.05.24-.17.48-.31.71-.41-1.31-3.49-1.54-7.17-1.72-10.76v-.1h2.13-2.13v-2.53h1.11c.01-.37.06-.81.22-1.33h0c.29-1.13.42-2.6,1-4.24l.66-1.79,1.35.33c.89-2.15,1.98-4.74,4.75-6.57l.22-.14.24-.07.4,1.21-.4-1.21c.31-.14.87-.18,1.41-.05.53-.88.92-1.97,1.2-3.17l.74-3.17,2.61,1.96c1.69,1.43,1.97,3.2,1.84,4.85h0c-.21,1.65.26,4.08-.77,6.84-.63,5.89-.65,11.03,1.8,15.77l-1.89.98c-2.81-5.41-2.68-11.16-2.01-17.24.94-2.14.54-4.42.74-6.55.13-.99-.2-2.33-1.01-2.93-.53,2.28-1.47,4.61-3.48,6.01-.27-.12-.06-.39-.13-.6-.07-.2,0-.8-.41-.66-2.87,1.8-3.54,5.21-5,7.95-.28-.33-.33-.88-.88-1.01-.46,1.27-.6,2.67-.94,4.01-.39,1.01.21,2.54-.53,3.2-.19-.2-.46-.27-.73-.27v.41c.2,4.28.53,8.43,2.4,11.96h0c-.74.6-1.67.53-2.4,1.13-.6.6-2.2-.05-2.08,1.14l-2.12.23c-.12-.67.16-1.89.95-2.47m3.22,1.07l-.03-.04-.53-.52h0s.55.56.55.56m-.55-.54h0m0,0h0m-.18-.45h0m0,0h0m-.13-.49h0m0,0h0m-.08-.32h0m0,0h0m.21-9.88h0m.7-2.39h0m0,0h0m82.26-10.95c-2.88-.41.13-2.74-.41-4.42-.53-2.33-1.8-4.95-4.47-5.41-2.35-.6-5.09.14-6.55,2.07-.07-1.93.21-4.34,2.27-5.28h0s0,0,0,0c1.93.33,3.8.88,5.41,2.21,1.2,1.47,2.07,2.61,4.01,2.67.93,1.68.6,3.68.26,5.55l.48.41c2.33.47,4.95.27,7.35.67,1.4-2.21,3.8.53,5.14-2.07.48-.47,1.68.2,1.68-.81-2.28-3.6-6.43-5.27-9.5-7.81-3.53-4.75-9.88-4.75-14.43-8.02-8.41-2.07-8.01,8.22-11.68,12.49l-.54-.73c-2.33-8.02-10.16-14.16-17.24-17.64h0s0,0,0,0c0,0,0,0,0,0-.87-.6-2.14-1.2-2.4-2.33h0s0,0,0,0c3.81-1.94,5.28,4.28,9.09,4.4,2.81-.99,4.01,2.14,7.08,1.41.6-.21.99-.6,1.2-1.27h.02s-.02,0-.02,0c.33-.81.13-1.94-.67-2.35-.87-.66-1.2.74-2.08.4-.26-.26-.72-.6-.53-.93h0s0,0,0,0c0,0,0,0,0,0,1.48-.6,3.68-.33,4.42-2.26.33-5.09-3.68-8.83-7.35-11.9-3.34-2-4.08-5.94-7.22-8.22h0c1.08-1.01,1.87-2.07,2.35-3.34l2,.74-2-.74,2.11-.33.08.54-.19.53c-.33.91-.8,1.73-1.36,2.48,2.46,2.69,3.32,5.5,5.34,6.51l-1.1,1.83,1.1-1.83.14.08.13.11c3.65,3.12,8.44,7.22,8.1,13.68l-2.1-.14,2.1.14v.31s-.12.31-.12.31c-.27.75-.72,1.35-1.23,1.8.52,1.03.46,2.2.14,3.21-.3,1.2-1.41,2.35-2.57,2.67l-.1.03h-.08c-.83.23-1.61.23-2.3.12,2.41,2.3,4.51,4.96,5.98,7.97.59-1.49,1.21-3.21,1.99-4.82.8-1.59,1.83-3.19,3.55-4.26,1.73-1.09,4.02-1.37,6.5-.73l.41.1.33.24c2.89,2.29,7.72,2.69,11.85,5.59l.03-.13.11-.22,1.9.9h.02s-1.93-.9-1.93-.9c.71-1.38,1.62-2.06,2.26-2.53l-.12-40.83c-.13-.24-.24-.52-.32-.85-.18-.67-.14-1.66.38-2.46l.04-.08.05-.07c.18-5.09.18-11.07,0-15.85-.55-1.1-.47-2.3-.29-3.06.17-.73.41-1.31.52-1.67-.24-7.17.05-13.83-.22-21.42-.88-.68-1.91-1.57-2.69-2.89v-.03s-.03-.03-.03-.03c-1.24-2.52-1.12-5.58.7-7.98l.03-.04.04-.04,1.58,1.44c-1.2,1.47-1.34,4.01-.46,5.6.73,1.27,1.93,2.15,2.93,2.88.34,8.22,0,15.25.26,22.72-.26,1.2-1.2,2.67-.27,3.88h0s0,0,0,0c.2,5.14.2,11.75,0,17.23l-.4.54-.77-.57h0l.68.51.09.06h0c-.33.54-.06,1.14.26,1.54l.14,42.43h0,0c-.87.87-1.94,1.33-2.47,2.48-.2.99,0,2.19.53,3.07,2.68,3.61,6.55,2.46,10.42,2.07l.28.26h0s0,0,0,0c-.67,1.54-.54,3.81.46,5.14.41,1.34-.94,2.35-1.87,3.08h0s0,0,0,0h0c-3.41,1.84-7.29,2.8-11.13,2.8-1.73,0-3.44-.19-5.11-.59m0,0h0m0,0l.03-.23-.03.23m14.45-5.51h0m0,0h0m-.15-.41h0s0,0,0,0h0m0,0h0m.1,0h0s0,0,0,0m0-.01h0m.7-1.94c0-.13,0-.25,0-.38-.11.01-.22.03-.34.04.12.11.23.22.34.34m-23.85-12.37l1.25-1.73-1.25,1.72v.02m-15.21-.34l-.47-2-.02-.05.49,2.05m-1.93-6.34h0m0,0h0m-3.58-14.04h0M114.23,10.83l1.85-1.07-.07.04-1.78,1.03m38.76,106.85c-1.57-.96-2.34-2.61-2.24-3.1.1-.49,1.16-2.33.59-4.75,0,0,.97.47,2.42.2,1.45-.29,3.2-1.08,3.2-1.08l1.37.78h0l-4.47,4.36v-.49.49l-.1.1s-1.06,1.55.1,1.55,1.46.39,1.65.88c.2.48,1.65.67,2.43.48.77-.18,2.32.39,2.51.98l7.38-.98.49-.67s-.78-3.4-.29-4.65c.49-1.27,1.65-.29,2.81-1.75,1.17-1.47,4.18-3.88,6.22-3.79l-.03.74.03-.74h0c2.04.1,2.61,2.04,3.01,5.04,0,0-1.65-2.63-4.65-2.24h0v-.08s0,.08,0,.08c-3.02.39-5.53.79-6.5,6.4,0,0,.1,1.94.98,3.12,0,0-2.91,1.16-6.4,1.16s-8.93-1.06-10.48-2.04m.73-3.53l-.43-.43.43.43h0m29.11-14.32c-1.66-1.4-4.2-1.47-6.21-.67l-.79-1.97c2.59-1.01,5.84-1.05,8.38,1.01l.14.13.13.15c2.12,2.64,3.22,5.51,4.32,8.1,1.37-2.88,3.4-5.61,5.79-7.92-.98.15-2.09.03-3.1-.52h0c-1.01-.45-1.59-1.51-1.73-2.06-.1-.29-.14-.49-.18-.59v-.07s-.01,0-.01,0h0s-.49-.88-.49-.88l.43-.98,1.94.87-1.86,1.03,1.86-1.03c.33.6.21,1.39,1,1.79l-.05.11.06-.11c1.54.87,3.27,0,4.61-1.13,1.13.26,2.54-.48,3.74.12v-.27c2.4-.73,3.41-3.68,5.81-4.74.94.32,1.8-.6,2.4.46-1.94,2.74-5.55,3.55-7.95,5.69-4.35,2.53-8.36,6.8-10.42,11.29-.81,1.13-.6,2.86-1.8,3.75-2.35-3.75-3.21-8.16-6.02-11.57m-136.98,1.44c-.14,0-.28-.02-.43-.03-.5-.07-1.13-.18-1.8-.59-.67-.39-1.27-1.13-1.52-1.93l-1.03-2.96,2.98.13c.08-.12.19-.35.33-.65,0-.13,0-.27,0-.39-.97-.11-2.47-.78-3.06-2.19l-1.2-2.53,1.19-.21c-.2-.54-.23-1.1-.2-1.54l.1-1.3,1.01-.44c-.52-.51-.81-1.25-.83-1.74v-.08l1.95-.14s0,0,0,0l-1.95.15c-.05-.67.11-1.23.32-1.66-.06-.1-.12-.22-.18-.34-.36-.83-.21-1.59-.03-2.1l.39-1.06,1.09-.28.53,2.07-.53-2.07.15-.05.06-.06c.07-.08.21-.36.39-.85.2-.52.54-1.49,1.29-2.34-.02-.1-.03-.21-.03-.33-.06-.67.24-1.4.6-1.83l.53-.68.49-.06s.03-.09.04-.13c.13-.36.27-.99.91-1.72.02-.02.04-.05.06-.07-.03-.18-.06-.36-.08-.56l-.06-.7.35-.6,1.58.95s0,0,0,0l-1.58-.95c.33-.6.87-.99,1.36-1.22.05-.47.22-.99.6-1.46l.78-1,.43.07v-1.41l1.76-.31.38,2.1-.38-2.1c.18-.03.37-.05.57-.08,0-.12,0-.26.02-.4.04-.74.57-1.68,1.26-2.15l.56-.42h.71c.15,0,.28.02.42.04.33-.6.91-1.05,1.36-1.24l.59-.28.64.1c.81.13,1.6.33,2.37.62.22-.34.48-.69.78-1.04.81-.98,2.35-2.1,4.28-1.94l2.1.13-.1,2.1c-.03.32-.07.62-.13.9.7-.7,1.06-1.17,1.22-1.75l.29-1.05,1.02-.39.74,2h.01s-.75-2-.75-2c.63-.29,1.92-.29,2.67.38.74.62.89,1.23,1.03,1.65.11.42.15.77.18,1.03l.04.32v.07s-1.65.45-1.65.45h0s1.66-.45,1.66-.45l.04.14v.15c.03.15.04.3.05.44.02,0,.04-.01.06-.02l1.16-.33.89.82c1.06.92,1.31,2.42,1.24,3.17-.04.81-.1,1.23-.06,1.4l-2.11.33c-.2-1.27.46-2.4-.54-3.34l1.46-1.57-1.47,1.56c-.92.27-1.66.67-2.53,1.06-.53-.87-.14-2.21-.27-3.27-.21-.74-.07-2.4-1.15-2-.66,2.4-3,3.27-4.13,5.48h-.41s0,0,0,0c-2.6-1.01-.79-3.74-.74-5.28-2.19-.14-3.13,2.14-4.14,3.6-1.08-.67-2.21-1.06-3.48-1.27-.99.47.14,1.27-.39,1.94-.81-.07-1.48-.53-2.28-.53-1.06.8.33,2.07-.27,3.2-.67-.33-1.75-.33-2.47-.2,0,1.13-.46,2.07-1.68,1.87-.46.6.21,1.27,0,1.8-.6.2-1.4,0-1.8.67.07.73.33,1.33.53,1.93-2.14-.12-.92,2.54-2.93,2.81-.46.6.26,1.01.47,1.54-2.54.87-1.48,4.01-4.08,4.68-.33.94.67.74,1.01,1.13-.07.88-1.08,1.2-1.01,2.08.13,1.13,1.39.13,1.8.86h0,0c-.67,1.01-.8,2.48-2.07,3.01-.14,1.87,1.8.6,2.53,1.13-.58,1.01-1.4,1.87-2.53,2.08.67,1.4,2.33.94,3.6.99.33,1.15-.6,1.68-.27,2.81h0s0,0,0,0c-.53,1.08-.94,2.54-2.47,2.47.53,1.54,2.4.94,3.74,1.27h0c-.07,2.54.94,5.14,3.34,6.82l-1.21,1.75c-2.42-1.66-3.73-4.11-4.13-6.59m-1.74-3.24h0s.08-1.77.08-1.77h0l-.08,1.77m1.66-1.06h0s0,0,0,0h0m-1.49-.59h0m0,0h0m-.07-.1h0m0,0h0m-.02-.03v-.02h0v.02h0m.04-.07h0m0,0h0m-.03-.13h0s0,0,0,0h0m-.96-7.51h0l-2.13-.15,2.13.15m-.64-1.56h0m0,0h0m.63-4.48h0m0,0h0m3.83-8.57h0m0,0h0m-.04-.07h0m0,0h0m3.76-5.76h0m0,0h0m.55-.07l.21-1.25h-.01s-.21,1.25-.21,1.25h0m-.64-.23h0,0m0,0h0m1.01-.9h0m0,0h0m-.04-.12h0m0,0h0m-.25-.1h0m0,0h0m.17-.11h0s0-.03,0-.03h0s0,.03,0,.03m.07-.4h0s0,0,0,0h0m0,0v-.07s.03-.16.03-.16l-.03.22v.02s0,0,0,0m.03-.24h0m2.39-.22h0m0,0h0m109.46,39.56h0s0,0,0,0c-.07-1.2-.6-2.2-1.4-3.21l1.66-1.33-1.66,1.33.91-1.93.45.21.31.39c.39.48.76,1.01,1.06,1.6,3.85-2.12,7.75-2.79,10.52-4.88l.21-.15.25-.08.78,1.97-1.24-1.73,1.24,1.74c-3.99,2.88-8.93,3.35-12.81,6.35h0s0,0,0,0l-.27-.27m-5.41-4.27h0s0,0,0,0c-2.21-.21-4.35,1.54-6.41.13,0,0,0,0,0,0h0s0,0,0,0c-.48-.94-.74-1.87-.81-2.93-.39-.94.27-3.14-1.13-3.48-1.07-1.73-.87-4.01-1.01-6.14l2.14-.13-2.14.12,2.05-.59.07.22v.24c.08,1.98.08,3.67.45,4.66.47.32.84.75,1.03,1.16.36.71.42,1.3.47,1.79.04.48.03.88.04,1.15l.03.25.1.24.03.36c.04.55.13,1.01.3,1.48.22.03.52,0,1.07-.11.9-.17,2.17-.68,3.91-.56h0c1.76.1,3.33.6,4.72,1.27l-.92,1.92c-1.27-.6-2.54-1-4-1.06" fill="#fff"/><path d="m122.59,100.68s-.83-30.47,0-39.4c0,0,4.82.1,5.95-.31v.73s-.61.31-1.44.2c-.81-.1-2.46-.2-3.17.31v5.95s1.84.1,2.56,1.13c.73,1.02,2.05,2.56,3.28,2.46v1.23s.21.92.62.92v2.14-1.1h.73c0,.8-.71,12.28-.73,12.61h0s-1.12.83-1.12.83l-.68-.94h0l.68.94-.92,6.05s-1.02-.11-1.12,1.12h0s-2.14-.17-2.14-.17c.02-.98.63-1.99,1.34-2.51l.73-4.81.14-.88.73-.53.27.38h0s-.27-.38-.27-.38l.31-.23c.01-.25.03-.53.06-.85.07-1.12.15-2.63.24-4.15.14-2.29.28-4.73.33-5.85-.18-.13-.32-.28-.42-.39-.31-.35-.45-.63-.54-.87-.21-.46-.28-.78-.29-.87l-.03-.11c-1.45-.71-2.19-1.95-2.86-2.76h0s-.01-.01-.01-.01h-.04c-.06-.07-.21-.12-.35-.16-.05,4.28-.03,9.26.03,13.91.06,4.35.13,8.44.19,11.43.02.97.04,1.82.06,2.53.03-.13.06-.26.08-.4.15-.88.28-1.96.32-2.49l2.14.18c-.11,1.25-.52,4.41-1.03,4.62l-.17-.41.17.41c-.52.21-1.33.21-1.84.41-.33.13-.71.31-1.09.31-.22,0-.44-.05-.65-.2m3.44-.92h0m0,0h0m-.84-.46h0m0,0h0m-1.48-.29h0s0,0,0,0m1.86-.4h0m0,0h0m-.14-.42v-.03s0,.03,0,.03m0,0v-.03s0,.03,0,.03m-.04,0h0s0,0,0,0m0,0h0m-.64-27.66h0s0,0,0,0m64.78,23.05s.11-.37.32-.84c-.38-.32-.74-.71-1.01-1.2l-.39-.64.1-.74c.43-2.77.47-6.92,3.94-9.84,2.84-3.14,6.05-5.05,7.24-7.55l.14-.28.21-.22,1.55,1.47-1.9-.96,1.9.97c-1.68,3.28-5.14,5.21-7.61,8.08-2.74,2.14-2.95,5.62-3.34,8.62,1,1.68,2.74,1.13,4.28,1.94.2.53-.48.73-.67,1.06-.74.27-.87-.87-1.54-.67-.87.14-1.01,1.07-1.27,1.67l-1.94-.86m-41.7-5.42c-.94-3.27-.39-7.21-.67-10.28h0s0,0,0,0c.4-1.41-.99-3.14.67-4.01l.66,1.28h.01s-.68-1.28-.68-1.28l1.78,1.19-.29.45-.15.08c.07.45.32,1.23.15,2.37.18,2.91-.11,6.07.32,8.53.56.3,1.09.98,1.19,1.5l-2.05.59c-.13-.46-.73,0-.94-.41m.98-12.39h0m.03-.01h0s0,0,0,0m-.04-.05h0s-.06-.1-.06-.1v.03s.07.07.07.07m-.15-.28h0s-.03-.03-.03-.03h0s.03.03.03.03m.48-.2h0s0,0,0,0m-1.3-1.35c.27-.41.48-1.2-.12-1.41-.21-.2-.21-.66.12-.79,2.74-.27,2.21-4.35,5.14-3.94.4-.33.34-.93.54-1.33l1.9.96-1.9-.96,2.12-.18.06.6-.23.46c-.01.07-.03.18-.08.33-.08.35-.28,1.13-1.05,1.77l-1.36-1.63h0s1.36,1.63,1.36,1.63l-.71.6-.94-.13h-.07l-.12.13c-.08.13-.2.31-.34.54-.32.52-.85,1.66-1.94,2.46,0,.07,0,.14-.02.2-.04.83-.26,1.36-.62,1.9l-1.78-1.19m-17.44,1.08v-1.03c.42,0,.73.21.73,1.03h-.73m0,0h0m69.68-2.68c.64-.67,1.27-1.45,2.01-2.26-1.3-1.9-2.03-4.31-1.23-6.91l.22-.74.66-.43,1.16,1.8-1.16-1.8c.73-.47,1.49-.56,2.14-.49.07-.96.22-2.03.66-3.14l.63-1.5,1.61.2c1.41.13,2.37,1.3,2.64,1.89.17.31.28.56.35.7l.03.07c.1.09.19.19.29.28l-.21-.95.73-.81c.81-1.01,2.3-1.15,3-.92.76.18,1.2.49,1.46.62h0c1.26.59,1.81,1.45,2.15,2.13l.72.06.24-.1c.39-.19,1.48-.56,2.57-.22l-.59,2.05c-.94-.27-1.41.47-2.21.41-2.33,2.33-2.01-2.01-3.94-2.47-.47-.27-1.27-.74-1.8-.14.26,1.21,1.33,2.35.73,3.74h0s0,0,0,0c-.39.54-1.06,1.46-1.8,1.08h0s0,0,0,0c0,0,0,0,0,0-.87-1.15-1.8-2.28-2.94-3.34-.53-.6-.6-1.8-1.68-1.94-.67,1.61-.46,3.54-.67,5.28-.99-.21-2-1.27-2.93-.67-.74,2.4.34,4.68,2.07,6.41-1.27,1.13-2.2,2.4-3.34,3.6l-1.55-1.47m16.39-10.97h0m0,0h0m1.31-.15h0m.34-1.09h0m-7.92-.03l2-.45h0s-1.99.45-1.99.45h0m-.61-.18l.04-.03.19-.14-.23.16m.23-.16h0m-56.44,2.09l-4.28.14-.33-.26h0s0,0,0,0h0c-.53-2.21-.26-4.88,1.41-6.42,1.39-.41,2.53-1.27,3.94-.54.99.6,1.54,1.68,1.66,2.74-.33.67-.99,1.08-1.66.88-1.34-.54-1.08-2.42-2.28-2.42-.34,2.01.34,4.01,2.08,5.16.87.46,2.26.46,3.06,0l1.15,1.8h-.03s-.04.04-.04.04c-.76.39-1.52.6-2.27.64,0,1.25-.27,2.15-.15,2.67l-2.12.18c-.14-1.54.46-3-.14-4.61m.87-5.11h0m0,0h0m-11.82,5.25s0,0,0,0l.08-.03-.08.03c-.74-2.14-.4-4.87-.26-7.21.46-3.27,4.07-5.21,5.94-7.81-1.13-2.28,1.94-2.81,2.08-4.75-.6-.46-1.27.47-1.82-.26h0s0,0,0,0c0-.26,0-.6.14-.8,3.75-.67,1.07-4.08,2.67-6.29-.12-1.06-.73-1.4-1.4-2.21l-.36-.98h0l.36.98c-.74.26-1.41-.34-1.54-1.13-.8-1.27-2.33-1.73-3.75-1.54-.6-.26-1.27-.79-1.94-.41l-.46-.77h0l.46.77h.01s0,.01,0,.01c-1.4,1.75-3.54,2.35-4.74,4.48l-.53-.47c-.81,1.08-1.81,2.28-1.81,3.82h-1.41,1.41l-1.07.41h0s1.07-.41,1.07-.41c.67,1.73-1.66,1.66-2.4,2.73l-.03-.02.03.03c-1.2,1.27-.94,3.21-2.33,4.21-1.61-2.6-4.28-3.94-5.55-6.68.07-3.54-4.61-5.48-2.67-9.49,8.96-5.48,19.17-.74,28.93-.27,0,0,0,0,0,0h0s0,0,0,0c14.11,2,31.93,2.21,41.16-10.56.07-.87,1.14-1.73.67-2.47-4.47,2.74-10.28,2.74-15.56,3.14-3.61-.14-7.75-.07-10.69-1.08l.68-2.01-.68,2.01h0c-7.35-.93-14.04-3.6-20.46-6.67-5.67-2.6-12.23-3.61-18.77-2.54-.67.07-1.48.54-1.94.14.34-1.34-.41-2.67-1.15-3.87-.92-.55-1.86-1.68-2.86-1.68-2-.33-3.94.47-5.28,1.94l-1.58-1.44c1.75-1.94,4.42-3.07,7.21-2.61v.02c2.32.38,3.07,1.8,3.58,1.91l.48.27.29.48c.41.72.98,1.6,1.29,2.69,6.86-1.04,13.69.04,19.62,2.76h.01s.01.01.01.01c6.33,3.04,12.8,5.6,19.8,6.5l.21.03.21.07c2.35.84,6.39.84,10.05.95,5.34-.37,10.73-.52,14.41-2.82l1.79-1.1,1.12,1.78c.45.67.53,1.55.4,2.1-.11.59-.31.95-.45,1.23-.14.26-.25.46-.29.56v.03s-.06.47-.06.47l-.35.49c-10.23,13.93-28.95,13.39-43.18,11.42-.49-.03-.97-.07-1.46-.12.1.13.2.26.29.4l.46-.17.96,1.15c.22.28.52.53.93,1.05.44.5.85,1.37.95,2.26l.09.84-.49.68c-.17.07-.21.92-.12,2.46-.01.67-.04,1.58-.56,2.53l.17.13-.08,1.13c-.25,2.22-1.71,3.06-2.11,3.59l-.13.15.53,1.05-.76,1.05c-.84,1.06-1.75,1.99-2.59,2.82,0,0,.01,0,.02-.01l.32-.2.36-.07.41,2.07h0s-.41-2.07-.41-2.07c.04.01.25-.07.85-.91.53-.67,1.51-2.04,3.38-2.41.84-.3,1.58-.4,2.13-.5-.26-.53-.32-1.2-.23-1.71l.1-.62.42-.48c.91-1.15,2.61-1.03,3.03-.85.22.05.38.1.46.13l.47-.04.57.31c.82.46,1.51,1.05,2.08,1.72.63-.45,1.5-.72,2.32-.71h0c1.15-.07,2.29.12,3.37.57l-.82,1.97.82-1.97,1.31.54v1.43c-.16,1.87-1.13,2.45-1.51,2.98-.19.2-.32.37-.38.45-.04.7.11,1.78-.05,3.11-.08,1.27-1.05,3.07-2.75,3.8-.7.54-1.43.64-1.91.69-.1,0-.21.02-.3.02-.38,1.9-1.52,3.63-3.19,4.64l-1.14-1.81c1.27-.81,2-1.94,2.27-3.47-1.01-2.47,2.28-.8,3.14-1.94,2.4-.93,1.67-3.26,1.8-5.28l1.75.12h0s-1.75-.13-1.75-.13h1.4-1.4c0-1.26,1.87-2.14,1.87-3.2-.63-.26-1.29-.4-1.96-.42l-.08-.04.08.04-.08-.04.08.04c-.19,0-.38,0-.58.01-2,0-1.94,2.28-3.07,3.34l-.13-2.33c-.48-.87-1.34-1.8-2.21-2.28-.67.07-1.41-.6-1.94,0,0,0,0,0,0,0h0s-2.1-.33-2.1-.33l2.11.33c-.12.86.8.8,1.06,1.4-.26,2.33-2.93,1.87-4.54,2.54-2.14.32-2.33,2.93-4.34,3.34-3.06,1.87-3.13,5.81-2.74,9.01-1.66.41-.26,2.14-1.26,3.08-1.27-.34-1.55-1.87-1.94-2.94m1.13,2.08h0m0,0h0m11.69-17.36l-.03-.04.03.04h0m0,0l-.03-.04.03.04h0m-5.3-.47h0m0,0h0s0,0,0,0m.06-2.05h0m2.3-1.83l-1.1-.08s0,0,0,0l1.11.08m-21.96-1.83c.23-.57.57-1.22,1.15-1.85.71-.82,1.4-1.12,1.84-1.32.05-2.52,1.53-4.05,2.22-5.06l1.38-1.84.61.54c1.22-1.18,2.43-1.78,3.08-2.45-6.03-1-11.61-1.65-16.39,1.06-.22.79,0,1.14.69,2.32.7,1.18,2.14,2.72,2.35,5.2.59,1.11,1.77,2.07,3.05,3.4m3.13-2.35h0m.22-.1h.02s0,0,0,0h-.02m.96-.12h0m0,0h0m1.47-5.22h0s-.57-.42-.57-.42l.57.42m12.11-1.22h0m0,0l.91-.58-.91.58m2.11-.35h0m43.98-12.56l-1.49-1.08h0s1.49,1.08,1.49,1.08m.41-1.09l-1.61-.13h0s.9.07.9.07l.71.06m-3.03-2.42h0m0,0h0m18.11,44.66h0m-86.44-4.85c-.94-.33-.6-1-.87-1.68l.27-6.01c.2,0,.27.19.46.34-.19.26-.39.6-.33.94.62.53,1.22.94,2.01,1.01.53.87-.67,2.14.53,2.74.74-.21,1.75-.67,2.47-.14-.07.53-.8.67-1.2,1.01-.72,1.08-1.71,1.83-2.92,1.83-.14,0-.28,0-.42-.03m-.6-6.27h0s0,0,0,0" fill="#fff"/><polygon points="218.87 183.97 218.87 184.16 218.87 183.97 218.87 183.97" fill="#231f20"/><path d="m218.87,184.17c0,.13,0,.22,0,0h0Z" fill="#231f20"/><path d="m86.08,269.25c-2.21-.33-4.95-1.01-7.35-1.54-11.82-3.55-24.05-6.09-35.21-11.29-4.28-2.28-8.96-3.68-12.9-6.82-3.14-3.07-1.87-7.82-.6-11.36-1.27-1.01-3-.94-4.28-2.14-1.54-.4-2.95-1-4.35-1.82-7.35-3.8-16.04-8.89-19.18-17.1-.73-6.68,3.14-12.23,4.75-18.3,1.2-3.74,2.55-7.42,4.14-11.02,1.87-3.14,5.69-3.89,8.76-3.34,5.21,1.4,10.55,2.6,15.16,5.41h.6c1.01.94,2.21,2.21,1.68,3.81-2,4.33-3.41,9.01-4.74,13.62,1.66,1.08,3.67,1.27,5.55,1.94,1.4.46,2-1,3.06-1.27,4.48-1.2,9.03.67,12.63,3.21,7.15.27,15.37-.6,21.32,3.87,3.75,2.88,1.2,7.69.8,11.29,2.4,1.01,5.09,1.34,7.49,2.35,9.82,2.6,19.38,4.54,29.66,5.81,8.35.87,16.64,2.53,25,1.86v-.46c-6.82-8.43-15.71-13.83-24.72-18.3-9.89-5.75-23.26-13.78-24.93-26.46-.41-.86-.21-2.14-.67-2.88-1.73,5.21-3.07,11.57-9.29,13.57-7.15,3.27-16.5,2.81-22.38-2.74-5.07-5.02-7.35-11.23-8.22-17.98-.67-.66-1.75-1.26-1.8-2.33.6-.6,1.2-1.2,1.4-1.94.2-1.33-.33-2.26-1.13-3.2-.74-.53-2.01-.48-2.08-1.68,1.68-.87,3.28-2.54,3.62-4.47.06-1.46-.47-3-1.8-3.74-.41-.34-1.01-.8-.6-1.4,1.26-.14,2.67-.54,3.2-1.82-2.94-1.59-6.34-1.4-9.89-1.2-3,.48-5.48,3.14-6.34,5.81-1.73,5.76,3.81,11.03,1.68,16.45.13.67-.14,1.47-.88,1.94-.53-.34-.06-1.27-.39-1.82-1.27-3.27-5.02-4.81-7.08-7.4-.48.27-.14,1.4-.88.87-1.19-1.68.07-3.87-.53-5.81-.39-.87-.34-1.87-1.13-2.54-.6-.27-1.61.79-1.68-.41,1.41-1.8,1.82-3.94,2.01-6.27-.47-.81-1.73-.07-1.8-1.08,3.6-2.33,2.86-7.21,7.35-8.48-1.68-1.54-1.73-3.61-3.21-5.14-.12-1.2,1.48-.55,2.08-1.15.73-.6,1.66-.53,2.4-1.13-1.87-3.53-2.21-7.68-2.4-11.96v-.41c.27,0,.53.07.73.27.74-.66.14-2.19.53-3.2.33-1.34.47-2.74.94-4.01.54.12.6.67.88,1.01,1.47-2.74,2.14-6.15,5-7.95.41-.14.33.46.41.66.07.21-.14.48.13.6,2.01-1.4,2.95-3.73,3.48-6.01.81.6,1.13,1.94,1.01,2.93-.2,2.14.2,4.42-.74,6.55-.67,6.08-.8,11.83,2.01,17.24,1.87,4.41,6.08,8.48,10.42,10.55,2.21-2.41-4.01-5.41.67-6.4.8-.33,1.54-1.34,2.07-2.21.07-1.94-1.01-3.55-2.21-4.88.6-.6,1.54-.54,2.21-.94,1.73-1.61,2.47-3.88,2.07-6.15-.2-1.14-1.33-1.82-1.66-2.95.87-.2,1.66-.53,2.4-1.06,2.26-1.75,1.93-4.48,2.33-6.96-.53-5.14-4.81-9.68-9.42-11.82-2.4-1.68-3.41-4.28-3.34-6.82-1.34-.33-3.21.27-3.74-1.27,1.54.07,1.94-1.4,2.47-2.47-.33-1.13.6-1.66.27-2.81-1.27-.06-2.93.41-3.6-.99,1.13-.21,1.94-1.08,2.53-2.08-.73-.53-2.67.74-2.53-1.13,1.27-.53,1.4-2,2.07-3-.41-.74-1.68.27-1.8-.87-.07-.88.94-1.2,1.01-2.08-.33-.39-1.34-.2-1.01-1.13,2.6-.67,1.54-3.81,4.08-4.68-.21-.53-.94-.94-.47-1.54,2.01-.26.79-2.93,2.93-2.81-.2-.6-.46-1.2-.53-1.93.4-.67,1.2-.47,1.8-.67.21-.53-.46-1.2,0-1.8,1.22.2,1.68-.74,1.68-1.87.73-.14,1.8-.14,2.47.2.6-1.13-.8-2.4.27-3.2.8,0,1.47.46,2.28.53.53-.67-.6-1.47.39-1.94,1.27.21,2.4.6,3.48,1.27,1.01-1.47,1.94-3.74,4.14-3.6-.06,1.54-1.86,4.28.74,5.28h.41c1.13-2.21,3.48-3.07,4.13-5.48,1.08-.41.94,1.26,1.15,2,.13,1.06-.26,2.4.27,3.27.87-.39,1.61-.8,2.53-1.06,1.01.94.35,2.07.55,3.34-.48,1.27-1.27,2.33-2.35,3.34,3.14,2.28,3.88,6.22,7.22,8.22,3.67,3.07,7.68,6.82,7.35,11.9-.74,1.93-2.93,1.66-4.42,2.26-.2.34.26.67.53.94.88.33,1.22-1.06,2.08-.4.8.4,1.01,1.54.67,2.35-.21.67-.6,1.06-1.2,1.27-3.07.73-4.27-2.4-7.08-1.41-3.81-.12-5.28-6.34-9.1-4.4.27,1.13,1.54,1.73,2.4,2.33,7.08,3.48,14.91,9.63,17.24,17.65l.54.73c3.67-4.28,3.27-14.56,11.68-12.49,4.56,3.27,10.9,3.27,14.43,8.02,3.07,2.54,7.23,4.21,9.5,7.81,0,1.01-1.2.34-1.68.81-1.34,2.6-3.74-.14-5.14,2.07-2.4-.4-5.02-.2-7.35-.67l-.48-.41c.33-1.87.67-3.87-.26-5.55-1.94-.05-2.81-1.2-4.01-2.67-1.61-1.33-3.48-1.87-5.41-2.21-2.07.94-2.35,3.35-2.28,5.28,1.47-1.93,4.21-2.67,6.55-2.07,2.67.46,3.94,3.07,4.47,5.41.53,1.68-2.47,4.01.41,4.42,5.35,1.27,11.29.46,16.24-2.21.94-.73,2.28-1.73,1.87-3.08-1.01-1.33-1.13-3.6-.46-5.14l-.28-.27c-3.87.39-7.74,1.54-10.42-2.07-.53-.88-.73-2.08-.53-3.07.53-1.15,1.61-1.61,2.47-2.47l-.14-42.44c-.32-.41-.6-1-.26-1.54l.41-.54c.2-5.48.2-12.09,0-17.23-.94-1.22,0-2.68.26-3.88-.26-7.48.07-14.5-.26-22.72-1.01-.73-2.21-1.61-2.93-2.88-.88-1.59-.74-4.14.46-5.6,1.34-1.47,3.28-2.28,5.28-1.94,1,0,1.94,1.13,2.86,1.68.74,1.2,1.48,2.53,1.15,3.87.46.4,1.27-.07,1.94-.14,6.54-1.06,13.09-.06,18.77,2.54,6.41,3.07,13.11,5.74,20.46,6.68,2.93,1.01,7.09.94,10.69,1.08,5.28-.41,11.09-.41,15.56-3.14.48.74-.6,1.61-.67,2.47-9.22,12.77-27.05,12.56-41.16,10.56-9.75-.48-19.97-5.21-28.93.27-1.94,4.01,2.74,5.95,2.67,9.49,1.27,2.74,3.94,4.08,5.55,6.68,1.4-.99,1.13-2.93,2.33-4.21.74-1.08,3.07-1.01,2.41-2.74,0-1.54,1-2.74,1.81-3.82l.53.47c1.2-2.14,3.34-2.74,4.74-4.48.67-.39,1.34.14,1.94.41,1.41-.2,2.95.27,3.75,1.54.13.8.79,1.4,1.54,1.13.67.81,1.27,1.15,1.4,2.21-1.59,2.21,1.08,5.62-2.67,6.29-.14.19-.14.53-.14.8.54.74,1.21-.2,1.82.27-.14,1.94-3.22,2.47-2.08,4.75-1.87,2.6-5.48,4.54-5.94,7.81-.14,2.35-.47,5.08.26,7.22.39,1.06.67,2.6,1.94,2.94.99-.94-.4-2.67,1.26-3.08-.39-3.2-.32-7.14,2.74-9.01,2.01-.41,2.21-3.02,4.34-3.34,1.61-.67,4.28-.21,4.54-2.54-.26-.6-1.19-.54-1.06-1.41.53-.6,1.27.07,1.94,0,.87.48,1.73,1.41,2.21,2.28l.13,2.33c1.13-1.06,1.08-3.34,3.07-3.34.87-.07,1.73.07,2.55.4,0,1.06-1.87,1.94-1.87,3.2-.14,2.01.6,4.35-1.8,5.28-.87,1.15-4.15-.53-3.14,1.94-.27,1.54-1.01,2.67-2.28,3.48-.8.46-2.19.46-3.06,0-1.75-1.15-2.42-3.14-2.08-5.16,1.2,0,.94,1.87,2.28,2.42.67.2,1.33-.21,1.66-.88-.13-1.06-.67-2.14-1.66-2.74-1.41-.73-2.55.14-3.94.54-1.68,1.54-1.94,4.21-1.41,6.41l.33.26,4.28-.14c.6,1.61,0,3.08.14,4.61-.21.41-.14,1.01-.54,1.34-2.93-.41-2.4,3.67-5.14,3.94-.33.14-.33.6-.12.79.6.21.39,1.01.12,1.41-1.66.87-.27,2.6-.67,4.01.28,3.07-.27,7.01.67,10.28.21.41.81-.05.94.41.14,2.14-.07,4.42,1.01,6.15,1.4.33.74,2.54,1.13,3.48.07,1.06.33,2,.81,2.94,2.07,1.41,4.21-.34,6.41-.13,1.47.06,2.74.46,4.01,1.06.8,1.01,1.33,2.01,1.4,3.21l.27.27c3.88-3,8.83-3.48,12.83-6.36,2.01-.8,4.56-.73,6.22.67,2.81,3.41,3.68,7.83,6.02,11.57,1.2-.88.99-2.61,1.8-3.75,2.07-4.49,6.08-8.76,10.42-11.29,2.4-2.14,6.01-2.95,7.95-5.69-.6-1.06-1.47-.14-2.4-.46-2.4,1.06-3.41,4.01-5.81,4.74v.27c-1.2-.6-2.61.14-3.74-.12-1.34,1.13-3.08,2-4.61,1.13-.8-.41-.67-1.2-1.01-1.8.27-.6.4-1.54,1.27-1.68.67-.2.79.94,1.54.67.19-.33.87-.53.67-1.06-1.54-.81-3.27-.27-4.28-1.94.39-3,.6-6.48,3.34-8.62,2.47-2.88,5.94-4.81,7.61-8.09,1.14-1.2,2.07-2.47,3.34-3.6-1.73-1.73-2.81-4.01-2.07-6.41.94-.6,1.94.46,2.93.67.21-1.75,0-3.67.67-5.28,1.08.14,1.15,1.34,1.68,1.94,1.13,1.06,2.07,2.19,2.94,3.34.74.39,1.41-.53,1.8-1.08.6-1.4-.46-2.53-.73-3.74.53-.6,1.33-.13,1.8.14,1.93.46,1.61,4.81,3.94,2.47.79.07,1.27-.67,2.21-.41l.13,1.8c.88.07,1.48-.66,2.54-.39.34.94-.13,1.8-.2,2.74,1.01.2,3.8-.6,2.94,1.66,1.75-.6,1.54,1.27,1.54,2.08.81.27,2.35.39,1.54,1.66-.34.27-.46.6-.4,1.01.54.2,1.27.26,1.54,1-.12,1.4,2.81,1.87.95,3.34,2.46.87,1.46,4.01,4.06,4.68.14.2-.07.53-.33.73-.27-.07-.53,0-.67.26-.13,1.01,2.08,2.01.28,2.61h-.93c0,1.27.73,2.67,1.93,3.46.27.74-.46.88-.87,1.01-.6.21-1.13-.4-1.66,0,.8.67,1.13,2.07,2.4,1.94.34.67-.6.8-1,1.13-.87.53-1.4-.46-2.33-.13.2,1.66-.21,4.07,1.8,5.14.2.2,1.27,0,.67.67-.93,1.47-3.21-.07-3.62,1.4-.13,7.56-9.82,7.49-11.41,14.43-1.34,2.47-1.27,5.88-.41,8.36.8,1.4,2.14,3.07,3.87,3.07,0,1.4-1.8,2.4-1.66,4.01,0,2.21.99,4.21,2.53,5.41.54.6,2.35,0,1.82,1.27-1.68,1.13-2.28,2.81-1.94,4.61.79,1.13,2.14,2.35,3.61,2.61.07,1.86-1.73,3.47-1.27,5.48.14.2.47.07.74.12,3.67-2.4,7.62-5.21,9.15-9.49,1.54-1.66,1.54-3.94,2.47-5.81,1.94-6.82-1.34-13.83-.4-20.85.14-.41.26-1.01.87-1.01.28,2.35,1.27,4.49,3.35,5.95.66-.2-.33-1.47.8-1.2,2.33,2.14,3.34,5.07,4.61,7.75.67.2.27-.67.8-.81,1.15,2.01,1.2,4.75,1.54,7.22l.67-.4c-.14,3.67.14,8.62-2.21,12.22,1.34,1.01,3.14,1.41,4.61,1.8-.53,1.34-1.46,2.54-1.93,3.88l-1.27,1.54c1.8,1.27,4.21,2.81,4.61,5.28.6,1.33,1.54,2.67,2.74,3.47-.4.81-1.61.14-1.8,1.13.34,2.08.27,4.29,1.93,5.81v.74c-.6.4-1.2-.41-1.8,0-1.99,2.35-.07,5.95-1.66,8.36l-.67-1.01c-2.54,3.34-7.22,4.61-7.22,9.29-1.33-.67-.94-2.61-1.4-3.87-.4-5.76,5.02-11.77.67-17.12-2.95-4.61-9.7-3.2-13.76-2.48-.4.14-1.08.41-1.08.94.74,1.08,2.14,1.27,3.34,1.68-.27,1.47-2.26,2.07-2.4,3.61-.41,1.94.47,3.74,2.07,4.87.48.34,1.01.48,1.41.88-.21,1.59-2.42,1.33-2.88,2.86-.6,1.47,0,3.14,1.2,4.21-.33,1.15-1.66,1.34-2.07,2.47-.81,8.76-5.48,17.98-14.03,21.32-6.62,2.33-13.64,1.27-19.05-2.81-4.34-2.41-4.61-7.49-6.29-11.56-.53,1.61-.53,3-1.06,4.61-.67,1.8-.95,3.68-2.01,5.28-3.48,7.54-10.95,12.49-17.77,16.7-1.07,1.27-2.61,1.13-3.6,2.47-1.27.41-2.35,1.34-3.48,1.94-7.95,3.94-16.11,9.42-21.85,16.57.14.41-.2.67-.27.99l.27.28c8.02-.21,16.57-1.15,24.93-2.42,2.67-.39,5.41-.73,8.02-1.2,9.49-1.26,18.37-4.01,27.4-6.41.33-3.61-3.14-7.35.12-10.55,4.82-4.41,11.96-4.28,17.71-4.61,2.01-.81,4.68,1.13,6.09-1.15,3.27-1.66,7.21-3.73,11.15-1.93.88.79,2.01,1.47,3.35.99,1.59-.39,3.13-1.13,4.67-1.66-.33-3.48-2-6.41-2.74-9.75-.13-2.35-3.41-4.42-1.01-6.82,6.16-3.74,13.57-6.41,20.46-6.22,6.61,1.4,6.15,8.89,8.75,13.64,1.55,6.08,4.82,11.7,4.75,18.3-3.2,8.82-12.77,13.9-20.44,18.11-2.41.74-4.48,2.35-6.96,2.88l-.53.6c1.2,3.48,2.6,8.29-.74,11.22-6.2,4.08-13.09,7.22-20.11,9.63-1.41.67-2.95,1.06-4.34,1.66-7.08,2.54-14.63,3.88-21.71,6.43-18.18,4.28-37.1,6.47-56.74,6.61-2.59.06-5.19.1-7.81.1-16.54,0-33.49-1.33-49.59-4.9m87.22,1.54v-.07s0,.07,0,.07c4.15-.6,8.69-1.48,12.9-1.94,20.72-4.54,40.71-9.42,59.03-19.86,2.45-2.06,1.76-5.69,1.09-8.43h0s-.05.01-.05.01h0s0,0,0,0l.06-.02c-2.74-7.62-5.34-15.29-7.35-23.24v-.03h-.01s-.04.04-.04.04h0s.05-.05.05-.05l-.53-.53-.06-.04-.04.04-2.68,3.08h0c-10.6,7.07-22.95,9.93-35.12,13.34-10.28,2.95-20.78,5.42-31.59,6.96-13.9,1.4-28.73,3.67-43.36,1.8v.07s0-.07,0-.07c-10.02-1.01-20.25-1.75-29.45-4.21h-.01v.04h0s0,.01,0,.01v-.05c-11.6-2.21-22.69-5.62-33.92-8.88h0c-8.23-2.95-16.77-5.36-23.17-12.36l-.06-.07-.06.08c-.87,1.55-1.2,3.3-1.68,5.03-2.07,7.35-4.93,14.29-6.94,21.64l.06.02h-.02l-.05-.02v.02c-.41,2.35.07,4.65,2.24,6.22,17.12,9.63,36.57,14.63,55.89,18.78,7.35,1.27,14.56,2.88,22.26,3.21,5.21.6,10.09,1.06,15.44,1.27,15.51.39,32.15,0,47.19-1.87m-28.81-30.07c5.81-.28,11.57-1.15,17.24-1.41,19.58-2.54,38.89-7.08,56.99-13.16,5.28-2.07,10.63-4.01,15.18-7.54,2.07-1.34,3.81-3.55,3.87-6.09-.12-.99-.79-2.14-1.8-2.53-7.88-2.74-12.3,5.81-18.3,8.89-3.41,1.13-7.88,3.34-11.17.87-.6-.53-.12-1.27.14-1.8,2.4-2.14,5.81-2.21,8.75-2.67,2.21-.88,6.15,1.47,7.42-1.94h-7.69c-4.28.73-8.75.8-11.96,3.87-.73.87-.73,2.07-.67,3.21,3.55,4.47,9.36,2.07,14.17,1.54,6.02-.81,9.15-7.75,14.57-10.16.99-.14,2.4-.34,2.94.73.74,4.15-4.08,4.95-6.55,6.82-8.34,3.88-17.17,6.96-25.99,9.15-4.01.93-7.42,2.01-11.36,3.07-18.3,4.49-35.88,6.75-55.53,6.69l-.27.27c-6.68-.67-14.36-.93-20.99-2.07-15.9-1.61-30-6.22-44.91-10.16-2.47-.67-4.88-1.75-7.08-2.4-6.08-2.08-12.09-4.35-17.37-8.5l-.74-1.2c-.27-.8-.2-1.8.41-2.4,3.21-1.08,5.74,1.8,8.09,4.08,3,3.2,6.41,5.48,10.42,6.2,4.08.55,7.41,1.48,11.29-.12,1.2-.53,2.01-1.94,1.68-3.48-.41-2.4-3.02-2.74-4.61-3.87-4.95-1.08-10.49-2.01-15.7-1.41.6.74,1.27,1.15,1.93,1.68,4.29.2,9.03,0,12.77,1.8.73.6,2.4,1.27,1.87,2.67-1.82,1.94-4.88,1.47-7.29.93-7.88-1.4-12.16-10.95-20.44-11.22-1.61.34-3.07.94-3.87,2.47-.88,5.55,5.55,8.21,9.35,10.42,16.31,7.28,33.74,11.09,51.25,15.03,1.15-.07,2.14.67,3.21.41,13.43,2.4,27,3.47,40.76,3.34m101.99-4.6l.02.06h.04c1.15-.01,2.1-.42,3.09-.69h.01l-.02-.05.02.05c8.62-4.01,18.99-8.36,23.42-17.8h0v-.03h-.06l.06.03-.06-.03h0s.06,0,.06,0c1.15-7.18-3-12.8-4.47-19.06h0c-.47-.88-.72-2.08-1.43-2.58l-.07-.05-.04.08c-3.86,10.06-14.39,14.8-23.54,17.87h-.01c-.98.67-2.43.53-3.34,1.01l-.04.03v.06c1.88,7.14,3.83,14.24,6.37,21.11l.05-.02s0,0,0,0h-.06m-216.76-.21c.46.24.77.26,1.01.15.21-.13.31-.38.38-.66.13-.57.14-1.31.5-1.58h.01v-.03c1.27-3.88,2.54-7.75,3.75-11.7h0c.53-2.47,1.68-4.88,1.87-7.36v-.06s-.04-.01-.04-.01c-8.42-2.81-17.35-5.41-23.36-12.81-1.52-1.86-2.79-4.07-3.59-6.33l-.06-.14-.07.13-.6,1.08h0c-1.54,5.28-4.01,10.16-5.42,15.45h0c-1.48,4.19,1.08,8.01,3.82,11.08,6.29,6.37,13.85,10.17,21.8,12.78h0m60.71-57.06c-.8,1.73.19,4.49-.34,6.41-.2,11.03,6.02,19.58,15.58,25,1.52,1.4,3.41,2.14,5,3.34,2.61,1.27,4.88,3.07,7.56,4.2,7.28,4.82,15.5,9.43,21.11,16.64l.4-.12c9.95-11.91,23.85-17.19,35.74-25.86,9.49-5.55,14.24-15.44,13.37-26.68,0-1.13,0-2.72-.6-3.6-1.08.6-2.61.54-3.62-.34l.48,1.54c-.94,1.27-2.4,0-3.61,0,1.06,8.76-2.01,16.91-8.69,22.72-9.96,7.63-21.99,11.36-31.27,20.38-.81.6-.81,2.07-2.07,2-8.16-8.48-18.32-13.16-27.95-18.5-9.75-5.21-15.37-14.96-14.15-26.34-1.01.34-1.87.67-2.95.62-.87-.47-.26-1.34-.41-1.82l-.6.28c-.75.35-1.63-.02-2.36-.02-.23,0-.45.04-.64.15m113.22,47.02l.02.03h.03c1.36,0,2.84-.48,3.51-.81l.17-.08-.18-.04-.02.07h0s.02-.07.02-.07l-3.75-.87h-.08s0,.07,0,.07c.01.46-.07,1.27.29,1.71h0m-129.95.03h.04c.74-.32.45-1.29.71-1.85l.06-.13-.14.03c-1.26.33-2.6.47-3.87.88l-.21.06.21.07,3.2.94.02-.06h0s-.02.06-.02.06m142.73-8.64l-.04-.13v.06-.06c-2.33.14-4.15.14-6.3.74l.02.07s0,0,0,0h0s-.01-.07-.01-.07h-.01s-.01.03-.01.03c-.18.24-.59.31-.92.4-.16.06-.32.11-.43.22-.11.11-.14.29-.07.5v.04h.07c2.75.21,5.29-.4,7.73-1.82m-148.87,1.82h.03s.03-.01.03-.01c.15-.14.49-.08.8-.07.15,0,.31-.01.43-.08s.2-.22.2-.43v-.04h-.04s-.03.04-.03.04l.03-.06c-2.15-1.29-4.78-1.29-7.38-1.41h-.2s.16.11.16.11c1.62,1.35,4.11,1.55,5.98,1.95h0m159.61-1.73l.19-.07-.02-.06h0s.02.06.02.06c1.15-.47,2.15-1.15,3.23-1.82h0c.47-.27,1.15-.81,1.29-1.44l.03-.11-.11.03c-1.75.55-3.83,2.15-4.51,3.24l-.11.17m-176.84-.27l-.03.06.07-.11-.04.06m-.03.06l.03-.06h0s0-.02,0-.02l.04-.04s0,0-.01-.01h0c-1.27-1.25-2.66-2.8-4.43-3.34l-.12-.04.05.12c.62,1.58,2.77,2.71,4.44,3.38m97.92-2.79c1.26-.97,12.23-7.08,12.23-7.08v-76.12c-.22-.7-2.36-.98-4.95-1.36-2.58-.39-7.38-2.25-7.38-2.25l.1,86.81m-30-83.6l-.14,76.31s9.74,5.27,11.03,6.3c1.3,1.03,1.47.52,1.47.52v-86.34c-3.04,1.65-12.35,3.21-12.35,3.21m143.74,60.47c.72,1.47.6,3.27,0,4.74-4.95,8.83-13.9,12.51-22.53,15.31-.27.66.53.99.27,1.66l2.94-.4c6.16-2,12.24-4.54,17.24-8.94,3.88-3.74,7.35-9.03,4.89-14.57-1.21-1.73-3.21-2.47-5.02-2.54-5.74.54-11.24,2.54-16.24,5.15-3.34,1.87.26,5.14.39,7.69,1.21,2.4,1.48,5.34,2.95,7.47.73-.4,1.66-.72,2.33-1.2-1.13-3.61-2.14-7.21-3.46-10.76l.39-.94c2.95-2.21,6.41-3.07,9.89-4.08.85-.02,1.7-.12,2.51-.12,1.3,0,2.5.26,3.45,1.53m-245.25-5.02c-2.21.4-4.35,2.28-4.75,4.49-.99,6.81,4.55,12.83,10.44,16.1,4.67,2.88,9.75,4.95,15.16,6.02.27-.54.6-1.34.27-1.8-4.61-1.54-9.01-3.35-13.23-5.88-4.4-3.21-10.21-7.49-9.42-13.64.34-.94,1.34-1.8,2.33-2.07,4.15-.41,8.62.99,12.24,3.07.87.53,2.47,1.06,2.07,2.47-.4,1.8-1.2,3.46-1.94,5.14-.34,1.68-1.13,3.61-1.33,5.28.6.4,1.47.99,2.33,1.13,1.06-1.73,1.13-3.87,2.07-5.67.74-2.81,2.21-5.28,2.68-8.23-1.75-1.87-4.08-2.4-6.15-3.46-3.87-1.38-8.12-2.95-12.49-2.95-.09,0-.19,0-.28,0m234.23,18.54l.03.07.07-.04-.04-.05h0s.04.05.04.05l2.47-1.54c3.21-2.35,7.52-6.29,6.97-10.76h0s-.04,0-.04,0h0l.04-.02c-.38-.77-.94-.95-1.52-1.01-.57-.06-1.2-.01-1.79-.29h-.02s-.03-.01-.03-.01c-3.4.87-6.82,1.47-9.51,3.76l.04.05s0,0,0,0h0s-.06.01-.06.01h.06s-.04-.07-.04-.07l-.03.03v.04c.88,3.34,2.01,6.75,3.35,9.77h0m-224.29-.36l.05.03.03-.07,3.34-9.63v-.04s-.03-.03-.03-.03l-.03.05h0s.03-.05.03-.05c-1.33-.88-2.93-1.82-4.56-2.49-2.47-.6-5.35-1.89-8.01-.6l.04.07s0,0,0,0h0s-.02-.07-.02-.07v.02s-.01.01-.01.01c-.63.75-.61,1.78-.56,2.71h.07s0,0,0,0h-.01s-.06,0-.06,0h0s.01.01.01.01c1.68,4.51,5.56,8.06,9.73,10.08h0m36.37-2.6c3.55.6,7.63,2.07,10.7-.67.6-.67.06-1.68-.14-2.35-3.27-3.54-8.55-2.81-12.56-4.88,0,.6.6,1.01.87,1.54.94,1.41,2.4,2.28,3.74,3,0,.28.13.6-.14.74-1.73.2-2.93-1.61-4.61-1.94v.27c-.67.54-1.27,1.27-2.33.93-.87-1.47,1.94-.8,1.54-2.6-.53-.8-.6-2.01-1.54-2.33-1.08,1.2-3.07,1.66-4.61,1.2,2.21,3.2,5.55,5.67,9.08,7.08m142.8-4.15c-.66.8-1.13,1.8-.72,2.81,2.14,2.6,5.21,1.4,8.35,1.47,4.47-.8,8.41-3.81,11.29-7.75-.53-.13-1.27-.27-1.8.14-1.08-.21-2.21-.6-2.81-1.54-.94.74-1.08,1.8-1.41,2.81.21.99,1.08,1.27,1.82,1.8,0,.26-.28.4-.41.53-.74-.13-2.01-.13-2.21-1.27-1.73.33-2.88,2.4-4.74,1.8v-.39c1.73-1.08,3.8-2.68,4.74-4.54l-.14-.21c-4.07,1.68-8.34,1.68-11.96,4.34m-138.71-8.51c9.99-1.06,10.09-7.75,10.19-9.03.1-1.26-.38-3.91-.38-3.91-1.34-2.18-6.41-5.42-6.41-5.42,0,0-3.4,3.33-4.67,4.39-1.26,1.07-6.2,7.18-5.9,9.51.59,4.39,6.93,4.46,7.16,4.46h0m134.49-9.99c-.2,5.34,4.75,9.89,10.48,9.6,5.71-.28,6.78-4.74,6.78-4.74-.02-.75-1.44-3.51-2.32-5.06-.87-1.55-7.98-8.57-7.98-8.57-3.02,1.82-6.76,3.42-6.96,8.76m-11.23-12.3c.33.07,1.49.33,1.49,1.23s-1.62,1.1-1.62,2.26,1.94,1.62,1.94,1.62l-.13.78c-2.01,1.09-1.88,3.35-1.49,4.78.39,1.43.52,4.21.52,4.21.46-10.61,10.62-19.41,10.62-19.41-2.6-4.14-7.32-10.21-8.29-11.57-.96-1.37-4.08-6.61-4.08-6.61,0,0-.06-.2-1.75.59-1.68.78-1.94,2.78-2,4.6-.07,1.8-1.23,2.78-1.23,2.78,0,0,2.39,8.93,3.17,11.77.77,2.85,2.52,2.92,2.84,2.98h0m-102.49,13.99s.24-2.28.29-2.95c.04-.68.29-.98.43-1.51.14-.53.1-1.21-.29-1.65-.39-.43-1.12-1.51-1.45-2.18-.33-.68,1.02-.78,1.02-.78,0,0,.2-.14.73-.57.53-.45-.33-1.27-1.06-2.19-.74-.92-.35-1.22-.15-1.35.2-.14,3.06-1.41,3.3-1.75.25-.34,3.79-13.19,3.79-13.19-1.26-2.04-1.45-6.22-1.45-6.22-.49-.73-2.43-1.94-3-1.94-.83,0-1.71,1.71-2.63,3.2-.92,1.51-8.01,11.75-9.07,12.97-1.08,1.2-1.21,2.03-1.21,2.03,0,0,2.44,1.77,4.65,4.76,5.24,7.08,6.12,13.33,6.12,13.33h0m62.88-66.22c-.1.49.67,2.14,2.24,3.1,1.55.98,6.98,2.04,10.48,2.04s6.4-1.16,6.4-1.16c-.88-1.17-.98-3.12-.98-3.12.98-5.62,3.49-6.01,6.51-6.4,3-.39,4.65,2.24,4.65,2.24-.39-3-.96-4.95-3.01-5.04-2.04-.1-5.04,2.32-6.22,3.79-1.16,1.45-2.32.47-2.81,1.75-.49,1.26.29,4.65.29,4.65l-.49.67-7.38.98c-.2-.59-1.75-1.16-2.51-.98-.78.2-2.24,0-2.43-.48-.19-.49-.49-.88-1.65-.88s-.1-1.55-.1-1.55l4.57-4.46-1.37-.78s-1.75.78-3.2,1.08c-1.45.28-2.42-.2-2.42-.2.57,2.42-.49,4.26-.59,4.75m-28.17-13.9c.62.4,1.23.1,1.75-.11.52-.2,1.33-.2,1.84-.41.52-.21.92-3.38,1.03-4.62.1-1.23,1.12-1.12,1.12-1.12l.92-6.05,1.13-.82s.73-11.81.73-12.62-.31-1.03-.73-1.03-.62-.92-.62-.92v-1.23c-1.23.1-2.56-1.44-3.28-2.46-.71-1.03-2.56-1.13-2.56-1.13v-5.95c.71-.5,2.36-.41,3.17-.31.83.11,1.44-.2,1.44-.2v-.73c-1.13.41-5.95.31-5.95.31-.83,8.93,0,39.4,0,39.4h0m.78-45.87c1.4.2,2.54-.6,3.34-1.8.41-.34,1.13-.47,1.2-1.01-.73-.53-1.73-.07-2.47.14-1.2-.6,0-1.87-.53-2.74-.79-.07-1.4-.48-2.01-1.01-.06-.34.14-.67.33-.94-.19-.14-.26-.34-.46-.34l-.27,6.01c.27.67-.07,1.34.87,1.68h0m-12.7,216.51h0v.07s0-.07,0-.07m-40.16-46.44h0s-.01.06-.01.06v-.06m-35.2-2.8s0,0,0,0h0s.05.03.05.03l-.06-.02m200.39-2.22l.02.02h0s-.01-.02-.01-.02m-19.3-2.66h0s.04.06.04.06l-.04-.06m-177.48-.7l.07.03h0s-.06-.03-.06-.03m201.27-1.51h0s-.06.02-.06.02l.06-.02m-203.01-.26h0s.06,0,.06,0h-.06m194.66-.74h0s.06.01.06.01h-.06m11.65-.07l.03.04h0s-.04-.04-.04-.04m-11.66.06l-.02-.07.03.07h0m36.7-15.37h.06s-.06,0-.06,0h0m-259.01-2.03h.04s0,.02,0,.02h0s-.05-.02-.05-.02m257.53-.54l.07.03h0s-.07-.03-.07-.03" fill="#231f20"/><path d="m142.96,10.69l.13,2.81c-1.94-.2-4.21-.47-6.21-1-.4-1.2-.53-2.61.13-3.61,2.07.4,4.41.53,5.95,1.8h0Z" fill="#00b6f1"/><path d="m129.73,9.42c0,1,.8,3.07-.67,3.21-2.21.07-4.01,1.07-6.15,1.27-.67-.87.07-2-.13-2.94.67-.67,1.74-.4,2.41-1.07,1.4-.27,3-1.13,4.54-.47h0Z" fill="#00b6f1"/><path d="m142.96,20.45l.13,4.61c-2.14-.33-4.14-.47-6.41-1-.67-1.47.13-3.14-.13-5.14.87-.2,1.94-.2,2.8,0,1.34.2,2.48.8,3.61,1.54h0Z" fill="#00b6f1"/><path d="m129.59,18.91c.67,1.8-.07,3.21.13,5.14-2.34.6-4.75,1-7.08,1.81v-4.75c2-1.67,4.28-1.94,6.95-2.2h0Z" fill="#00b6f1"/><path d="m135.01,9.42c.53,1.6-.67,4.41,1.54,4.75,2.27.6,4.68.47,6.55,1.94l-.13,2.14c-2.41-.54-4.74-1.34-7.35-1.4-1,1.2-.4,3.34-.6,4.68l-.27,2.41c-1.4-.54-4.28,1.27-3.61-1.54-.13-1.6,1.27-4.21-.8-5.41-2.54.4-5.21.73-7.55,1.67v-2.54c2.54-1.07,5.15-1.87,8.09-1.94l.4-.4v-4.61c.93-.73,2.34-.27,3.47-.4l.27.67h0Z" fill="#ef3e2e"/><path d="m187.59,18.25l2.81-.47v.27c-5.08,6.42-12.5,7.75-19.78,9.09-9.16,1.47-17.38-.8-26-1.8-.53-1-.2-1.87-.26-3.07,0-3.48-.13-6.42.13-10.56l.4-.6c12.97,6.01,27.8,10.22,42.7,7.15h0Z" fill="#ef3e2e"/><path d="m76.33,75.65c3.61,4.54,10.09,7.62,10.29,13.76-.87.6-1.94,1.74-3.34,1.14-1.27-.87-2.47-3.14-4.41-2.27-1,.6-1.6,1.8-1.14,2.94.4.4.4.94.53,1.4-1.07-.2-1.47-1.34-1.6-2.21.27-.74-.4-1.87-1.13-2.41-.87-.13-1.74-.27-2.41-.8-.87-1,1.34-3.07-.8-2.81-1.4,1.47-1.6,4.68-4.35,3.88-.8-1.34-2.4.53-3-1.34-.94.27-1.94.07-2.67-.47-1.27-1.34-1.47-3.07-2.34-4.54h-.27c.07,3.14,1.47,6.35,4.54,8.15l.13.47c-.6.74-2.07-.33-2.21.67,1.2.67,2.61,1.07,4.01.67-.27.93-2.54.53-1.2,1.54,1.2.13,2.27-.67,3.47-.4v.4c-.27,0-.4.33-.6.47,0,.2.27.33.47.53.93.13,1.74-1.4,2.6-.27,8.75,3.67,16.91,12.16,18.65,21.52,2.61,2.81,2.94,6.68,3.47,10.16.13,2.6-.14,5.01-.8,7.22-.33-2.34.53-5.35,0-7.62-.2-.94-.13-2.27-1.14-2.68-1.07.87-.2,1.6-.27,2.68-.2,2,.54,4.61-1.27,5.68-1.14,0-1-1.2-1.4-1.94.07-2.54.8-6.82-1.67-8.49-.47.67.27,1.54.4,2.2.07,2.41-.07,4.68-.4,6.82.07,1.14.87,1.87,1.54,2.67,3.74,3.68,8.48,7.89,11.43,12.36,2.47,4.88-1.34,9.76.53,14.9.07,2.2-.53,4.54-1.13,6.68,0,3.47,1.61,9.42-2.2,11.69,1.27-3.01,2-6.62,1.67-9.89-.27-.07-.47-.54-.67-.13-.67,1.2-.93,2.61-1.4,3.88-.13-1.67,1.67-3.01.4-4.61-.6,0-1.14,0-1.54.47.07.07-.07-.6-.4-.74-1,.2-1.53,1.54-2.47,1.8-.6,0-1,.6-1.54.6,1.47-1.6,3.54-2.8,4.54-4.74.67.07,1.54-.07,1.4-.87-.34-.93-.47-2-.94-2.87,1.2-3.68,3.07-8.15.53-11.83.67-4.81-4.34-6.48-7.48-8.22-1.67-.2-3.34-1.07-4.75-2.21l-.6.67c-.67-.33-1.07-1.34-1.94-1.4-.67-1.87-1.74-4.14-3.74-4.88-2.34.53-4.34-.67-6.22-1.67-.47.27-.33.87-.2,1.14,1,2.94,4.68.93,5.75,3.87,1.61,2.74,3.61,4.81,6.68,5.61,1.2.73,2.74.8,4.01,1.47-2.67,2-6.42,2.34-9.62,1.67-3.01,0-6.15-.87-9.02-1.8-.73-.53-1.8-.53-2.47-1.2-1.67-1.2-4.08-2.4-4.21-4.74-.33-1.67.47-2.8,1-4.34,2.87,3.34,7.22,4.54,11.69,4.88.07-.13.34-.2.27-.4-1.8-1.2-4.21-1-6.15-1.8-2.14-.87-4.75-2.41-5.55-4.88-.07-1.94.6-3.61.53-5.55,3.48.73,7.22-.27,9.09-3.34.8-2.07.4-5.01-1.27-6.82-1.14-.74-2.27-1.4-3.61-1.54,1.13-.4,2.47-.13,3.61.53,1.54.27,1.6,4.01,2.94,1.4.2-1.47-.27-2.94-1.13-4.14,1.47-.47.07-1.8.13-2.67-.87-1.07-2.41-1.74-1.94-3.21-1.2-2.34-3.81-4.21-6.28-4.01.53-.27,1.27.07,1.67-.53-1.27-3.07-5.28-.27-6.82-3.34-5.88-5.48-5.75-12.76-3.88-20.05.94-2.34,2.94-4.41,5.15-6.08,1.54-.47,3.81,0,4.88-2,2.74-1.2,5.01,1.34,7.22,2.67.6,1.2,2.14,2.07,2.34,3.47h0Z" fill="#bcbec0"/><path d="m111.68,104.71c2.81,1.6,3.74,4.48,6.68,5.55,1.8,1.07,3.74,2.47,5.15,4.01-.67.2-1,.87-1.67.87-1.2-1.94-3.07-3.47-4.88-4.61-.27,1.4,1.74,2.14,2.21,3.34l.87,1.4c-.47.13-1.6,1.2-1.67-.13-.87-1.8-1.67-3.67-3.34-5.14-.33,0-.8,0-.87.4l1.67,5.41-.27.33c-1-1.87-.4-5.01-2.47-6.28-.74,1,.07,2.14.4,3.07.2,1,.4,2.07.67,3-.33.6-1,.07-1.54,0,.2-2.41-.27-4.88-2.07-6.61-2,.4-2.2-2.27-4.01-3.07-2.14-1.27-4.95-2.94-7.35-1.27-.94,1.27-3.74.74-2.67,3.08l.67,1.8c-1,4.81-.74,9.62-2.34,14.17-.47-1.61-.74-3.48-1.4-5.15-.2-2-2-3.87-.94-5.95,1.07-3.07,1.67-6.42,2.61-9.62.27-1.74,2-3.07,3.61-3.48,4.88.34,8.42,3.81,12.96,4.88h0Z" fill="#bcbec0"/><path d="m181.99,100.87c0,.13-.06.33.14.4l.13-.27c1.99,2.7,1.92,6.52,3.51,9.5.16,1.67,1.46,3.32.62,4.87-1.36,2.63-1.64,5.64-2.19,8.53-1.55-4.59-1.85-9.93-2.73-14.66.52-.95,1.17-2.16.48-3.22-.27-.33-.68-.46-1.14-.38-1.56-1.04-3.38-1.95-5.44-1.31-2.66.98-4.7,2.82-6.33,5.12-.2-.26-.67-.12-.94-.12-1.71,1.7-2.2,4.12-1.83,6.38-.46.41-.99.55-1.53.49-.17-2.27,1.13-3.9,1.3-6.04l-.47-.39c-1.78,1.57-1.47,4.17-2.23,6.26l-.26.21c.03-1.94,1.21-3.83,1.44-5.91-.21-.33-.54-.26-.87-.25-1.58,1.63-2.67,3.72-3.51,5.74-.33.21-.94-.12-1.28-.38.39-.67.84-1.42,1.23-2.09.25-.87,2.25-1.58,1.49-2.7-1.71,1.43-3.69,2.87-4.79,4.83-.47-.26-.88-.65-1.42-.78.58-1.21,1.84-1.91,2.76-2.86.87-.08,1.05-.89,1.78-1.3,1.92-.84,3.57-2.27,4.81-4.09.79-.55,1.85-1.3,2.57-1.98,5.13-.76,9.23-7.04,14.57-4l.14.4h0Z" fill="#bcbec0"/><path d="m137.68,110.13c.27,1.07.8,2,.87,3.21.13,1.47-.27,2.67-.73,3.88-1.54,4.61-6.62,7.68-10.82,9.35-7.29,2.34-15.77,2.74-22.66-.74-2.74-1.94-5.88-4.41-5.48-8.22-.4-1.6.73-2.6,1-4.01.54-1.07,1.8-2.07,3.07-2.21,1.4-.4,2.34.67,3.34,1.07.93.8,1.07,1.94,1.4,2.94.53,1.8-3.48,4.14,0,5.14.67.13,1.33.27,2.07.4,1.67.67,3.67.47,5.55.74,5.48-.4,11.62-1.27,14.9-6.28.94-1.54-1.2-2.61-.87-4.01-.2-1.07.26-1.8.73-2.81.94-1.4,2.61-1.54,4.14-1.27,1.27.67,2.81,1.4,3.47,2.81h0Z" fill="#bc9b6a"/><path d="m149.37,109.59c0,1.4.13,3.21-1,4.27-.4,2.07,1.6,3.34,2.94,4.61,5.81,3.27,14.77,4.41,20.98,1.27.33-1.34-.47-1.8-.94-2.81-.07-1.74-.47-2.94.8-4.34,1.27-1.2,3.14-1.74,4.88-1.07,2.6,1.8,3.21,5.21,2.6,8.22-1.14,3.67-4.74,6.08-8.29,7.22-.6,0-1.4.4-2.14.67-10.43,1.87-21.92-.33-27.93-9.02-1.61-2.74-1.21-7.08.73-9.62,1.34-1.34,3.27-2.01,5.15-1.54.74.6,1.8,1.14,2.2,2.14h0Z" fill="#bc9b6a"/><path d="m140.88,106.79v.54c-3.47.87-6.15-2.07-7.95-4.54,1-.87,2.34-.13,3.48-.13,1.87.67,3.61,2.34,4.47,4.14h0Z" fill="#bc9b6a"/><path d="m146.56,104.98c-1.14.13-2.34.87-3.61,1l-2.2-2.67c.94-.53,2.41-1.2,3.61-.53,1,.4,1.67,1.34,2.2,2.2h0Z" fill="#bc9b6a"/><path d="m132,105.12c-1.4,0-1.94,1.07-3.2,1.27l-3.21-3.34.13-.4c2.6-.47,4.88.47,6.28,2.47h0Z" fill="#bc9b6a"/><path d="m161.34,104.31c.4.6.4,1.74,0,2.34-.74.54-1.47,1.4-2.41.8-1.8-.93-2.34-2.61-3.47-4.14,1.34-.67,2.54-.53,3.94-.53.6.47,1.53.67,1.94,1.54h0Z" fill="#bc9b6a"/><path d="m154.39,105.25c0,.74,1.2,1,.93,1.8-1.27.87-2.94.74-4.28.14-1.54-.74-2.47-2.54-3.21-4.01,1.4-.87,2.14-.07,3.74-.13,1.07.47,2.07,1.2,2.81,2.21h0Z" fill="#bc9b6a"/><path d="m126.12,106.39v.4c-2.54.6-5.74.94-7.35-1.4-.27-.67-.07-1.47.27-2.07,2.88-1.4,5.35.74,7.08,3.07h0Z" fill="#bc9b6a"/><path d="m131,63.95c.4.74-.27,1.87.53,2.41,1.67-.2,4.48,1.14,5.15-1.14v-1.14c1.2-.4,2.67-.27,3.94-.13.54.74-.13,2.34,1.07,2.41,1.4-.6,3.94.73,4.48-1.14v-1.27c1.6-.67,3.48.13,5.15-.13.33.53.6,1.2.27,1.8-.73.27-1.8,0-2.07,1,0,1.14-.8,2.14-1.67,2.61-.73.67-2.41-.2-2.34,1.27-.13.54.2,1.2-.33,1.54-4.08.47-8.62.2-12.5-.13-.54-.67.07-2.14-1.27-2.54-1.14-.33-2.67-.13-3.34-1.33-.2-.67-.07-1.4-.8-1.87-.4-.33-1.14.2-1.4-.4-.73-3.27,3.54-1.8,5.15-1.8h0Z" fill="#bcbec0"/><path d="m145.03,74.78c-.27.87.8,2.94-.94,2.54l-10.69-.13c-.67-.8-.07-1.8,0-2.67,3.47-.2,7.62-.2,11.36,0l.27.27h0Z" fill="#bcbec0"/><path d="m145.16,79.26l.33,9.75c-3.47.13-8.22,0-12.7-.13.13-3.21-.33-7.22.4-10.16l.47-.27,11.09.13.4.67h0Z" fill="#bcbec0"/><path d="m146.43,90.41c.67,1.07.2,2.67.54,3.87l-.54.27-15.17-.13c-.27-1.27,0-2.67.26-3.88,5.28-.6,9.82-.07,14.9-.13h0Z" fill="#bcbec0"/><path d="m148.5,96.76c.4.73.4,2.01,0,2.67-6.08-.33-12.83.13-19.04-.4-.33-.67,0-1.67.27-2.41,6.41-.2,12.83-.2,18.78.13h0Z" fill="#bcbec0"/><path d="m130.19,48.78c-1.07,1.2,1.47,2.87-.6,2.94-.53-2.67-4.47.27-3.48-3.07-.27-.53-1.47-.47-1.2-1.07.67-.2,1.4-.74,1.8-1.4-.73-1.4-2.14.6-2.94-.27.2,0,1.8.13,2.2-.74-.13-1.54-2.14-.4-3.07-.94l-.27.4c-.47-2.14.8-3.81.6-5.68-.54-.67.27-1.13.4-1.67,1.33,4.08,7.82,6.48,6.55,11.49h0Z" fill="#bc9b6a"/><path d="m159.4,48.12c.13.6-.2,1.4-.74,1.94-1.13,1-3.28.74-3.61,2.34,1.2,1,2.07-.47,3.21-.53.94.07,1.87-.07,2.67-.53,1.07-.94,1.41-2.14,1.94-3.34.33-.27.8-.13,1.2-.13-1.67,1.94.6,5.75-2.34,6.95-.94.4-2.34.2-3.21-.53-.6-.6-1.14-1.34-1.94-1.27-.8,1.4,1.74,2.14,1.54,3.61.2,1.34-.4,2.54-1.54,3.21h-1.94c.67-.4,1.8-.54,2.21-1.54.6-1.34-.47-2.34-.67-3.47-1-1.27-2.67-1.8-3.88-1.54-1.87.47-4.21,1.47-4.61,3.61-.27,1.54-.27,3.61-.4,4.88-1.14-2-1-5.08.4-7.08.87-1.6,3.08-1.13,3.48-3.07,2.21-2.07,6.35-.8,7.35-4.34.54,0,.54.6.87.87h0Z" fill="#bc9b6a"/><path d="m132.93,52.73c-.2.94-.8,2.27,0,3.14,1,.13,1.4-1.14,2.27-1.47l3.01-.6c-1.34.87-2.61,2.21-4.01,2.94-.47.27-.6-.4-1-.4-.8.47-.6,1.74-1.67,2.07.33-.6.67-1.34.47-1.94-.2-.13-.33-.4-.6-.27-.73.67-.73,1.6-1.54,2.21-.2-.4,0-1.21-.67-1.54-1.14.13-.54,3.07-1.94,1.27-.74-.07-1.07.87-1.67,1.07.27-.2.27-1.34-.54-1.47l-1.4,1.07-.13-1.27c-1.07-.47-1.74.87-2.54,1.27-.4-.74,2.41-1.2.87-2.21-.87-.13-1.27.94-2.07.94.4-1.27,1.94-.8,2.34-1.94,1.2.73,3.01.47,4.14-.27,1.74-2,4.35-2.54,6.68-2.61h0Z" fill="#bc9b6a"/><path d="m140.48,55.6c-.4,1.47-.53,3.81.13,5.28v1c-1.8.33-4.28-.13-5.61.4-.33.94.13,1.67-.4,2.54l-1.67-.13c-.53-.87.6-2.47-.94-2.81-.33.13-.87.13-1.13-.27-.13-1.2,1-1.47,1.8-1.94,1.27-1.6,3.27-2.14,4.61-3.61,1.07-.2,2-1.07,2.61-2.14,1.34-.07.2,1.07.6,1.67h0Z" fill="#bc9b6a"/><path d="m145.76,32.14c.47-.27.4-1,1.07-.74,1.33.87.6,3.88,2.94,3.07.8,1.4-2.87,1.14-1.4,2.81.47-.13,1.14-.27,1.27.4-.07.67.13,1.6-.67,1.8h-.33c0-.54.73-1.2-.14-1.54-.6-.13-.8.33-1.07-.27.07-.33.67-.67.27-1.14-.73-.13-1.4-1.4-2.2-.53-.47-.27-.2-1.07-.87-1-.53-.13-1.13.27-1.54.74-.2-1.74-.33-3.14.14-5.01,1,.2,1.53,1.34,2.54,1.4h0Z" fill="#bc9b6a"/><path d="m122.91,34.75c-1.6.6.33,2.41-1.07,3.21.07,1.14.4,2.07-.27,3.07-1-.67-1.47-1.87-1.94-2.94.4-1.34.74-2.87,1.6-3.88l.34-1c.67.2.87,1.07,1.33,1.54h0Z" fill="#bc9b6a"/><path d="m140.15,35.35c0,.2,0,.74.47.94h.4c.14.4-.4.33-.4.67-.07.67.47,1.27,1.07,1.4.47.07.8,0,1.13-.27-.54.2-1.27.8-1.94.53-1-.47.27-2.21-1.13-2.34-.94.8-.4,2.34-1.07,3.07-.27,1.14-1.34,2.14-.74,3.47-.33,1.34-1.54,1.47-2.61,1.94-1.2.27-2.47.27-3.48.8.47-2.81,4.55-1.6,5.28-4.54-.93-.74-1.67.67-2.54.94l-1.4.47c-.13-.67.47-1.27.87-1.8.8-.27,1.73-1.2,2.6-.6.73-.07.4-1,.33-1.4-.73-.67-.47-1.54-.13-2.34l.27-.27c.33.53.87,1.07,1.54,1.14.8-.8-.54-2.21.53-3.08.54.4,1.54.2.93,1.27h0Z" fill="#bc9b6a"/><path d="m140.35,45.17c-1.07,1.4-2,2.54-2,4.21.27.33.6.47,1,.4-.93,2.14-3.41,1.8-4.87,3.21.07-1.94,3.07-2.81,3.21-5.01-.2-.27-.4-.33-.67-.27-1.14,1.34-2.6,2.67-3.61,4.14-.8-1.74,3.01-3.08,2.47-5.68,1.67.2,2.94-3.54,4.48-1h0Z" fill="#bc9b6a"/><path d="m134.34,46.44c.47,1.94-2.21,2.67-2.61,4.28-.67-.87-.53-1.61-.2-2.74.4-1.2,1.67-1.47,2.81-1.54h0Z" fill="#bc9b6a"/><path d="m142.82,41.7c-.07.33-.4.47-.54.73h-.6c-.14-.4.27-.6.33-.87.27.07.6-.07.8.13h0Z" fill="#bc9b6a"/><path d="m147.97,43.1c.2.4-.27.4-.4.53-.73,0-.8-.8-1-1.34,0-.27.07-.74.4-.6,0,.6.47,1.2,1,1.4h0Z" fill="#bc9b6a"/><path d="m145.9,44.11c.6.53,1.14,1.07,1.07,1.94l-.27-.13c-.07.4.27.8-.27,1.2-.74-.74-.2-2.61-1.54-3.01-.87.6-.07,1.54-.13,2.34-.6-.67-1.94-1-1.4-2.07.67-.4.93-1.47,1.8-1.67l.73,1.4h0Z" fill="#bc9b6a"/><path d="m143.69,48.65c-.67-.6-.47-1.54-1.27-2.07.67.33,1.34,1.2,1.27,2.07h0Z" fill="#bc9b6a"/><path d="m142.42,50.72l-.4.87c.33-1.4-2.34-2.54-.2-3.61.4.87,1,1.8.6,2.74h0Z" fill="#bc9b6a"/><path d="m140.68,41.1l-.62-.47s-.15.54.16.93c.31.39.47-.47.47-.47h0Z" fill="#bc9b6a"/><path d="m144.22,40.55s.81-.6,1.44-.62c-.22.02-.88.04-.88.04,0,0-.32-.51-.32-1.48-.19,1.05-.51,1.71-.51,1.71l.28.34h0Z" fill="#bc9b6a" fill-rule="evenodd"/><path d="m215.26,71.04c2.88.87,5.55,3.87,6.55,6.68,1.94,7.48,1.27,15.91-5.28,20.85-1.94.47-4.55,0-5.41,2.14.2.87,1.14,0,1.54.67-2.28-.27-4.21,1.34-5.75,3.07-.13.73-.8,1.47-.53,2.21-1.34,1.14-2.4,2.41-2.21,4.14.13.27.4.33.67.33-1,1.4-1.67,3.34-.8,4.81.13.2.27.4.54.34.87-1.54,1.94-2.61,3.61-3.07h2.07c-1.8.53-4.01,1.27-4.68,3.34-.87,1.6-.87,3.67,0,5.28,1.6,2.27,4.28,3.74,7.35,3.47l1.4-.4c.14,2.61,1.6,5.81-.74,7.75-2.6,3-6.35,3.41-9.89,4.21-.14.13-.4.27-.4.53,1,.8,2.2-.33,3.47-.13,3.07-.93,6.15-1.8,8.49-4.47.73,1.74,1.54,4.08.4,5.88-1.33,1.54-3.21,3.08-5.14,3.74-4.67,2.21-10.36,3.34-15.84,2.47h-.4c-.27-.33-.93-.33-1.4-.53-.47-.67-1.87-.2-1.8-1.27,4.48-1,9.02-3.34,11.16-7.62,1.27-2.07,5.01-.8,5.28-4.08-.74-.53-1.4.47-2.14.74-1.6.4-2.87,1-4.54.67-2,.8-3.01,3.01-3.47,4.88-.87.07-1.27,1.07-1.94,1.4-1-1.47-2,.94-3.08,1.14-1,.27-1.6.07-2.54.53-2.54,1.54-6.22,2.74-7.09,6.08.27,2.94-2.14,5.35-1.2,7.95.27,2.81,3.01,5.68.8,8.49-.27.6.4,1.07.8,1.14.87-.34.93.54,1.27.93,1.14,1.34,2.74,2.41,4.08,3.61-1.54.13-3.01-1.14-3.94-2.21-.2.2-.67.2-.67.53,1,1.74,1.8,4.08,3.87,4.75.27.2.07.6.4.67.13-.73,1-.27,1.41-.27.13.2.33.27.27.47-3.14.87-4.28-2.54-5.82-4.47.07-.6-.2-1.14-.67-1.41-.6,0-1.27,0-1.4.53.67,3.34,1.6,6.88,4.55,9.36-3.74-1.67-3.41-6.15-5.15-9.16-.4-.2-.74.27-.8.54.13,3.41.54,6.75,2.07,9.56-2.14-.4-2.27-2.87-2.74-4.55-.33-3.88.87-7.62-.74-11.03.07-4.07.54-8.89-.4-13.03.34-1.8.27-3.81,1.14-5.41,1.54-2.01,3.08-3.94,4.95-5.61l.2.13.53-1.07,6.42-6.41c.33-2.74-.6-6.02.13-8.89,0-.47.8-1,.13-1.41-1.14.47-1.27,1.8-1.67,2.81-.27,2.61.53,5.14-.73,7.35-1,.47-1.41-.07-1.67-1,0-2.07-.6-3.94,0-5.81.07-.47-.06-.87-.4-1.27-1.4.33-.73,2.01-1.07,2.94v7.35c-1.6-6.15-1.14-12.7,2.74-18.04,1.54-8.15,8.09-16.11,15.84-19.51,1.47-.54,2.94-2.74,4.61-1.2.27,0,.53-.07.67-.27.13-.6-.53-.47-.67-.87,1-.93,2.34.74,3.87.13.27-.07.13-.33.13-.53-.47-.4-1.07-.33-1.54-.87,1.47.47,3.14-.07,3.95-1.07-.74-.47-1.47.33-2.07-.27.4-.87,1.47-1.8,2.34-2.54.87-1.94,2.81-3.81,2.07-6.08-1.07.33-.87,1.67-1.27,2.47-.67.87-.73,2.27-2.07,2.47-1.14,0-2.07-.07-2.94,1-1.07-.87-1.87,1.14-3.01.4-2.14-.47-1.87-3.14-3.61-4.01-.94,1,.67,3.21-1.4,3.47-1,.2-2.14.6-2.54,1.67.07,1.27.13,2.67-1.2,3.21l-.47-.13c.47-.87,1.21-1.8.74-2.94-.13-.73-1-1.07-1.54-1.4-2.81-.33-4.47,4.81-7.22,1.54-.47-7.68,9.02-10.09,11.36-16.37,2.14-2,4.61-4.28,7.69-4.08,1.27.8,2.34,2.21,4.14,1.94h0Z" fill="#bcbec0"/><path d="m217.93,145.01c-4.67,5.08-11.16,7.15-17.84,6.68-1.67-.33-2.81-.8-4.41-1.4-1.74-.87-2.34-2.74-3.21-4.28,7.22,1.54,14.57.07,20.45-3.47,1.33-1.14,2.74-2.2,4.14-3.34.67,1.8,2.21,3.87.87,5.81h0Z" fill="#bcbec0"/><path d="m220.54,147.41c.54.94.47,2.27.27,3.34-2.21,4.08-6.88,5.75-11.23,6.48-4.75-.07-10.96,1.07-12.96-4.68l-.14-.13c1.27-.13,3.01.87,4.75.67,6.88.53,13.57-2.34,17.91-7.49,1.07.13.8,1.27,1.4,1.8h0Z" fill="#bcbec0"/><path d="m223.35,154.23c.53,2-1.14,3.14-1.94,4.54-4.88,3.67-12.36,6.15-18.11,2.67-.74-1.07-1.6-2.07-2.21-3.21,3.14.27,7.28,1.34,10.69.13,3.07-.67,5.68-2.27,8.22-4.28.67-.74,1.34-1.87,2.2-2.14l1.14,2.27h0Z" fill="#bcbec0"/><path d="m225.55,159.91c-.54,3.54-4.55,6.42-7.76,7.35-3.2.94-7.48,1.47-10.15-.93l-1.67-1.94c2.67-.07,6.41.27,9.15-.87,2.14-.47,4.28-1.94,6.28-3.08,1.14-1,1.74-2.54,3.07-3.34.6.8.53,1.94,1.07,2.8h0Z" fill="#bcbec0"/><path d="m226.96,164.05c.53,1.54.27,3.47-.87,4.61-2.67,3.61-7.22,4.68-11.62,3.88-1.8-.53-2.94-1.54-4.08-3.01,6.02.67,12.83-1.4,15.57-7.29.67.27.6,1.27,1,1.8h0Z" fill="#bcbec0"/><path d="m227.76,173.41c-2.54,3.28-7.22,3.61-10.83,2.94-1-.4-1.67-1.4-2.21-2.27,4.94.74,10.42-1,13.23-5.68.73,1.47.87,3.61-.2,5.01h0Z" fill="#bcbec0"/><path d="m228.76,178.69c-2.67,1.87-6.68,2.41-9.76,1.14-.73-.27-.8-1.14-1.21-1.67,3.95.13,8.49-.33,11.1-4.08.6,1.34.73,3.41-.13,4.61h0Z" fill="#bcbec0"/><path d="m228.36,183.7c-2.07,1.27-5.35,1.13-7.68.13-.4-.6-1.07-1.27-.8-1.94,3.27.6,6.61-.27,9.29-1.94-.27.94.6,3.01-.8,3.74h0Z" fill="#bcbec0"/><path d="m228.09,187.31c-1.87,1.54-4.81,1.2-6.82.27-.8-.6-.53-1.14-.6-2.07,2.27.67,5.61,1.2,7.82-.4.06.67-.07,1.54-.4,2.21h0Z" fill="#bcbec0"/><path d="m227.36,189.25c-.33,1.33-1.07,2.47-1.8,3.61-1.54.27-3.34.33-4.41-.94-.4-1-.93-1.74-.33-2.81,2.07.67,4.48,1.14,6.55.13h0Z" fill="#bcbec0"/><path d="m205.1,200.42c-.41-1,.07-2.01.72-2.81,3.62-2.67,7.89-2.67,11.96-4.34l.14.21c-.94,1.86-3,3.46-4.74,4.54v.39c1.86.6,3-1.47,4.74-1.8.2,1.15,1.47,1.15,2.21,1.27.13-.13.41-.27.41-.53-.74-.53-1.61-.81-1.82-1.8.34-1.01.48-2.07,1.41-2.81.6.93,1.73,1.33,2.81,1.54.53-.41,1.27-.27,1.8-.14-2.88,3.94-6.82,6.96-11.29,7.75-1.48-.03-2.95.22-4.32.22-1.52,0-2.91-.31-4.04-1.68" fill="#bcbdc0"/><path d="m208.84,65.49l-.8-.8-.4.53c.2.13.07.4.13.54-.47-1.2-.87-2.61-.74-3.87.94,1.07,1.67,2.2,1.81,3.61h0Z" fill="#bcbec0"/><path d="m205.71,66.76c.13.27-.8-.54-1,.27v.67c-.6-.67-1.2-1.54-.8-2.47.73.13,1.47.8,1.8,1.54h0Z" fill="#bcbec0"/><path d="m182.18,123.89c.4,3.01,1.87,5.55,2.47,8.49-1.34,1.14-3.08-.67-4.01,1.14-2.21,2.74,1.07,7.28-2.34,9.56-1.94,4.21-.6,9.56-.46,13.63-.47,3.07-.4,6.62.6,9.89-3.07-12.3-9.02-25.39-3.48-38.09,1.47-2.4,3.81-5.01,6.82-5.01l.4.4h0Z" fill="#bc9b6a"/><path d="m215.26,63.82c.4,1.34-1.34,2.54-.13,3.34,1.47-1.07,1.41-3.88,3.74-4.01,0,1.54-.94,3.01-1.2,4.54l.27.33c1.67-1,1.67-3.21,3.75-3.54.13,1.74-1.14,3.21-1.67,4.75,1.07.47,1.4-.94,2.34-1.4.6-.2,1.07-.74,1.8-.54-.53,1.4-2.4,2.4-2.07,3.88,1.34,0,1.94-2.2,3.47-2.07-.67,1.47-2.81,2.27-2.21,3.88,1.47-.27,2.21-2.27,3.87-1.94-.4,1.4-3.27,2.34-2.34,4.08,1-.27,1.67-1.54,2.88-1.27-1,.8-3.01,1.67-2.61,3.21,1.47-.4,2.67-2.21,4.28-1.54-.2.47-1.07.67-.94,1.4.14.73.94.54,1.4.94-1.13-.6-2.34-.07-3.21.6.27,1.07,1.54.13,2.08.8-.34.13-.8,0-1,.4.33,1,1.6,1.27,2.67,1.27,1.14.53,1.67,1.67,2.21,2.67-1.87,0-2.67-1.67-4.41-1.8-.4,0-.6.6-.27.8,1.54,1.6,4.48,2.61,4.54,5.14-1.67-.8-3.14-2.14-5.14-2.21-.54,1.34,1.27,1.4,1.94,2.07.94.87,1.74,1.8,1.94,2.94-1.2-1.2-2.81-2.67-4.55-2.54-.27.2-.13.6-.13.87.2.6.87.27,1.21.53,2.87,1.87,2.4,5.41,3.67,8.09-2.8-.93-2.67-4.41-5.34-5.41-.94.93,1,1.8,1.27,2.74,1.33,2.41,2.21,5.75.87,8.35-3.74,3.74-9.42,5.48-10.56,10.96-1.67,3.81-7.48,3.14-7.28,7.95-.93-.8-.33-2.14-.13-3.08,1.47-2.8,5.48-1.67,6.28-4.74-.2-.33-.54-.27-.87-.27-2.47,2-6.88,2.47-7.35,6.42-.13,1,.53,1.74.73,2.67-1.27-.6-2.2-2.14-2.4-3.47.13-1.87,1-3.47,2.81-4.34,2.61-.67,5.68-1.2,7.89-3.34.06-.27,0-.53-.27-.67-1.74.6-3.81,1.2-5.68.53-2-.8-4.28.2-6.02,1.27,0-1.07,1-1.87,1.8-2.54,3.41-1.27,6.75,1.07,10.49.47.4-.4.8-.94.67-1.67.67-.27,1.54-.6,1.8-1.27-.67-.33-1.94,0-2.81-.27-2.34-.87-2.14-4.14-5.01-4.21h-2.47c.87-.8,2.21-.8,3.34-.53,3.07,1.07,3.74,5.95,7.75,4.14.47-.34,1.2-.14,1.54-.8l-.53-.53c-1.34-.2-2.94.33-4.01-.47-1.27-1.6-1.4-3.81-3.34-5.01,1-.13,2.07.27,3.07.73,1.87,2.14,3.95,4.68,7.08,3.61.4-.27,1-.27,1.34-.87l-.13-.4c-1.94-.27-4.95.4-5.95-2.07-.34-.47,0-.93.13-1.4,1.4,1.47,3.54,3.41,6.15,2.67.67-.6,2.14-.4,2.2-1.67-.87-1.14-1.6.33-2.54.27-1.14.07-2.27,0-3.01-.87-1.4-3.61,2.94-5.88,2.48-9.69,1.4-7.42-.34-16.5-7.35-21.18-1.8-1-3.74-1.87-5.75-2.47-.53-1.07.94-1.8,1.4-2.54.2-.73.74-1.4.6-2.34.47.33.74,1.07.93,1.67h0Z" fill="#bc9b6a"/><path d="m215.66,109.33c-2.8.8-5.14-3.68-8.49-1.87,1.27-1.4,3.21-1.27,4.88-.93,1.47.53,1.94,2.67,3.61,2.81h0Z" fill="#bc9b6a"/><path d="m220.41,126.23c-.47,2-1.54,4.95-.13,6.95.6,1.34,1.8,2.27,2.8,3.21-1.07,1.81-2,4.01-.6,5.88.87,1.6,4.14,1.67,2.14,3.87-.53,1.2-.47,2.21-.47,3.61-3.67-8.08-7.15-16.84-6.68-26.13.87.93,1.8,2.2,2.94,2.6h0Z" fill="#bc9b6a"/><path d="m228.49,154.77c-.27,1.6-1.81,3.01-.87,4.75.74,1.34,1.94,2.54,3.21,3.21-.6,1.14-.94,2.47-1.41,3.74-1.74-4.81-2.61-10.02-4.55-14.77,1,1.27,2.41,2.07,3.61,3.07h0Z" fill="#bc9b6a"/><path d="m231.96,171.87l-1.4,1.54c-.33-1.34-.4-2.81-.54-4.21.47,1.2,1.54,1.4,1.94,2.67h0Z" fill="#bc9b6a"/><path d="m180.72,121.57c-.43.12.49-.68.55-1.17.06-.49.31,1.11.31,1.11,0,0-.43-.06-.86.06h0Z" fill="#231f20" fill-rule="evenodd"/><polygon points="206.11 109.73 206.64 109.33 207.04 109.33 206.11 109.73 206.11 109.73" fill="#bcbec0"/><path d="m213.99,120.29c.54.93.2,2.14.33,3.21-.4.6-1,0-1.4,0-.8-.53-1.27-1.47-.87-2.41.33-.47.47-1.2,1-1.47.67-.27.6.6.93.67h0Z" fill="#bcbec0"/><path d="m209.45,74.11c.74-.27,1.6-.07,2.21.4.33.74-.54.8-.8,1.14-2.81.67-5.01,3.61-8.22,2.07.13-.74.73-1.34,1.07-2.07.53-.74,1.27-1.4,2.14-1.67,1.2.07,2.54,1.8,3.61.13h0Z" fill="#231f20"/><path d="m229.16,158.11c-.53-1.8,4.34-4.41,0-4.75-.8-.53-1.8-1.07-2.21-2.07,2.61-.6,5.28-1,8.08-1.27.4.27,1,.13,1.34.6.8.4.6,1.61.47,2.34-.74.74-1.54,1.67-2.27,2.07,0,.27-.53.67,0,.87-1.62.99-4.88,2.07-5.41,2.21h0Z" fill="#bcbec0"/><path d="m238.78,116.68c1.27,1.27,2.14,2.94,3.88,3.74.4-.07.6-.47.74-.8,1.8,2.07,2.54,4.95,3.61,7.48.27,0,.6.07.8-.27.74,1.94.27,3.67.4,5.95,1.34,2.2.47,5.21-.27,7.42-.47,1.87-2.74,2.27-3.21,4.14.67.8,1.21,0,1.94-.13,1.6-.27,2.8.33,3.94,1.14-.54,1.67-1.6,3.48-3.34,4.28-.4.13-.53.53-.4,1,1.33,1,3.27.6,4.41,2.21,1.4,1.47,1.94,3.27,2.68,5.01-1.34.67.06,1.87-.13,2.87-.21,1.54,1.87,3.48.13,4.74-.47,1.74-1.07,3.41-1,5.28-1.47,1.74-1.94,3.87-4.14,4.88-1.2.73-2.34,2-3.21,3.07-.67-1.34.6-2.81.53-4.34,1-3.21,3.01-6.35,1.67-10.09-.87-3.47-3.81-6.15-7.22-7.02-3.34-.4-6.81-.4-9.75.47-.54.13-1.14.27-1.67.4,2.61-.96,3.75-1.49,5.41-2.21,1.47-1,3.61-1.94,3.94-3.94-.2-.8-.27-1.74-.73-2.47-1.67-1.54-3.54-.53-5.55-.87l-2.94.33c5.28-3.54,9.29-9.36,10.29-15.77.67-5.41-.54-11.23-1.07-16.5h.27Z" fill="#bc9b6a"/><path d="m241.26,120.82c2.47,7.35,1.6,15.77-1.4,22.52-.27.53-.87,1.2-1.47.73-.46-1.07.53-2.2,1.07-3.21,2-5.41,3.34-11.63,1.53-17.51-.33-.94-.6-1.94-.27-2.94.2,0,.4.27.54.4h0Z" fill="#231f20"/><path d="m246,131.51v.47h-.4v-.73c.2,0,.4.07.4.27h0Z" fill="#231f20"/><path d="m244.33,141.27c-1,1.27-1.47,3.34-3.34,3.61-.8-1.74,1.74-2.47,2.07-4.14,1.47-2.27,1.8-5.01,2.4-7.68l.4-.27c.13,2.94-.67,5.81-1.54,8.49h0Z" fill="#231f20"/><path d="m250.34,156.84c1.47,2.41,2.2,5.68,1.47,8.49-.54-.73-.07-1.4-.4-2.2-.6-3.41-2.2-6.62-5.41-8.89-.07-.47.2-1.07.87-.87,1.33.94,2.47,2.14,3.47,3.47h0Z" fill="#231f20"/><path d="m249.74,167.53c-.6,3.08-1.4,6.42-3.07,9.22-.2-.13-.27-.47-.27-.87.27-.67.67-1.34.73-2.2.67-2.41,1.54-4.75,1.8-7.35-.13-3.01-1.6-5.75-3.74-8.09-.13-.33,0-.73.4-.8,3.34,2.21,4.61,6.48,4.14,10.09h0Z" fill="#231f20"/><path d="m247.74,194.95c2.64-2.22,6.01-2.82,9.4-3.7.62.3,1.26.26,1.83.31.56.06,1.05.21,1.4.92h0c.51,4.35-3.73,8.28-6.93,10.61h0s-2.4,1.49-2.4,1.49c-1.32-2.98-2.44-6.35-3.3-9.64m-.08-.01s0,0,0,0h0s0,0,0,0h0" fill="#00b1eb"/><path d="m246.53,236.1h0s0,0,0,0c0,0,0,0,0,0m-6.27-21.07c.85-.43,2.28-.31,3.29-.98h0c9.14-3.07,19.68-7.8,23.58-17.86.6.47.87,1.62,1.32,2.47h0c1.48,6.29,5.6,11.89,4.47,18.99h0c-4.38,9.38-14.71,13.73-23.33,17.74h0c-.99.27-1.92.66-3.02.66-2.52-6.84-4.45-13.89-6.31-21.01m32.71,2.63h.03s-.03,0-.03,0m-29.45-3.66h0s0,0,0,0" fill="#00b6f1"/><path d="m231.73,214.08c-.18.52-.78,1-1.2,1.25l.03.06-.03-.06h-.01c-1,.63-1.95,1.26-3,1.72.75-1.02,2.61-2.43,4.21-2.97m.1-.09s0,0,0,0h0s0,0,0,0" fill="#00b6f1"/><path d="m125.95,272.67c-5.34-.2-10.21-.68-15.43-1.29h-.01v.07-.07c-7.67-.34-14.88-1.97-22.23-3.24-19.31-4.2-38.76-9.26-55.85-18.99h0c-2.1-1.53-2.56-3.78-2.18-6.13h0c2.01-7.43,4.88-14.46,6.96-21.9.45-1.72.79-3.44,1.62-4.96,6.42,7.05,14.97,9.48,23.16,12.45,11.21,3.3,22.31,6.75,33.94,8.99h0c9.24,2.5,19.46,3.25,29.48,4.26v-.06s0,.06,0,.06c14.64,1.89,29.48-.4,43.39-1.82,10.83-1.55,21.32-4.06,31.62-7.03,12.16-3.45,24.52-6.36,35.17-13.52h0s.01-.01.01-.01l-.05-.04h0s.05.04.05.04l2.62-3.06.47.48c2.01,8.04,4.61,15.8,7.34,23.51h0c.67,2.77,1.32,6.39-1.05,8.37h0c-18.3,10.53-38.26,15.46-58.97,20.06h0c-4.22.47-8.76,1.35-12.9,1.96v.07s0-.07,0-.07c-11.59,1.46-24.15,2.04-36.39,2.04-3.63,0-7.24-.05-10.78-.14m8.41-21.92c.91.05,1.73.1,1.73,1.44v9.8c0,1.23-.6,1.3-1.73,1.44v.51h11.6l.83-4.61h-.59c-.92,2.29-2.04,3.97-5.07,3.97-1.34,0-1.79-.16-1.79-1.13v-9.57c0-1.78.63-1.81,2.03-1.86v-.51h-7v.51m12-.54l.03.51c.92,0,1.77,0,1.84,1.35l.51,9.79c.07,1.26-.56,1.34-1.69,1.53l.03.51,11.71-.62.59-4.25-.56.03c-1.1,3.12-3.11,3.76-5.09,3.86-1.3.08-1.69-.14-1.73-1.03l-.25-4.9c1.97-.1,3.03.45,3.39,2.97l.52-.03-.35-6.84-.52.03c-.17,2.53-1.16,3.11-3.09,3.18l-.25-4.69c-.04-.88.32-.98,1.42-1.03,2.7-.14,4.15.28,4.75,3.14l.5-.03-.21-4.07-11.56.62m-20.6,11.03c-.06,1.71-.53,1.73-2.01,1.8v.51s7.14.26,7.14.26v-.51c-1.45-.15-1.94-.21-1.87-1.93l.36-10.67c1.38.12,3.44.29,3.73,3.56l.57.02.11-4.07-12.03-.42-.2,4.07h.57c.52-3.21,2.59-3.24,4-3.27l-.38,10.67m-13.75,1.17c.61.04,1.47.79,3.37.93,3.69.25,5.13-2.11,5.25-3.89.15-2.2-1.29-3.47-1.94-3.87l-2.84-1.68c-1.62-.98-1.97-1.44-1.9-2.54.1-1.3,1.24-1.84,2.28-1.77,2.36.17,3.4,2.59,3.66,4.03l.56.04.31-4.4-.6-.04c-.12.38-.25.67-.71.64-.57-.05-1.47-.78-3.07-.89-3.8-.27-4.61,2.44-4.7,3.67-.05.93-.18,2.67,3.13,4.58l1.28.74c1.26.72,2.17,1.27,2.07,2.63-.01.27-.25,2.26-2.65,2.09-2.54-.19-3.54-2.56-3.8-4.62l-.57-.04-.35,5,.59.03c.09-.3.21-.64.6-.64.01,0,.03,0,.05,0m-8.41-.54l6.44.81.06-.51c-.95-.08-1.19-.8-1.83-3.07l-3.14-11.13-.56-.07-5.76,10.48c-.78,1.43-1.15,2.07-2.24,2.11l-.06.5,4.04.5.06-.51c-.67-.11-1.62-.29-1.52-1.06.04-.32.46-1.1,1.19-2.49l4.47.55c.21.68.66,2.25.6,2.8-.08.66-.45.64-1.69.58l-.06.51m59.22-12.55l.06.51c1.12,0,1.65-.02,1.82,1.68l.7,6.72c.24,2.18.82,2.83,1.76,3.51,1.41,1.02,3.3.93,4.17.85,1.2-.13,2.89-.7,3.78-1.89.74-1,.84-2.83.71-4.02l-.67-6.43c-.14-1.33.29-1.6,1.38-1.88l-.06-.51-4.39.46.06.51c1.72-.1,2.04.57,2.17,1.8l.63,6.14c.14,1.29.42,4.38-3.09,4.75-2.88.31-3.16-2.47-3.28-3.62l-.7-6.74c-.18-1.78.43-1.86,1.75-2.06l-.06-.5-6.74.71m15.72.1l1.48,9.5c.21,1.33-.32,1.55-1.48,1.88l.07.51,4.5-.72-.09-.51c-1.48.09-1.95-.24-2.19-1.68l-1.24-8,.04-.02,10.5,9.44.55-.08-1.85-11.8c-.15-.96-.1-1.44,1.3-1.85l-.08-.49-4.26.68.08.51c1.62-.14,1.97.48,2.15,1.68l.95,6.08h-.04l-8.2-7.45-4.18.67.07.51s.08-.01.13-.01c.26,0,.66.16,1.78,1.17m-93.07,2.82c-.59,3.75,1.4,7.43,6.01,8.17,2.53.41,4.28-.6,5.98-2.03l-.52-.61c-1.93,1.61-3.52,1.97-5.06,1.73-.62-.1-2.14-.65-2.74-2.23-.53-1.4-.35-3.34-.15-4.53.53-3.38,1.78-6.33,4.67-5.87,2.25.37,3.55,2.98,3.97,4.83l.5.07.73-4.68-.53-.09c-.28.47-.52.87-1.05.77-.52-.07-1.89-1.3-3.67-1.58-.43-.07-.85-.1-1.26-.1-3.56,0-6.31,2.51-6.88,6.16m106.89-5.34l2.01,9.6c.25,1.23-.49,1.47-1.54,1.79l.11.5,6.86-1.47-.1-.49c-1.1.15-1.9.25-2.17-1.02l-2.01-9.59c-.28-1.34.66-1.57,1.57-1.81l-.1-.5-6.88,1.48.11.49c.29-.05.58-.09.85-.09.58,0,1.08.21,1.27,1.11m-115.51.8l1.17,10.01.53.13,6.62-10.98c.39-.68.94-1.05,1.63-.95l.11-.49-3.56-.83-.11.49c.66.2,1.34.38,1.16,1.18-.1.41-.22.61-.33.79l-3.7,6.22-.03-.02-.59-7.06c-.04-.4-.08-.92-.03-1.14.15-.68.73-.56,1.58-.42l.11-.49-6.11-1.43-.11.5c.94.25,1.1.52,1.26,1.02l.25,2.06-3.66,5.48h-.04l-.7-7.67c-.03-.24-.04-.47.02-.69.17-.72.73-.63,1.44-.54l.11-.49-5.74-1.34-.11.49c.8.31.95.55,1.06,1.59l1.43,12.86.54.13,5.67-8.41.13.03m127.64,5.97c.43,1.64-.01,1.81-1.4,2.3l.12.49,6.9-1.86-.13-.5c-1.45.28-1.93.38-2.37-1.29l-2.74-10.33c1.37-.28,3.38-.72,4.6,2.3l.57-.14-1.09-3.93-11.61,3.15.98,3.94.56-.14c-.43-3.25,1.54-3.88,2.86-4.34l2.74,10.33m-151.97-3.53l11.15,3.66,2.05-3.76-.53-.17c-2.14,2.52-4.25,2.37-6.12,1.77-1.23-.41-1.52-.76-1.24-1.61l1.49-4.67c1.89.62,2.67,1.52,2.12,4l.5.17,2.1-6.53-.5-.16c-1.05,2.3-2.18,2.47-4.01,1.85l1.44-4.46c.27-.83.63-.79,1.68-.45,2.57.85,3.77,1.78,3.34,4.66l.47.16,1.24-3.89-11-3.62-.15.5c.85.34,1.63.65,1.23,1.92l-2.99,9.33c-.39,1.2-1,1.06-2.12.82l-.15.48m159.54-8.39l3.16,9.29c.41,1.19-.15,1.44-1.2,1.94l.17.48,11.08-3.86-.59-4.25-.53.18c-.21,3.31-1.98,4.48-3.84,5.13-1.23.43-1.66.32-1.96-.52l-1.58-4.64c1.88-.65,3.04-.41,4.08,1.91l.5-.18-2.21-6.47-.49.17c.52,2.47-.28,3.31-2.09,3.93l-1.52-4.45c-.28-.82.04-1.02,1.08-1.38,2.56-.89,4.07-.88,5.43,1.69l.47-.17-1.31-3.86-10.94,3.82.17.48c.36-.1.7-.19,1.01-.19.47,0,.86.22,1.11.97m-166.89-6.09l4.19,13.57.53.21,4.42-11.08c.36-.89.64-1.29,2.05-.9l.18-.47-4-1.64-.18.47c1.45.73,1.44,1.44.98,2.57l-2.28,5.7h-.03s-3.24-10.67-3.24-10.67l-3.93-1.61-.18.47c.24.1.52.28,1.03,2.01l-3.56,8.9c-.49,1.25-1.06,1.16-2.24.83l-.18.48,4.22,1.72.18-.47c-1.31-.72-1.57-1.23-1.02-2.59l3-7.53.04.03m178.78,1.6l4.01,9.13c.31.69.18,1.38-.98,1.91l.21.47,5.78-2.62c4.56-2.22,5.26-6,3.76-9.41-1.25-2.86-4.34-5.33-9.47-3.01l-5.59,2.52.21.47c.34-.12.69-.25,1.03-.25.4,0,.77.18,1.04.8m-113.44,34.19v-.07s0,.07,0,.07h0m-9.84-14.76l2.47-4.66,1.41,5.15-3.88-.49m130.26-11.67l-4.1-9.3c-.21-.4-.42-.85.76-1.39,3.14-1.41,5.29,2.35,6.05,4.03,1.94,4.43.85,6.33-1.2,7.26-.27.12-.5.18-.67.18-.4,0-.61-.29-.83-.79m15.17-4.66h0s0,0,0,0m-150.16-2.84h0,0s0,0,0,0m142.8-20.68h0s-.02,0-.02,0h0" fill="#00b6f1"/><path d="m208.76,218.93c-.08-.33.08-.4.42-.51.32-.11.75-.17.97-.45,2.03-.56,3.77-.58,5.96-.71-2.03,1.13-4.15,1.7-6.41,1.7-.31,0-.62-.01-.94-.03m1.35-1.01s0,0,0,0h0s0,0,0,0" fill="#00b6f1"/><path d="m203.49,224.22l3.49.81c-.71.31-2.04.7-3.26.71-.27-.35-.23-1.06-.23-1.52" fill="#00b6f1"/><path d="m239.44,211.24c8.62-2.81,17.58-6.48,22.53-15.31.6-1.47.72-3.27,0-4.74-1.54-2.07-3.75-1.47-5.95-1.41-3.48,1.01-6.94,1.87-9.89,4.08l-.39.94c1.33,3.55,2.33,7.15,3.46,10.76-.67.48-1.61.8-2.33,1.2-1.47-2.14-1.73-5.07-2.95-7.47-.13-2.54-3.73-5.81-.39-7.69,5-2.61,10.49-4.61,16.24-5.15,1.8.07,3.8.81,5.02,2.54,2.46,5.55-1.01,10.83-4.89,14.57-5,4.4-11.08,6.94-17.24,8.94l-2.94.4c.26-.67-.53-1-.27-1.66" fill="#bc9b6a"/><path d="m103.73,237.37c-1.08.27-2.07-.47-3.21-.41-17.51-3.94-34.95-7.75-51.25-15.03-3.8-2.21-10.23-4.88-9.35-10.42.8-1.54,2.26-2.14,3.87-2.47,8.29.27,12.56,9.82,20.44,11.22,2.42.53,5.48,1.01,7.29-.93.53-1.4-1.15-2.07-1.87-2.67-3.74-1.8-8.48-1.61-12.77-1.8-.66-.53-1.33-.94-1.93-1.68,5.21-.6,10.76.34,15.7,1.41,1.59,1.13,4.21,1.47,4.61,3.87.34,1.54-.48,2.95-1.68,3.48-3.88,1.61-7.21.67-11.29.12-4.01-.73-7.42-3-10.42-6.2-2.35-2.28-4.88-5.16-8.09-4.08-.6.6-.67,1.61-.41,2.4l.74,1.2c5.28,4.15,11.29,6.41,17.37,8.5,2.21.66,4.61,1.73,7.08,2.4,14.91,3.94,29.01,8.55,44.91,10.16,6.62,1.13,14.31,1.4,20.99,2.07l.27-.27c19.65.06,37.22-2.21,55.53-6.69,3.94-1.06,7.35-2.14,11.36-3.07,8.82-2.19,17.65-5.27,25.99-9.15,2.47-1.87,7.29-2.67,6.55-6.82-.53-1.06-1.94-.87-2.94-.73-5.42,2.4-8.55,9.35-14.57,10.16-4.81.53-10.62,2.93-14.17-1.54-.06-1.15-.06-2.35.67-3.21,3.21-3.07,7.68-3.14,11.96-3.87h7.69c-1.27,3.41-5.21,1.06-7.42,1.94-2.93.46-6.34.53-8.75,2.67-.26.53-.74,1.27-.14,1.8,3.29,2.47,7.76.27,11.17-.87,6.01-3.08,10.42-11.62,18.3-8.89,1.01.39,1.68,1.54,1.8,2.53-.05,2.54-1.8,4.75-3.87,6.09-4.54,3.53-9.9,5.48-15.18,7.54-18.11,6.08-37.42,10.62-56.99,13.16-5.67.27-11.43,1.13-17.24,1.41-.73,0-1.45,0-2.18,0-13.02,0-25.86-1.07-38.58-3.35" fill="#bc9b6a"/><path d="m17.05,194.24h0c-.07-.91-.05-1.89.51-2.59,2.55-1.25,5.41,0,7.89.6h0c1.57.66,3.16,1.57,4.48,2.44l-3.29,9.5c-4.11-2-7.93-5.52-9.58-9.96m-.07.02h0s0,0,0,0h0m.54-2.67s0,0,0,0h0s0,0,0,0" fill="#00b6f1"/><path d="m29.78,235.77h-.01v.04s-.02.02-.02.02l.02-.06c-7.95-2.6-15.48-6.41-21.76-12.74-2.74-3.07-5.25-6.86-3.79-10.95h0s-.06-.03-.06-.03h.06c1.4-5.25,3.87-10.12,5.4-15.4h0l.53-.94c.8,2.23,2.06,4.39,3.57,6.23,6.02,7.42,14.97,10.04,23.37,12.84-.21,2.44-1.34,4.83-1.87,7.28l.07.02s0,0,0,0l-.07-.02c-1.2,3.93-2.47,7.8-3.74,11.67-.41.36-.4,1.1-.54,1.65-.06.26-.15.48-.31.57-.05.03-.12.05-.21.05-.16,0-.37-.06-.66-.21m-20.22-39.16h0s0,0,0,0h0" fill="#00b6f1"/><path d="m50.33,217.06h0s0,0,0,0h0m-4.3-3.24c1.54.53,2.83,1.86,4.01,3.04-1.57-.65-3.4-1.7-4.01-3.04" fill="#00b6f1"/><path d="m61.82,217.12c2.52.13,5.02.16,7.08,1.36-.02.33-.17.35-.47.35-.28,0-.63-.08-.88.09-1.82-.39-4.16-.6-5.73-1.8" fill="#00b6f1"/><path d="m70.74,224.87c1.16-.34,2.37-.47,3.54-.77-.19.62-.03,1.42-.57,1.64l-2.98-.87" fill="#00b6f1"/><path d="m22.4,206.76c-5.88-3.27-11.43-9.29-10.44-16.1.41-2.21,2.54-4.08,4.75-4.49,4.47-.07,8.82,1.54,12.77,2.95,2.07,1.06,4.4,1.59,6.15,3.46-.47,2.95-1.94,5.42-2.68,8.23-.93,1.8-1.01,3.94-2.07,5.67-.87-.14-1.73-.73-2.33-1.13.2-1.68.99-3.61,1.33-5.28.74-1.68,1.54-3.34,1.94-5.14.41-1.41-1.2-1.94-2.07-2.47-3.62-2.08-8.09-3.48-12.24-3.07-.99.27-2,1.13-2.33,2.07-.8,6.15,5.02,10.42,9.42,13.64,4.22,2.53,8.62,4.34,13.23,5.88.33.46,0,1.26-.27,1.8-5.41-1.08-10.49-3.14-15.16-6.02" fill="#bc9b6a"/><path d="m49.39,249.21l-4.19-13.41-.04-.03-3,7.45c-.54,1.34-.29,1.84,1.02,2.56l-.18.46-4.22-1.7.18-.47c1.17.32,1.75.4,2.24-.82l3.56-8.8c-.52-1.71-.8-1.89-1.03-1.99l.18-.46,3.93,1.59,3.24,10.54h.03s2.28-5.62,2.28-5.62c.46-1.12.48-1.82-.98-2.54l.18-.46,4,1.62-.18.46c-1.41-.38-1.69.01-2.05.89l-4.42,10.95-.53-.21" fill="#231f20"/><path d="m52.55,250.12l.15-.47c1.12.24,1.73.38,2.12-.81l2.99-9.22c.41-1.26-.38-1.56-1.23-1.9l.15-.49,11,3.58-1.24,3.84-.48-.15c.43-2.85-.77-3.77-3.34-4.61-1.05-.34-1.41-.38-1.68.45l-1.44,4.42c1.83.61,2.96.44,4.01-1.83l.5.15-2.1,6.45-.5-.17c.54-2.46-.24-3.34-2.12-3.96l-1.5,4.61c-.28.84.01,1.19,1.24,1.59,1.87.6,3.98.74,6.12-1.75l.53.17-2.05,3.71-11.15-3.62" fill="#231f20"/><path d="m78.05,257.61l-1.17-9.9-.13-.03-5.67,8.31-.55-.13-1.43-12.71c-.11-1.02-.26-1.26-1.06-1.57l.11-.49,5.74,1.33-.11.49c-.71-.1-1.27-.18-1.44.53-.06.22-.04.45-.02.69l.7,7.58h.04l3.66-5.42-.25-2.04c-.15-.49-.32-.76-1.26-1.01l.11-.49,6.11,1.41-.11.49c-.85-.14-1.42-.25-1.58.42-.06.22-.01.74.03,1.13l.59,6.99h.03s3.7-6.13,3.7-6.13c.11-.18.24-.38.33-.78.18-.8-.5-.98-1.16-1.17l.11-.49,3.56.82-.11.49c-.7-.1-1.24.26-1.63.94l-6.62,10.86-.53-.12" fill="#231f20"/><path d="m91.51,260.28c-4.61-.73-6.59-4.37-6.01-8.07.63-4.03,3.98-6.65,8.13-6,1.79.28,3.16,1.5,3.67,1.57.53.1.77-.29,1.05-.76l.53.09-.73,4.62-.5-.07c-.42-1.83-1.72-4.41-3.97-4.78-2.89-.46-4.14,2.46-4.67,5.8-.2,1.19-.38,3.1.15,4.48.6,1.56,2.12,2.11,2.74,2.21,1.54.24,3.13-.11,5.06-1.7l.52.6c-1.45,1.2-2.92,2.1-4.88,2.1-.35,0-.72-.03-1.1-.09" fill="#231f20"/><path d="m103.63,261.72l.06-.5c1.24.06,1.61.08,1.69-.57.06-.54-.39-2.09-.6-2.77l-4.47-.54c-.72,1.37-1.14,2.14-1.19,2.46-.1.75.85.94,1.52,1.05l-.06.5-4.04-.49.05-.5c1.09-.03,1.45-.67,2.24-2.08l5.76-10.37.56.07,3.14,11.01c.64,2.23.88,2.95,1.83,3.03l-.06.5-6.44-.8m-2.93-5.13l3.88.48-1.41-5.09-2.47,4.61" fill="#231f20"/><path d="m115.41,263.17c-1.9-.14-2.75-.88-3.37-.92-.42-.03-.54.32-.64.63l-.59-.03.35-4.95.57.04c.27,2.04,1.26,4.39,3.8,4.57,2.4.17,2.64-1.8,2.66-2.07.1-1.34-.81-1.89-2.07-2.6l-1.29-.73c-3.31-1.89-3.19-3.61-3.13-4.53.08-1.22.9-3.9,4.7-3.63,1.6.11,2.5.84,3.07.88.46.03.59-.25.71-.63l.6.04-.3,4.34-.56-.04c-.27-1.43-1.3-3.81-3.66-3.98-1.03-.07-2.18.46-2.28,1.75-.07,1.09.28,1.55,1.9,2.52l2.84,1.66c.66.39,2.1,1.65,1.94,3.83-.12,1.67-1.42,3.86-4.71,3.86-.17,0-.35,0-.54-.02" fill="#231f20"/><path d="m123.77,263.36l.02-.5c1.48-.07,1.96-.08,2.01-1.77l.38-10.55c-1.41.03-3.48.06-4,3.24h-.57s.2-4.04.2-4.04l12.03.42-.11,4.03-.57-.02c-.29-3.23-2.35-3.39-3.73-3.52l-.36,10.55c-.07,1.71.42,1.76,1.89,1.91v.5s-7.17-.25-7.17-.25" fill="#231f20"/><path d="m134.39,263.76v-.5c1.13-.14,1.73-.21,1.73-1.42v-9.7c0-1.33-.82-1.37-1.73-1.42v-.5h7v.5c-1.4.05-2.03.08-2.03,1.84v9.46c0,.96.45,1.12,1.79,1.12,3.03,0,4.15-1.66,5.07-3.92h.59l-.83,4.55h-11.6" fill="#231f20"/><path d="m147.08,263.2c1.13-.18,1.76-.26,1.69-1.51l-.51-9.68c-.07-1.33-.92-1.33-1.84-1.33l-.03-.5,11.56-.62.21,4.03-.51.03c-.6-2.82-2.05-3.24-4.75-3.1-1.1.05-1.47.15-1.42,1.02l.25,4.64c1.93-.07,2.92-.64,3.09-3.14l.52-.03.35,6.76-.52.03c-.36-2.49-1.42-3.03-3.4-2.93l.25,4.85c.04.88.43,1.09,1.73,1.02,1.97-.1,3.98-.73,5.09-3.81l.56-.03-.59,4.21-11.71.61-.03-.5" fill="#231f20"/><path d="m167.18,261.59c-.94-.67-1.52-1.32-1.76-3.47l-.7-6.65c-.17-1.68-.7-1.66-1.82-1.66l-.06-.5,6.74-.7.06.49c-1.32.2-1.93.28-1.75,2.04l.7,6.66c.12,1.13.4,3.88,3.28,3.58,3.51-.36,3.23-3.42,3.09-4.69l-.63-6.08c-.13-1.21-.45-1.87-2.17-1.78l-.06-.5,4.39-.46.06.5c-1.09.28-1.52.54-1.38,1.86l.67,6.36c.13,1.17.03,2.98-.71,3.97-.88,1.19-2.57,1.75-3.78,1.87-.24.02-.57.04-.93.04-.96,0-2.23-.16-3.25-.88" fill="#231f20"/><path d="m178.57,260.66c1.16-.32,1.69-.54,1.48-1.86l-1.48-9.39c-1.33-1.19-1.65-1.19-1.91-1.14l-.07-.5,4.18-.66,8.2,7.36h.04l-.95-6.01c-.18-1.19-.53-1.8-2.15-1.66l-.08-.5,4.26-.67.08.49c-1.4.41-1.45.88-1.3,1.83l1.84,11.67-.55.08-10.51-9.33h-.04s1.24,7.92,1.24,7.92c.24,1.43.71,1.75,2.2,1.66l.08.5-4.5.71-.07-.5" fill="#231f20"/><path d="m192.86,258.18c1.05-.32,1.79-.56,1.54-1.77l-2.01-9.49c-.28-1.3-1.21-1.15-2.12-1.01l-.11-.49,6.88-1.47.1.49c-.91.23-1.85.46-1.57,1.79l2.01,9.49c.27,1.26,1.06,1.16,2.17,1.01l.1.49-6.86,1.45-.11-.49" fill="#231f20"/><path d="m203.12,255.89c1.39-.49,1.83-.66,1.4-2.28l-2.74-10.21c-1.33.45-3.29,1.08-2.87,4.29l-.56.14-.98-3.9,11.61-3.12,1.09,3.88-.57.14c-1.22-2.99-3.23-2.56-4.6-2.28l2.74,10.21c.45,1.65.92,1.55,2.37,1.27l.13.49-6.9,1.85-.13-.49" fill="#231f20"/><path d="m214.05,252.91c1.05-.49,1.61-.74,1.2-1.91l-3.16-9.18c-.42-1.25-1.23-1.01-2.12-.77l-.17-.47,10.94-3.77,1.31,3.81-.47.17c-1.37-2.54-2.88-2.56-5.43-1.68-1.04.36-1.36.56-1.08,1.37l1.52,4.4c1.82-.61,2.61-1.44,2.1-3.88l.49-.17,2.21,6.4-.5.18c-1.03-2.29-2.19-2.53-4.08-1.89l1.58,4.58c.29.84.73.94,1.96.52,1.86-.64,3.63-1.8,3.84-5.07l.53-.18.59,4.21-11.08,3.81-.17-.47" fill="#231f20"/><path d="m227.01,248.29c1.16-.52,1.28-1.2.98-1.89l-4.01-9.03c-.5-1.12-1.33-.8-2.07-.54l-.21-.46,5.59-2.49c5.13-2.29,8.22.15,9.47,2.98,1.5,3.37.8,7.11-3.76,9.3l-5.79,2.58-.21-.46m.6-13.8c-1.17.53-.96.98-.76,1.37l4.1,9.19c.32.73.63.99,1.51.6,2.05-.92,3.14-2.81,1.2-7.18-.64-1.41-2.28-4.29-4.68-4.29-.43,0-.89.09-1.37.31" fill="#231f20"/><path d="m70.92,74.78c.73-.73,1.8-.73,2.67-.27,1,.8,1.74,2.2,2.34,3.34-1.47-.07-3.54.87-4.88-.27-1.21-1.2-2.67-1.6-4.14-2.21-.07-.2-.27-.53,0-.74.4-.53,1.07-.53,1.8-.53.73.27,1.34,1.27,2.2.67h0Z" fill="#231f20"/><path d="m83.42,84.94c-.07.2-.33.27-.27.47.6-.07,1.4.07,1.94.4.73.73.2,1.6.2,2.47-.4.47-1.13.33-1.54.13-.67-.33-.6-1.07-1.13-1.47-.27.27-.07,1.07-.67.94-.6-.94-1.2-1.87-1.54-2.94.34.07,1,.53,1.54.13.33-.4.8-.74,1.34-.8.27.13.13.47.13.67h0Z" fill="#231f20"/><path d="m74.17,77.25l-1.38.17c-.37.04-.82-.07-1.2-.46-.12-.1-.21-.28-.36-.37.18-.03.29-.06.43-.21,0,0,.15.77.98.77.59,0,.87-.62.87-.62l.66.73h0Z" fill="#fff"/><path d="m197.75,84.8h.4c-.27.87-1.13,1.8-1.4,2.8-.67.2-.67-.6-.8-1-.47.6-.6,1.47-1.4,1.8-.53.13-1,0-1.4-.4.27-.87-.6-2.34.73-2.61.33-.07.67-.2,1.07-.13l.33.27c.2-.33-.27-.8-.2-1.27,1.2-.54,1.6,1.67,2.67.54h0Z" fill="#231f20"/><path d="m203.94,77.17s.59.31,1.04.3c.43-.01,1.16-.12,1.55-.5.12-.1.22-.27.38-.36-.18-.03-.29-.07-.42-.23,0,0-.18.76-1.01.73-.59-.02-.85-.65-.85-.65l-.69.71h0Z" fill="#fff"/><path d="m73.12,110.53c-.6-.6-1.47-.93-2.07-1.4.8.33,1.6.8,2.07,1.4h0Z" fill="#bcbec0"/><path d="m66.17,66.36v.67c-5.08,1.4-10.69,5.41-12.23,10.83-2.27,6.41-2.01,15.03,1.94,20.71.2,1.27-.2,2.07-1.07,2.67-1.27.47-3.01.33-4.08-.4-.33-.07-.8,0-.8.4.2,1.54,2,1.47,3.21,1.8,2.14,0,4.08-1.27,5.15-3.07.47.67.07,1.27,0,1.94-1.14,2.41-4.28,1.2-6.01,2.07.8,1.74,2.87.94,4.21,1,2.94-.73,3.88-5.15,7.35-4.27-2.88,1.27-1.47,5.75-5.28,5.68-.93,0-1.94-.67-2.67.13,1,1,2.61,1.54,4.21,1.14,2.87-.94,3.74-5.75,7.62-4.34.33.13.6.4,1,.4-1.54,0-3.21,0-4.61,1-1.27,1.14-1.54,3.68-3.74,3.48-.73.33-1.87-.74-2.07.4.53,1,2.67.54,1.94,2.07,1.6,1.34,4.08.54,5.81.13l.13.2c.94-.27,1.8-.67,2.81-.73,1.54.33,3.41.6,4.14,2.34l.2.73c-2.07-1.34-5.21-2.14-7.42-1-1.8.07-2.94-.33-4.54-.8-.4.13-.4.6-.13.8,3.14,4.01,11.83,1.27,10.56,8.62-.47.94-1.14,2.01-2.14,2.41.6-1.07.74-2.41.47-3.61-1.2-3.47-5.01-3.41-7.42-5.48-.27,0-.47.07-.67.33-.27,1.07,1.07,1.47,1.67,1.94,1.67.87,4.08.87,4.88,3.21.07.73.4,1.87-.27,2.47-.07-1.67-1.54-3.61-3.34-4.61-2.54-.73-4.48-2.87-5.01-5.55-2-4.47-7.35-4.94-10.03-8.89-1.67-3.74.4-7.22,2.67-10.02,0-.33-.07-.8-.47-.8-2.54,1.07-2.47,4.68-5.28,5.41,1.33-2.87.93-7.42,4.74-8.35.13-.27.33-.47.27-.87-1.13-.87-2.41.47-3.48,1-.53.4-.93,1.14-1.53,1.27.67-1.54,2.07-3.41,3.74-3.88.33-.2.47-.6.6-.87-.67-.6-1.41,0-2.14,0l-3.14,1.94c-.2-2.67,3.21-3.54,4.55-5.68-1.07-.47-2.21.74-3.34,1.14l-1.54.4c.07-.67.93-1.4,1.4-2.07,1.07-.67,2.34-.94,3.48-1.4.13-.4-.2-.6-.4-.87h-.67c.6-.47,1.87-.13,2.21-.8-.87-.67-1.94-1.07-3.08-.74,0-.07,1.54-.2,1.27-1.2-.33-.27-.6-.73-1-.87v-.27c1.67-.4,3.01,1.07,4.34,1.67.2-.13.27-.4.27-.67-.53-1.27-1.87-1.8-2.94-2.54,1-.4,1.94.73,2.94,1.14.87-1.87-1.74-2.21-2.34-3.75,1.54-.87,2.54,1.4,3.87,1.8.53-.2.2-.8.13-1.13-.6-1.14-1.67-1.67-2.34-2.81,1.4-.33,2.07,1.6,3.47,2.14.27-.4,0-1.2-.33-1.67-.8-.6-1.2-1.6-1.8-2.41,1.74-.13,2.67,1.67,4.08,2.21.07-1.67-1.87-2.94-1.54-4.95,2.14.07,2.27,2.67,3.88,3.48.27-1.67-.93-3.07-1.13-4.74.67-.4,1.4.53,2.14.8.8.93.47,3.41,2.2,2.67-.53-1.47-.87-3.41.27-4.75.33,1.47.87,3.21,2.21,4.21h0Z" fill="#bc9b6a"/><path d="m71.19,107.66c.07.13-.33-.07-.8,0-1.27-.33-2.74.2-4.01.8-1.07.53-2.07,1.47-3.21,1.14,2-1.14,3.48-4.21,6.82-2.81l1.2.87h0Z" fill="#bc9b6a"/><path d="m66.51,121.09c.2.94.2,2.14-.74,2.54-.4.33-.8.47-1.4.4-.27-1.47-.13-3.21,1-4.14.6.07.87.74,1.14,1.2h0Z" fill="#bcbec0"/><path d="m65.51,142.54c3.41,2.21,7.22,4.01,11.43,4.01,3.01.93,6.55.07,9.42-.27-.87,2.74-3.27,4.75-5.95,5.41-5.68.87-11.49.07-16.17-3.07-1.94-1.74-4.81-3.41-3.87-6.48.6-.73.53-2.67,1.8-2.27,1,1.14,2.07,2.14,3.34,2.67h0Z" fill="#bcbec0"/><path d="m80.41,153.23l1.8-.67c0,1.2-1.54,2.07-2.07,3.21-3.41,2.14-7.82,2.47-11.96,1.67-4.01-.87-8.42-2.34-10.29-6.28-.67-1.87.4-3.67,1.47-5.14,5.48,6.22,13.3,8.35,21.05,7.22h0Z" fill="#bcbec0"/><path d="m74.4,159.11c.73-.26,1.74-.13,2.4-.2.2-.06.07-.33.4-.27h.4c-1.2,2.87-3.87,4.74-6.95,4.88-5.08.2-9.82-1.27-13.63-4.61-.67-1.27-2.27-2.41-1.67-4.14.6-.73.4-1.8,1.27-2.47,4.48,5.15,10.89,8.15,17.78,6.81h0Z" fill="#bcbec0"/><path d="m54.55,157.71c4.41,5.75,11.16,7.82,18.18,6.95-1.47,2.81-4.28,4.08-7.35,3.87-4.41-.07-9.42-2.07-11.7-6.28-1.33-1.6.27-2.87.54-4.54h.33Z" fill="#bcbec0"/><path d="m68.32,169.94c-1.34,2.27-3.41,3.07-5.75,3.47-4.47.2-8.89-1.67-10.96-5.68-.53-1.67.33-3.41.8-5.01,3.14,5.88,9.49,7.89,15.9,7.22h0Z" fill="#bcbec0"/><path d="m63.97,174.68c-1.4,3.14-5.01,2.47-8.08,2.34-2.54-.54-5.21-2.41-5.82-5.01.27-.94,0-2.14.67-2.94,2.94,4.61,8.35,6.22,13.23,5.61h0Z" fill="#bcbec0"/><path d="m60.9,178.69c-.27.8-.87,1.74-1.8,1.94-2.27.87-5.21.6-7.48-.13-.8-.54-1.87-1.14-2.21-2.07-.33-1.27-.07-2.61.27-3.74,2.61,3.68,7.02,4.21,11.23,4.01h0Z" fill="#bcbec0"/><path d="m58.96,182.43c0,.87-.4,1.54-1.07,2.07-1.8.6-4.41,1.34-6.42.47-.93-.2-1.4-1-1.94-1.67v-2.67c2.61,1.87,6.22,2.27,9.42,1.8h0Z" fill="#bcbec0"/><path d="m58.16,186.04c.07.93-.07,1.87-1,2.27-2.07.94-4.54,1.27-6.41-.33-.67-.54-.4-1.47-.67-2.21,2.41,1.14,5.55,1.47,8.09.27h0Z" fill="#bcbec0"/><path d="m58.29,190.25c.33.93-.67,1.34-.6,2.2-.87.6-1.74,1.41-2.87,1.27-.47-.13-1.2-.2-1.8-.27-.53-1.2-1.34-2.21-1.54-3.54,2.07,1.07,4.41.53,6.55-.13l.27.47h0Z" fill="#bcbec0"/><g clip-path="url(#b)"><polygon points="53.94 193.47 74.33 193.47 74.33 202.69 53.94 202.69 53.94 193.47 53.94 193.47" fill="#bcbdc0" fill-rule="evenodd"/></g><path d="m44.12,156.44l.13-.13c-.73-1.74-3.68-2.41-2.54-4.75,1.4-1.6,3.14-.33,5.01-.53,1.54.47,3.34.27,4.88.67-.67,1.8-2.87,2-4.01,3.21.13,1.47,2.34,2,1.8,3.74-1-.43-4.18-1.85-5.28-2.21h0Z" fill="#bcbec0"/><path d="m71.52,62.15c-.07,1.34-.33,2.34-.73,3.34-.13.27.27-.67-.27-.54-.4-.2-.74.27-.87.54-.33-1.14,1.07-2.2,1.54-3.34h.33Z" fill="#bcbec0"/><path d="m74.53,65.36c.33.94-.2,1.8-.8,2.47v-.94h-1c.47-.54,1-1.47,1.8-1.54h0Z" fill="#bcbec0"/><path d="m38.64,126.57c-.33,6.68.53,13.03,5.15,18.04,1.67,1.74,3.34,3.34,5.28,4.75-2.61.2-5.75-1.07-8.29.53-.8.87-.8,2.27-.6,3.34,1,1.61,2.34,2.54,3.94,3.21.74.06,4,1.37,5.28,2.21-4.48-1.27-10.63-1.87-14.77.6-3.67,2.21-4.48,6.42-4.14,10.16.6,3.47,2.61,6.42,2.61,10.09-2.07-3.08-6.82-4.21-7.62-8.29.07-2.27-.53-4.28-1.67-6.01.4-1.8.8-3.67,1.2-5.54.07-.47-.07-.87-.4-1.14h-.13v-.4c1.07-3.01,3.21-6.35,6.82-6.55,1.2-1.47-1.47-1.54-1.94-2.6-.8-.87-1-1.94-1.54-2.94,1.2-1,2.94-1.6,4.48-1,.27.13.53.4.94.33.67-.33.27-.87.13-1.27-3.27-2.07-4.21-6.28-3.88-9.89,1.4-1.74,0-4.48.87-6.68.13-.27.47.4.94.13.94-2.54,2-5.08,3.34-7.48l.4-.13c0,.33.13.6.47.8h.54l3.61-3.74c.6,3.07-1.07,6.15-1,9.49h0Z" fill="#bc9b6a"/><path d="m55.22,148.35l-.67,1.67c.67-2.34-3.27-5.28.53-6.35.94-.6,1.4-1.6,1.8-2.54.87-2.21-3.28-4.28,0-5.55,2-1.87,2.61-5.01,1.67-7.35-.4-.33-.27-.93-.67-1.27,1.27-.87,2.27-2,3.34-3.21.13,9.09-2.54,17.04-6.02,24.59h0Z" fill="#bc9b6a"/><path d="m37.71,120.95c-.2,4.48-2.07,9.02-.53,13.77.33,3.34,1.67,6.21,3.14,9.09.13.47-.13.87-.53.94-1.07.13-1.2-1.07-1.67-1.67-3.01-6.75-3.27-14.97-.8-22.12h.4Z" fill="#231f20"/><path d="m32.83,132.11v.4c-.2,0-.47.13-.53-.14-.07-.27,0-.54.27-.67.07.2.33.07.27.4h0Z" fill="#231f20"/><path d="m32.96,133.65c.73,4.01,1.8,7.89,4.88,10.96.14.4-.27.74-.53.87-1.27-.13-1.87-1.54-2.54-2.41-1.67-2.8-2.2-6.15-2.47-9.56.27-.27.4,0,.67.13h0Z" fill="#231f20"/><path d="m32.56,154.37c0,1.07-1.07.94-1.54,1.8-2.94,2.54-3.81,6.21-4.34,9.89h-.27c-.73-5.08,1.34-9.49,5.28-12.09.4-.13.6.2.87.4h0Z" fill="#231f20"/><path d="m31.56,161.18c-3.88,5.15-.53,10.96.47,16.24-.74-.13-.87-1.07-1.13-1.67-1.8-4.74-4.14-11.62,0-16.1.67-.54,1.13-1.41,1.94-1.67,1.4,1.34-1,2.07-1.27,3.21h0Z" fill="#231f20"/><path d="m117.5,116.28c-.2-.2-.67-.67-.53-1.14.2.33.47.73.53,1.14h0Z" fill="#bcbec0"/><path d="m161.47,116.28c-.33-.2-.07-.74.27-1-.07.33-.13.73-.27,1h0Z" fill="#bcbec0"/><path d="m77.07,166.06c.47,2.14,1.34,4.54.8,6.81.2.13.33.34.6.27,1.4-1.8.74-4.48.54-6.42,2.47,3.01,2.74,7.22,2.94,11.09.13.33.4.33.67.2,1.4-1.61.13-3.88.53-5.88,2,2.94,1.94,7.22,1.67,10.56.2.13.33.4.6.27.47-.47.74-1.07.8-1.8.67,3.41.13,7.28-1.14,10.63.6-9.36-5.75-17.31-13.3-22.39.13-.93,1.07-2.07,2.07-2.54.2,1.07-.54,2.54.4,3.21,1.61-1.54-.47-5.01,1.8-6.02l1,2.01h0Z" fill="#bcbec0"/><path d="m204.84,169.67c.74-1-.27-2.14.27-3.21.87.6,1.74,1.34,2.07,2.34-7.55,5.35-13.9,13.1-13.3,22.66-1.27-2.87-1.8-7.02-1.14-10.96.13.8.27,1.67,1,2.07,1.14-.67-.47-2.34.27-3.61,0-2.54.2-5.35,1.94-7.35,0,2.14-.73,4.54.53,6.08.34.13.61-.13.74-.4-.47-3.74.4-7.68,2.6-10.69.13,2.14-1,4.68,1,6.08l.27-.27c-.2-3.08,0-6.42,1.94-8.75,2.07,1.47-.07,4.61,1.8,6.01h0Z" fill="#bcbec0"/><path d="m89.97,173.28l-.8-.13c.8-.67,2.14-.4,3.08-1.13,1.14-1,1.54-2.34,2.6-3.48-1.13,1.94-2.34,4.54-4.88,4.74h0Z" fill="#bcbec0"/><path d="m92.9,174.68c-.8-.87.8-1.27,1.14-2.14.07.94-.93,1.34-1.14,2.14h0Z" fill="#bcbec0"/><path d="m92.77,177.02c1.34-1.27,2.47-3.07,3.21-4.88.07,1.94-1.74,3.67-3.21,4.88h0Z" fill="#bcbec0"/><path d="m186.19,174.68c-.54-.87-1.2-1.67-1.54-2.67.33,1.07,2.4,1.27,1.54,2.67h0Z" fill="#bcbec0"/><path d="m188.13,174.95v.54c-.2.07-.27-.13-.4-.27v-.54c.21-.07.27.13.4.27h0Z" fill="#bcbec0"/><path d="m90.97,175.88c-.33-.13,0-.53.13-.8h.27l-.4.8h0Z" fill="#bcbec0"/><path d="m98.38,121.79c.4.2-.37-.75-.34-1.25.03-.5-.5,1.04-.5,1.04,0,0,.44.02.84.21h0Z" fill="#231f20" fill-rule="evenodd"/><path d="m121.24,42.43c.07,3.68-.07,7.89-.13,11.36-.13.27-.4.13-.67.13-.2-4.21-.2-8.02,0-11.96.33,0,.8.07.8.47h0Z" fill="#fff" fill-rule="evenodd"/><path d="m79.41,91.35s1.65.16,2.23.94c.58.78,2.15,3.17,4.18,2.14,0,0,.61,1.03-1.27,1.03s-2.85-1.36-3.36-2.27c-.52-.9-1.16-1.19-1.65-1.31l-.13-.54h0Z" fill="#fff" fill-rule="evenodd"/><path d="m199.16,91.22s-.58,1.14-1.5,1.53c-.93.38-.81,1-.9,1.15,0,0-1.52,1.5-2.81,1.5s-1.12-.19-1.23-.65c-.11-.46.45-.58.78-.39.32.19,1.1.65,2.2-.84,1.1-1.49,2.86-2.46,3.47-2.3h0Z" fill="#fff" fill-rule="evenodd"/><path d="m105,131.51c3.27,12.23-1.47,23.72-4.34,34.95.47-2.47.87-5.41.73-8.09-1.47-4.28,1.6-8.29-.27-12.23.13-1.74-.8-3.41-2.07-4.74-.13-3.01.4-6.35-1.54-8.62-1.07.13-2.47.47-3.34-.27.74-3.08,1.8-5.95,2.74-8.89,4.07.47,7.02,4.27,8.08,7.88h0Z" fill="#bc9b6a"/><path d="m124.05,5.82c.47.6.33,1.6.13,2.27-.33.4-.66.6-1.07.67.2-.87.8-1.67.4-2.61-.74-.87-1.61-2.01-2.81-2.01-1.14.13-2.14.87-2.74,1.8-1.07,1.67.67,3.01.8,4.34-.8-.4-1.4-1-1.8-1.8-.33-1.2-.13-2.47.53-3.47,1.47-.8,3.27-2.07,5.01-1,.67.6,1.14,1.14,1.54,1.8h0Z" fill="#fff" fill-rule="evenodd"/><path d="m121.44,7.35l-.33,1.8c.13,7.49.4,14.7.33,22.39-.33.34-.4,1.07-1,1-.07-9.29-.53-17.31-.13-25.73.47,0,1.13-.07,1.13.53h0Z" fill="#fff" fill-rule="evenodd"/><path d="m49.27,166.86c-.53-1.2-.67-2.47-1.54-3.47,1.67-.8,3.48-2.54,3.48-4.61.13-1.27-.73-2.21-1.14-3.34,1.07-1.13,2.67-1.87,3.61-3.34-1.94,4.74-2.94,10.02-4.41,14.77h0Z" fill="#bc9b6a"/><path d="m48.13,173.81c-.4,0-1-1.14-1.54-1.54.67-.6,1.54-1.6,2.07-2.47-.14,1.34-.14,2.81-.54,4.01h0Z" fill="#bc9b6a"/><path d="m118.23,217.78c-2.68-1.13-4.95-2.93-7.56-4.2-1.59-1.2-3.48-1.94-5-3.34-9.56-5.42-15.77-13.97-15.58-25,.53-1.93-.46-4.68.34-6.41.8-.46,2.01.34,3-.12l.6-.28c.14.47-.46,1.34.41,1.82,1.08.06,1.94-.28,2.95-.62-1.21,11.38,4.4,21.13,14.15,26.34,9.63,5.34,19.79,10.02,27.95,18.5,1.26.07,1.26-1.4,2.07-2,9.28-9.03,21.31-12.76,31.27-20.38,6.68-5.81,9.75-13.96,8.69-22.72,1.2,0,2.67,1.27,3.61,0l-.48-1.54c1.01.88,2.54.94,3.62.34.6.88.6,2.47.6,3.6.87,11.23-3.89,21.13-13.37,26.68-11.89,8.67-25.79,13.96-35.74,25.86l-.4.12c-5.62-7.21-13.83-11.82-21.11-16.64" fill="#bc9b6a"/><path d="m129.11,213.33c-1.29-1.03-11.03-6.3-11.03-6.3l.14-76.31s9.31-1.56,12.35-3.21v86.34s-.04.13-.25.13-.57-.13-1.22-.64" fill="#fff"/><path d="m148.13,127.51s4.79,1.86,7.38,2.25c2.59.38,4.72.66,4.95,1.36v76.12s-10.97,6.12-12.23,7.08l-.1-86.81" fill="#fff"/><path d="m120.96,60.76l.1,36.83-.41,3.28s-.41-5.54-.41-8.51v-30.67s0-.92.72-.92h0Z" fill="#fff"/></svg>