<svg xmlns="http://www.w3.org/2000/svg" width="121" height="300" fill="none"><g clip-path="url(#a)"><path fill="#000a3c" d="M57.232 163.61c0 16.135-6.874 29.235-10.841 33.215-12.286 12.295-22.459 3.335-22.549 15.695-5.596 5.055-9.598 12.765-11.561 21.525.12 0 .23.03.37.055 1.159.21 2.143.875 2.897 1.915 15.619-12.73 39.686-19.435 58.057-15.29 5.86 1.335 10.807 3.48 14.544 6.79-5.65-9.135-14.284-16.19-24.491-19.84-2.439-.865-6.72-1.86-6.72-9.71 0-14.68 16.053-3.28 26.61-19.26.525-.785-.23-1.475-.84-.875-3.192 3.195-11.036 5.39-15.213 5.39s-5.706-.96-5.706-.96c3.912-7.83 8.808-14.47 8.808-14.47-9.827-9.835 6.7-63.81 50.408-63.81 0-12.535-1.334-22.3-2.928-29.555-1.039.265-9.278 2.21-9.653.46-.314-1.54 6.056-4.88 8.264-5.95-2.143-7.48-4.297-10.99-4.297-10.99-37.477 11.8-29.947 42.84-39.07 42.84-5.946 0-10.613-4.635-12.261-6.29-22.374-22.39-11.947-37.22-11.947-66.95C49.144 7.505 41.34 0 27 0S7.49 6.225 7.49 6.225s19.685.635 19.685 21.315S2.823 55.155 2.823 82.655c0 45.74 54.44 44.875 54.44 80.96M31.296 27.54c0-2.67-.295-5.04-.81-7.22 0 0 4.297-.23 4.297-5.46 0-4.3-2.873-7.22-3.627-7.22-.61 0-.785.665-2.119.665-3.277 0-3.507-4.18-3.507-4.18h1.509c9.368 0 18.032 2.845 18.032 23.44 0 7.625-.72 14.385-1.364 20.365-.635 5.915-1.215 11.395-1.04 16.765 0 0-16.318-1.915-16.318-14.205 0-7.975 4.952-9.92 4.952-22.945v-.01zM8.364 253.245c-1.04-.265-1.969-.93-2.668-1.88-3.543 5.48-5.036 10.38-3.737 14.765 5.455 18.45 21.703 32.055 41.194 33.875-18.611-5.655-32.371-25.06-34.78-46.755h-.01zM4.562 242.34c-1.16-.84-2.174-1.63-2.898-2.295a48 48 0 0 0-1.629 14.45c.035 1.015.12 2 .21 2.985.72-2.965 2.143-6.035 4.177-9.2-.37-1.86-.315-3.95.12-5.95m.929-2.815a12.6 12.6 0 0 1 1.824-3.02 7.6 7.6 0 0 1 1.878-1.65c1.769-8.27 5.476-15.605 10.877-21.175-8.054 5.74-14.264 13.925-17.507 23.44.435.58 1.594 1.475 2.898 2.405m69.878 42.415c-4.032-.435-9.423-1.51-11.771-2.32-2.633-.895-4.952-3.105-6.26-5.885a12.3 12.3 0 0 1-1.105-4.53c-.055-1.105.055-2.32.37-3.655-14.79-4.495-30.437-10.76-41.3-16.59-.37.7-.809 1.365-1.298 1.945-.81.985-1.74 1.685-2.698 2.09 1.014 9.08 4.177 17.96 9.193 25.705 6.635 10.27 15.703 17.315 25.476 19.525 3.477.785 7.999 1.77 12.056.875 15.039-3.335 27.3-13.75 33.28-27.44-.7.12-1.509.195-2.348.23-3.423 10.04-10.632 10.38-13.62 10.06m16.832-46.36c-2.173-5.74-9.507-9.835-19.16-12.01-17.857-4.035-41.3 2.635-56.198 15.205.58 2.295.404 5.02-.37 7.515 10.752 5.775 26.37 12.04 41.124 16.54 3.478-7.975 10.123-9.485 15.299-8.215 3.707.93 6.085 1.42 7.859 1.77l1.914.405c2.458.58 4.631 2.21 5.91 4.495.93 1.63 1.769 4.18 1.19 7.69 1.823-.12 2.697-.405 2.897-.665 1.944-5.515 2.873-11.485 2.613-17.695a47.4 47.4 0 0 0-3.072-15.03h-.01zm-32.23 36.925c1.124 2.44 3.102 3.86 4.581 4.355 1.914.67 6.95 1.72 11.127 2.175 4.611.525 8.174-2.055 10.232-7.22-1.539-.085-3.192-.265-4.896-.49-.315 1.05-.72 2.09-1.244 2.985a1.45 1.45 0 0 1-1.969.545 1.45 1.45 0 0 1-.544-1.97c.35-.61.634-1.3.874-2.035-.894-.14-1.794-.315-2.698-.49-.315 1.215-.664 2.35-1.014 3.195a1.476 1.476 0 0 1-1.914.755 1.48 1.48 0 0 1-.754-1.915c.294-.7.58-1.63.84-2.635-.46-.085-.93-.21-1.39-.315-.49-.12-.984-.23-1.474-.35a24 24 0 0 1-.964 2.58 1.48 1.48 0 0 1-1.879.785 1.48 1.48 0 0 1-.784-1.88c.315-.72.58-1.455.784-2.145-2.438-.615-4.951-1.3-7.474-2.055-.615 2.67-.09 4.76.544 6.125m26.86-3.545c.58-2.93-.054-4.985-.754-6.235-.894-1.595-2.373-2.7-4.057-3.105l-1.824-.37c-1.683-.35-4.206-.84-7.969-1.795-5.036-1.28-9.388 1.05-11.79 6.235 2.457.72 4.896 1.39 7.244 1.97.37-1.825.46-3.13.46-3.13.054-.81.719-1.42 1.538-1.365.81.055 1.42.72 1.364 1.53 0 .12-.085 1.565-.544 3.655.46.12.929.23 1.389.315.46.12.959.195 1.389.315.404-2.035.664-3.775.7-3.795a1.46 1.46 0 0 1 1.648-1.215c.784.12 1.334.875 1.214 1.65 0 .14-.295 1.88-.72 3.95.965.195 1.88.35 2.753.49.32-1.74.405-3.16.405-3.195.035-.81.72-1.42 1.509-1.365.81.035 1.419.72 1.364 1.51 0 .12-.09 1.595-.44 3.48a71 71 0 0 0 5.072.49m-74.48-32.59c-.635-.12-1.914-.12-3.193 1.28-2.033 2.175-2.963 5.16-2.808 8.795.035.93.175 1.455.44 2.21.46 1.335 1.594 2.2 2.438 2.35.985.175 2.089-.405 3.128-1.63 2.263-2.67 3.248-7.6 2.118-10.73-.46-1.3-1.214-2.12-2.088-2.295"/></g><defs><clipPath id="a"><path fill="#fff" d="M0 0h121v300H0z"/></clipPath></defs></svg>